<?xml version="1.0" encoding="UTF-8"?>
<svg version="1.1" xmlns="http://www.w3.org/2000/svg" width="512" height="512">
<path d="M0 0 C1.37045026 -0.00542487 2.74089468 -0.01254958 4.11132812 -0.02124023 C7.82214736 -0.03943355 11.53252041 -0.0324229 15.24334717 -0.01972389 C19.13229549 -0.00957537 23.02120638 -0.0189947 26.91015625 -0.02526855 C33.44017372 -0.03253959 39.97001005 -0.02297163 46.5 -0.00390625 C54.04255185 0.01786159 61.58467116 0.01080982 69.12721252 -0.01121187 C75.61063837 -0.02938147 82.09393423 -0.03191662 88.57737732 -0.0214572 C92.44635098 -0.01523078 96.31512153 -0.01436299 100.18408203 -0.02760315 C103.82206402 -0.03918392 107.45949 -0.03109613 111.09741211 -0.00802612 C113.06428265 -0.00024035 115.03120039 -0.01207597 116.99804688 -0.02453613 C127.75673152 0.0785164 127.75673152 0.0785164 132.5625 4.51757812 C137.19537977 9.66735539 137.04711878 14.03867133 136.85546875 20.60351562 C136.84558105 22.60741535 136.83716647 24.61132279 136.83007812 26.61523438 C136.79716866 29.73992737 136.75071116 32.86283153 136.67602539 35.98681641 C136.3851087 49.77297394 137.44447353 59.29511871 145.36471558 70.73724365 C147.26309279 73.55890865 148.83178722 76.51780194 150.44921875 79.50976562 C151.07046631 80.63358643 151.69171387 81.75740723 152.33178711 82.9152832 C152.96479736 84.06279053 153.59780762 85.21029785 154.25 86.39257812 C154.58677765 87.00265717 154.9235553 87.61273621 155.27053833 88.24130249 C160.78602956 98.23656871 166.2306094 108.26798533 171.60620117 118.33935547 C172.12674072 119.31211426 172.64728027 120.28487305 173.18359375 121.28710938 C173.67789383 122.23452499 174.17219391 123.18194061 174.68147278 124.1580658 C176.51787978 127.56614843 176.51787978 127.56614843 178.82263184 130.76359558 C186.93906261 142.70761479 186.82228001 153.97966424 186.66015625 168.04882812 C186.66582044 170.38009897 186.675446 172.71136322 186.68882751 175.04260254 C186.71326692 181.1256584 186.68452965 187.20729828 186.64404297 193.29022217 C186.61222338 199.51839761 186.63162287 205.74640135 186.64648438 211.97460938 C186.66811699 224.15596273 186.63347327 236.33643647 186.5625 248.51757812 C188.42113339 243.95352103 190.25142174 239.37936621 192.05833435 234.79458618 C192.67427784 233.2425453 193.29734032 231.69330715 193.92814636 230.14724731 C199.0663769 217.53269317 200.76281443 207.05621617 200.55078125 193.34960938 C200.43651165 185.57048672 202.04100987 178.85981547 204.5625 171.51757812 C204.91183594 170.48246094 205.26117188 169.44734375 205.62109375 168.38085938 C211.3638305 153.17949738 221.6563118 139.81098008 234.25 129.64257812 C236.86731509 127.42296594 237.46855375 126.90119199 238.3125 123.45507812 C236.89417122 117.89995705 233.82562366 114.70890434 229.8125 110.83007812 C223.0482642 104.26889631 216.46277288 97.04574769 216.25 87.39257812 C216.32712376 80.39745317 217.44235228 75.88911216 222.2109375 70.73632812 C225.63868914 67.56303839 227.93850435 66.35102503 232.5625 65.51757812 C232.55361755 64.76224792 232.54473511 64.00691772 232.5355835 63.22869873 C232.45540611 56.10736725 232.39452015 48.98625487 232.35525131 41.86458969 C232.3343839 38.20331301 232.30608294 34.54240954 232.26074219 30.88134766 C232.21725237 27.34759102 232.19335652 23.81419313 232.18299103 20.28018951 C232.17201263 18.27706561 232.14079124 16.27408586 232.10931396 14.2711792 C232.10901184 13.05021545 232.10870972 11.82925171 232.10839844 10.57128906 C232.09951599 9.49651306 232.09063354 8.42173706 232.08148193 7.31439209 C232.5625 4.51757813 232.5625 4.51757813 233.9697876 2.17156982 C237.99411446 -0.39570421 241.81999571 -0.03981212 246.5 0 C247.50853027 -0.00700928 248.51706055 -0.01401855 249.55615234 -0.02124023 C252.89188114 -0.03885406 256.22676248 -0.02718497 259.5625 -0.01367188 C261.87890791 -0.0163658 264.19531472 -0.02024739 266.51171875 -0.02526855 C271.36729698 -0.03116822 276.22258096 -0.02258526 281.078125 -0.00390625 C287.30614646 0.01888316 293.53347845 0.00576265 299.76147461 -0.01819611 C304.54497485 -0.0326412 309.32831127 -0.02805393 314.11181641 -0.01768494 C316.40836671 -0.0150141 318.70493183 -0.01829988 321.00146484 -0.02760315 C324.2097114 -0.03774714 327.41683706 -0.02229671 330.625 0 C331.57681152 -0.00809692 332.52862305 -0.01619385 333.50927734 -0.02453613 C339.84067682 0.05709915 339.84067682 0.05709915 343.1552124 2.17156982 C344.95335149 5.16914419 345.04545048 7.08057057 345.01660156 10.57128906 C345.01614838 12.40273468 345.01614838 12.40273468 345.01568604 14.2711792 C344.99504089 15.58483459 344.97439575 16.89848999 344.953125 18.25195312 C344.94566087 19.6138628 344.93996874 20.97578325 344.93597412 22.33770752 C344.92073092 25.91528181 344.88146181 29.49220234 344.8371582 33.06951904 C344.79617632 36.72268836 344.77795697 40.37596374 344.7578125 44.02929688 C344.7149651 51.19235473 344.64673115 58.35487468 344.5625 65.51757812 C345.34874756 65.65929443 346.13499512 65.80101074 346.94506836 65.94702148 C351.78681094 67.00244098 354.92293217 70.40819261 357.8984375 74.23632812 C361.46333721 80.20311062 361.60912418 86.77537117 360.5625 93.51757812 C357.95636828 100.5098787 353.30034701 104.88765103 347.68359375 109.57617188 C343.7815718 113.1476358 341.39377986 117.28351351 339.5625 122.20507812 C339.5625 125.45295371 340.70469307 126.85253284 342.5625 129.51757812 C344.55307457 131.39089584 346.55309399 133.17877245 348.625 134.95507812 C363.89041804 148.59674281 373.61837394 167.1934386 376.5625 187.51757812 C376.64650846 189.43973462 376.68457303 191.36430899 376.68275452 193.28829956 C376.68481651 194.97929527 376.68481651 194.97929527 376.68692017 196.70445251 C376.68332489 197.92652908 376.67972961 199.14860565 376.67602539 200.40771484 C376.67617142 201.70581589 376.67631744 203.00391693 376.6764679 204.34135437 C376.67675405 207.88842056 376.67088666 211.43545274 376.66389394 214.98251104 C376.65763018 218.69407827 376.65705421 222.40564632 376.65586853 226.11721802 C376.65276412 233.14001201 376.64456274 240.16279039 376.63451904 247.18557751 C376.62333025 255.18314395 376.61784049 263.18071114 376.61282361 271.17828345 C376.60237937 287.62472415 376.58479718 304.07114914 376.5625 320.51757812 C377.30530212 320.50869568 378.04810425 320.49981323 378.81341553 320.49066162 C385.81699905 320.41048069 392.82042335 320.34959626 399.82433701 320.31032944 C403.42508286 320.289463 407.02544916 320.26116392 410.62597656 320.21582031 C414.10137913 320.17232688 417.57641688 320.14843391 421.05207062 320.13806915 C423.02195784 320.12709198 424.99169847 320.09587113 426.96136475 320.06439209 C428.76277924 320.0639389 428.76277924 320.0639389 430.60058594 320.06347656 C431.65759705 320.05459412 432.71460815 320.04571167 433.8036499 320.03656006 C437.25246867 320.6378773 438.41776767 321.80968309 440.5625 324.51757812 C441.09375 326.51757813 441.09375 326.51757813 441.0625 328.51757812 C441.0728125 329.17757813 441.083125 329.83757812 441.09375 330.51757812 C440.31049158 333.46631572 438.92735285 334.62099357 436.5625 336.51757812 C433.546875 336.90820312 433.546875 336.90820312 430.3125 336.76757812 C429.23484375 336.73148437 428.1571875 336.69539063 427.046875 336.65820312 C426.22703125 336.61179687 425.4071875 336.56539063 424.5625 336.51757812 C424.46340332 337.69328369 424.36430664 338.86898926 424.26220703 340.08032227 C423.17234297 352.97503592 422.05992375 365.86775963 420.93539429 378.75949097 C420.86706076 379.5428866 420.79872723 380.32628223 420.72832298 381.13341713 C420.58280995 382.80161978 420.43728261 384.46982119 420.29174232 386.13802147 C419.75805133 392.26037086 419.22827013 398.38305195 418.69965172 404.50584126 C417.62567994 416.94333772 416.54164943 429.37990344 415.44444847 441.81537342 C414.88280112 448.18426021 414.32553465 454.55346478 413.77838135 460.9236145 C413.25376561 467.0289749 412.71737335 473.1331917 412.17237091 479.23676491 C411.97039124 481.52185906 411.77264959 483.80733212 411.57933807 486.09317589 C411.31146857 489.25236841 411.02844108 492.40985533 410.74169922 495.56738281 C410.62938556 496.95540903 410.62938556 496.95540903 410.51480293 498.37147617 C410.04474221 503.3504514 409.3075477 507.19887876 406.5625 511.51757812 C403.52891175 513.03437225 400.38327831 512.65846521 397.05546951 512.6517992 C396.26817727 512.65415143 395.48088502 512.65650366 394.66973543 512.65892717 C392.00354459 512.66564042 389.33740222 512.66515825 386.67120361 512.66474915 C384.75159593 512.66804632 382.83198894 512.67177158 380.91238284 512.67589062 C375.61535078 512.68593533 370.31833006 512.68963138 365.02128983 512.69227993 C359.31699387 512.69617566 353.61270695 512.70575447 347.90841675 512.7144928 C334.12193238 512.7342776 320.33544725 512.74432582 306.54895222 512.75322059 C300.06248814 512.75760006 293.57602489 512.76296773 287.08956146 512.76820946 C265.53722395 512.7852235 243.98488775 512.79974379 222.43254471 512.8069582 C221.03827478 512.80743296 219.64400485 512.80790885 218.24973492 512.80838586 C217.55829029 512.80862224 216.86684566 512.80885861 216.15444817 512.80910215 C212.65114252 512.81030337 209.14783689 512.81151881 205.64453125 512.81274414 C204.6016617 512.81310437 204.6016617 512.81310437 203.53772407 512.81347187 C180.99116047 512.82136653 158.44464945 512.84480123 135.89810881 512.87730008 C112.07041876 512.91158301 88.24276302 512.93130676 64.41504741 512.93460244 C51.42234816 512.93677085 38.42972618 512.94556778 25.43704987 512.97106361 C14.37446055 512.99272137 3.31196727 513.00084534 -7.75064084 512.99109683 C-13.3979162 512.98653787 -19.04499323 512.98853082 -24.69224167 513.00785828 C-29.85897036 513.02538895 -35.02535453 513.02457474 -40.19208637 513.00896098 C-42.06426508 513.00656949 -43.93646702 513.01098759 -45.80861005 513.02278963 C-48.34853077 513.03781345 -50.88721572 513.02830275 -53.42710495 513.01256275 C-54.15839615 513.02278496 -54.88968735 513.03300717 -55.64313889 513.04353914 C-61.93975701 512.95804787 -65.45542528 510.52095309 -69.77570724 506.15424347 C-72.40907449 500.39138564 -72.03125586 494.57437877 -72.02618408 488.33093262 C-72.03939066 486.86219119 -72.05429548 485.39346421 -72.07075 483.92475557 C-72.11073482 479.89164088 -72.1256816 475.85876426 -72.13630724 471.82547951 C-72.15195036 467.47312996 -72.19026403 463.12096754 -72.22515869 458.76873779 C-72.30417071 448.25271736 -72.34449308 437.73668183 -72.38006985 427.22043872 C-72.39762518 422.25726502 -72.41908771 417.29410824 -72.44002533 412.33094788 C-72.50810003 395.80888162 -72.56605129 379.28682577 -72.59502029 362.76464081 C-72.60265894 358.47785936 -72.61034036 354.19107799 -72.61816406 349.90429688 C-72.62009902 348.83893788 -72.62203398 347.77357888 -72.62402758 346.67593628 C-72.65713367 329.46922186 -72.75830512 312.26362843 -72.88848677 295.05740207 C-73.02132358 277.35427104 -73.09286636 259.65170629 -73.10559726 241.94807482 C-73.1142115 232.02355044 -73.14850681 222.10065559 -73.25144196 212.17662048 C-73.33903901 203.71201138 -73.37010754 195.24942638 -73.33157483 186.78441542 C-73.31360237 182.47740742 -73.31969144 178.17455605 -73.39862061 173.86814117 C-73.79607682 150.91025682 -69.8225442 135.09531797 -57.42629766 115.66166019 C-54.4307481 110.92600818 -51.72823816 106.03508669 -49 101.14257812 C-47.9662837 99.3292565 -46.93128482 97.51666493 -45.89453125 95.70507812 C-40.70633581 86.513235 -35.82315952 77.15298086 -30.90844727 67.81298828 C-30.55204666 67.13695557 -30.19564606 66.46092285 -29.82844543 65.7644043 C-29.15416509 64.48472283 -28.48155664 63.20415864 -27.81083679 61.92260742 C-25.54902631 57.62910443 -25.54902631 57.62910443 -24.4375 56.51757812 C-24.33606562 55.10677382 -24.30183031 53.69104393 -24.2956543 52.27661133 C-24.28861984 51.37509842 -24.28158539 50.47358551 -24.27433777 49.54475403 C-24.27017349 48.56254379 -24.26600922 47.58033356 -24.26171875 46.56835938 C-24.23851186 44.50259407 -24.21439417 42.43683884 -24.18945312 40.37109375 C-24.15438132 37.10352945 -24.12502575 33.83633281 -24.11157227 30.56860352 C-24.09607054 27.42223062 -24.05583366 24.27694437 -24.01171875 21.13085938 C-24.01362717 20.15877029 -24.01553558 19.18668121 -24.01750183 18.18513489 C-23.91503316 12.48553014 -23.41754315 8.918847 -19.4375 4.51757812 C-13.69646794 -0.78277981 -7.49635236 -0.04749013 0 0 Z M185.5625 300.51757812 C185.5625 307.77757812 185.5625 315.03757812 185.5625 322.51757812 C189.53889557 318.54118255 190.40564946 316.16450879 190.9375 310.58007812 C190.84565512 306.17987318 189.32872752 303.87058118 186.5625 300.51757812 C186.2325 300.51757812 185.9025 300.51757812 185.5625 300.51757812 Z " fill="#C6BAB2" transform="translate(71.4375,-0.517578125)"/>
<path d="M0 0 C1.00853027 -0.00700928 2.01706055 -0.01401855 3.05615234 -0.02124023 C6.39188114 -0.03885406 9.72676248 -0.02718497 13.0625 -0.01367188 C15.37890791 -0.0163658 17.69531472 -0.02024739 20.01171875 -0.02526855 C24.86729698 -0.03116822 29.72258096 -0.02258526 34.578125 -0.00390625 C40.80614646 0.01888316 47.03347845 0.00576265 53.26147461 -0.01819611 C58.04497485 -0.0326412 62.82831127 -0.02805393 67.61181641 -0.01768494 C69.90836671 -0.0150141 72.20493183 -0.01829988 74.50146484 -0.02760315 C77.7097114 -0.03774714 80.91683706 -0.02229671 84.125 0 C85.55271729 -0.01214539 85.55271729 -0.01214539 87.00927734 -0.02453613 C93.34067682 0.05709915 93.34067682 0.05709915 96.6552124 2.17156982 C98.45335149 5.16914419 98.54545048 7.08057057 98.51660156 10.57128906 C98.51629944 11.79225281 98.51599731 13.01321655 98.51568604 14.2711792 C98.49504089 15.58483459 98.47439575 16.89848999 98.453125 18.25195312 C98.44566087 19.6138628 98.43996874 20.97578325 98.43597412 22.33770752 C98.42073092 25.91528181 98.38146181 29.49220234 98.3371582 33.06951904 C98.29617632 36.72268836 98.27795697 40.37596374 98.2578125 44.02929688 C98.2149651 51.19235473 98.14673115 58.35487468 98.0625 65.51757812 C98.84874756 65.65929443 99.63499512 65.80101074 100.44506836 65.94702148 C105.28681094 67.00244098 108.42293217 70.40819261 111.3984375 74.23632812 C114.96333721 80.20311062 115.10912418 86.77537117 114.0625 93.51757812 C111.45636828 100.5098787 106.80034701 104.88765103 101.18359375 109.57617188 C97.2815718 113.1476358 94.89377986 117.28351351 93.0625 122.20507812 C93.0625 125.45295371 94.20469307 126.85253284 96.0625 129.51757812 C98.05307457 131.39089584 100.05309399 133.17877245 102.125 134.95507812 C117.39041804 148.59674281 127.11837394 167.1934386 130.0625 187.51757812 C130.14650846 189.43973462 130.18457303 191.36430899 130.18275452 193.28829956 C130.18481651 194.97929527 130.18481651 194.97929527 130.18692017 196.70445251 C130.18332489 197.92652908 130.17972961 199.14860565 130.17602539 200.40771484 C130.17617142 201.70581589 130.17631744 203.00391693 130.1764679 204.34135437 C130.17675405 207.88842056 130.17088666 211.43545274 130.16389394 214.98251104 C130.15763018 218.69407827 130.15705421 222.40564632 130.15586853 226.11721802 C130.15276412 233.14001201 130.14456274 240.16279039 130.13451904 247.18557751 C130.12333025 255.18314395 130.11784049 263.18071114 130.11282361 271.17828345 C130.10237937 287.62472415 130.08479718 304.07114914 130.0625 320.51757812 C130.80530212 320.50869568 131.54810425 320.49981323 132.31341553 320.49066162 C139.31699905 320.41048069 146.32042335 320.34959626 153.32433701 320.31032944 C156.92508286 320.289463 160.52544916 320.26116392 164.12597656 320.21582031 C167.60137913 320.17232688 171.07641688 320.14843391 174.55207062 320.13806915 C176.52195784 320.12709198 178.49169847 320.09587113 180.46136475 320.06439209 C182.26277924 320.0639389 182.26277924 320.0639389 184.10058594 320.06347656 C185.15759705 320.05459412 186.21460815 320.04571167 187.3036499 320.03656006 C190.75246867 320.6378773 191.91776767 321.80968309 194.0625 324.51757812 C194.59375 326.51757813 194.59375 326.51757813 194.5625 328.51757812 C194.5728125 329.17757813 194.583125 329.83757812 194.59375 330.51757812 C193.81049158 333.46631572 192.42735285 334.62099357 190.0625 336.51757812 C187.046875 336.90820312 187.046875 336.90820312 183.8125 336.76757812 C182.73484375 336.73148437 181.6571875 336.69539063 180.546875 336.65820312 C179.72703125 336.61179687 178.9071875 336.56539063 178.0625 336.51757812 C177.96340332 337.69328369 177.86430664 338.86898926 177.76220703 340.08032227 C176.67234297 352.97503592 175.55992375 365.86775963 174.43539429 378.75949097 C174.36706076 379.5428866 174.29872723 380.32628223 174.22832298 381.13341713 C174.08280995 382.80161978 173.93728261 384.46982119 173.79174232 386.13802147 C173.25805133 392.26037086 172.72827013 398.38305195 172.19965172 404.50584126 C171.12567994 416.94333772 170.04164943 429.37990344 168.94444847 441.81537342 C168.38280112 448.18426021 167.82553465 454.55346478 167.27838135 460.9236145 C166.75376561 467.0289749 166.21737335 473.1331917 165.67237091 479.23676491 C165.47039124 481.52185906 165.27264959 483.80733212 165.07933807 486.09317589 C164.81146857 489.25236841 164.52844108 492.40985533 164.24169922 495.56738281 C164.12938556 496.95540903 164.12938556 496.95540903 164.01480293 498.37147617 C163.54474221 503.3504514 162.8075477 507.19887876 160.0625 511.51757812 C156.86198891 513.11783367 153.38603548 512.66555005 149.87026978 512.66474915 C149.01287559 512.66842583 148.1554814 512.67210252 147.27210557 512.67589062 C144.38143031 512.68695689 141.49079096 512.69077648 138.60009766 512.69458008 C136.53375636 512.70084315 134.46741619 512.70748981 132.40107727 512.7144928 C125.59291372 512.73557665 118.78474985 512.74590794 111.9765625 512.75585938 C109.62995771 512.75990711 107.28335305 512.76402403 104.9367485 512.76820946 C93.89812392 512.78728064 82.85950604 512.80150043 71.82086813 512.80982143 C59.10839527 512.81956306 46.39609795 512.84579376 33.68368685 512.88632232 C23.84477271 512.91660366 14.00590847 512.93130215 4.16694868 512.93460244 C-1.70121262 512.93694177 -7.56918683 512.94575382 -13.43729782 512.97106361 C-18.97443051 512.99455615 -24.51125583 512.99849345 -30.04842567 512.98830223 C-32.06540901 512.98781165 -34.08240855 512.99398831 -36.09934425 513.00785828 C-73.91771148 513.25305881 -110.34490321 499.81560776 -137.9453125 473.61132812 C-141.87557981 469.44341675 -141.87557981 469.44341675 -142.12109375 465.77246094 C-141.80112114 460.09975511 -139.36801824 455.17351456 -137.25 449.95507812 C-136.81494141 448.83166016 -136.37988281 447.70824219 -135.93164062 446.55078125 C-131.72836383 436.07061111 -131.72836383 436.07061111 -126.9375 432.51757812 C-124.65625 431.54882812 -124.65625 431.54882812 -122.4375 431.01757812 C-117.45859157 429.55124403 -114.4912386 427.1693652 -111.83203125 422.63085938 C-110.28706922 418.98097092 -110.36614007 415.40282566 -110.9375 411.51757812 C-112.17975245 408.80823116 -113.81822164 406.63685649 -115.9375 404.51757812 C-116.65742604 396.47693341 -114.46067787 390.4471391 -111.51953125 383.02929688 C-111.06527267 381.84970901 -110.6110141 380.67012115 -110.14299011 379.45478821 C-108.9374698 376.33314232 -107.71906583 373.21718595 -106.49414062 370.10314941 C-105.26493984 366.96784051 -104.0545586 363.82528836 -102.84179688 360.68359375 C-100.23454044 353.95045832 -97.61306429 347.22389147 -94.9375 340.51757812 C-94.50094086 339.40734283 -94.06438171 338.29710754 -93.61459351 337.15322876 C-93.18321075 336.07955048 -92.751828 335.00587219 -92.30737305 333.8996582 C-91.92397263 332.93699539 -91.5405722 331.97433258 -91.14555359 330.98249817 C-89.95928358 328.56202548 -89.096092 327.11581222 -86.9375 325.51757812 C-81.94516034 325.12136069 -79.34690839 325.31287393 -74.9375 327.51757812 C-70.91601659 327.83674347 -68.06397408 327.88433713 -64.25 326.64257812 C-59.70435111 322.46549536 -56.71020792 316.48089636 -56.375 310.26757812 C-57.14841549 305.11147485 -59.30819354 302.14688459 -62.9375 298.51757812 C-64.2342783 298.01648757 -65.54960424 297.56216337 -66.875 297.14257812 C-69.45255517 296.20230845 -70.87806632 295.57143989 -72.9375 293.70507812 C-74.70474885 289.83922126 -74.21095601 286.41618772 -72.99462891 282.41918945 C-72.55554199 281.32372803 -72.11645508 280.2282666 -71.6640625 279.09960938 C-71.42473495 278.49302994 -71.18540741 277.8864505 -70.93882751 277.26148987 C-70.42359202 275.95852675 -69.90381357 274.6573525 -69.37991333 273.35784912 C-67.98473879 269.89681618 -66.62230286 266.42285722 -65.25390625 262.95117188 C-64.97475876 262.24595398 -64.69561127 261.54073608 -64.40800476 260.81414795 C-61.24995484 252.82022488 -58.28476603 244.75786366 -55.32470703 236.6887207 C-54.76372314 235.16154419 -54.76372314 235.16154419 -54.19140625 233.60351562 C-53.82861572 232.60247803 -53.4658252 231.60144043 -53.09204102 230.57006836 C-52.29762781 228.4697198 -51.45097594 226.38863157 -50.56225586 224.32641602 C-47.20645855 216.39252691 -46.30321941 209.77481403 -46.375 201.20507812 C-46.21620303 190.66023743 -45.37134962 181.5164826 -41.9375 171.51757812 C-41.58816406 170.48246094 -41.23882812 169.44734375 -40.87890625 168.38085938 C-35.1361695 153.17949738 -24.8436882 139.81098008 -12.25 129.64257812 C-9.63268491 127.42296594 -9.03144625 126.90119199 -8.1875 123.45507812 C-9.60582878 117.89995705 -12.67437634 114.70890434 -16.6875 110.83007812 C-23.4517358 104.26889631 -30.03722712 97.04574769 -30.25 87.39257812 C-30.17287624 80.39745317 -29.05764772 75.88911216 -24.2890625 70.73632812 C-20.86131086 67.56303839 -18.56149565 66.35102503 -13.9375 65.51757812 C-13.94638245 64.76224792 -13.95526489 64.00691772 -13.9644165 63.22869873 C-14.04459389 56.10736725 -14.10547985 48.98625487 -14.14474869 41.86458969 C-14.1656161 38.20331301 -14.19391706 34.54240954 -14.23925781 30.88134766 C-14.28274763 27.34759102 -14.30664348 23.81419313 -14.31700897 20.28018951 C-14.32798737 18.27706561 -14.35920876 16.27408586 -14.39068604 14.2711792 C-14.39113922 12.43973358 -14.39113922 12.43973358 -14.39160156 10.57128906 C-14.40048401 9.49651306 -14.40936646 8.42173706 -14.41851807 7.31439209 C-13.9375 4.51757812 -13.9375 4.51757812 -12.5302124 2.17156982 C-8.50588554 -0.39570421 -4.68000429 -0.03981212 0 0 Z " fill="#F09B72" transform="translate(317.9375,-0.517578125)"/>
<path d="M0 0 C1.83749565 -0.02409439 1.83749565 -0.02409439 3.71211243 -0.04867554 C5.05570787 -0.06016262 6.39931108 -0.07077122 7.74291992 -0.08056641 C8.41886389 -0.08589008 9.09480785 -0.09121376 9.79123497 -0.09669876 C13.36960084 -0.12342336 16.94793192 -0.14279965 20.52636719 -0.15722656 C23.48599166 -0.1705637 26.44492627 -0.19841074 29.40429688 -0.23925781 C32.97932944 -0.28860211 36.55373651 -0.31334946 40.12909508 -0.32045364 C41.48987339 -0.3271621 42.85063798 -0.3423741 44.21122169 -0.36634445 C55.03012187 -0.54606051 55.03012187 -0.54606051 59.32641602 2.26147461 C61.41815397 5.60396831 63.07936069 8.950534 64.49291992 12.61865234 C64.91513069 13.67828438 64.91513069 13.67828438 65.34587097 14.75932312 C65.93447366 16.24691919 66.51651571 17.73712628 67.09228516 19.22973633 C67.9697541 21.49598405 68.87516835 23.74956716 69.78393555 26.00341797 C70.35531542 27.45782217 70.92503254 28.91288092 71.49291992 30.36865234 C71.76159378 31.03351151 72.03026764 31.69837067 72.30708313 32.38337708 C74.12137624 37.16891522 74.58042855 41.07033675 74.16088867 46.19287109 C72.00854492 48.87255859 72.00854492 48.87255859 69.22338867 51.06787109 C65.67350757 53.70837742 65.67350757 53.70837742 63.16088867 57.19287109 C63.01187376 59.29340825 62.93950414 61.39974934 62.91088867 63.50537109 C62.88510742 64.63587891 62.85932617 65.76638672 62.83276367 66.93115234 C63.28032506 71.38012567 64.82264014 73.75046642 67.81713867 76.97802734 C71.89091665 79.08960226 76.46550683 78.62850744 80.96166992 78.63232422 C81.69772461 78.65101563 82.4337793 78.66970703 83.19213867 78.68896484 C83.85793945 78.69081787 84.52374023 78.6926709 85.2097168 78.69458008 C88.12888299 79.44007785 89.26893944 80.8777984 91.16088867 83.19287109 C92.62475586 86.09375 92.62475586 86.09375 93.95776367 89.41943359 C94.44116211 90.61568359 94.92456055 91.81193359 95.42260742 93.04443359 C95.66672363 93.66350586 95.91083984 94.28257812 96.16235352 94.92041016 C96.91290519 96.82298276 97.67809768 98.7191367 98.44604492 100.61474609 C102.16088867 109.88683588 102.16088867 109.88683588 102.16088867 112.19287109 C101.41808655 112.19651672 100.67528442 112.20016235 99.90997314 112.20391846 C92.90605881 112.24180206 85.90261468 112.29865823 78.89905167 112.37677383 C75.29848674 112.41626562 71.69816697 112.4484453 68.09741211 112.46386719 C64.62172277 112.47902327 61.14670734 112.5134482 57.67131805 112.56118011 C55.70165747 112.58321481 53.73180687 112.58534574 51.76202393 112.58721924 C50.56108093 112.60693787 49.36013794 112.62665649 48.12280273 112.64697266 C46.53728607 112.66029633 46.53728607 112.66029633 44.91973877 112.67388916 C41.47166312 113.32252497 40.27934764 114.44249939 38.16088867 117.19287109 C37.49422201 120.19287109 37.49422201 120.19287109 38.16088867 123.19287109 C40.36490598 126.06858892 41.58877183 127.07726199 45.17651367 127.80224609 C46.24385742 127.84865234 47.31120117 127.89505859 48.41088867 127.94287109 C49.48854492 127.99958984 50.56620117 128.05630859 51.67651367 128.11474609 C52.49635742 128.14052734 53.31620117 128.16630859 54.16088867 128.19287109 C54.22939529 128.91330093 54.29790192 129.63373077 54.3684845 130.37599182 C55.02952112 137.32709678 55.69081359 144.27817735 56.35236073 151.22923374 C56.75774706 155.48884175 57.16293219 159.74846882 57.5679493 164.00811195 C57.8306599 166.77037248 58.09364042 169.53260728 58.3566246 172.29484177 C58.55754635 174.40662711 58.75804253 176.51845261 58.95852661 178.63027954 C59.59988349 185.37637614 60.25024438 192.12130638 60.92407227 198.86425781 C62.31925296 212.88144875 63.56818837 226.8994463 64.66088867 240.94287109 C64.78583707 242.53828954 64.91085224 244.13370276 65.03593445 245.72911072 C65.54311071 252.21177571 66.04948589 258.69444892 66.53588867 265.17871094 C66.84010688 269.22885148 67.1561582 273.27791978 67.47998047 277.32653809 C67.59916598 278.8443438 67.7140201 280.3624968 67.82421875 281.88098145 C67.97731408 283.98468999 68.14552886 286.08669682 68.31713867 288.18896484 C68.45345703 289.97065063 68.45345703 289.97065063 68.5925293 291.78833008 C69.38501873 296.53543708 70.68200241 300.71398483 74.16088867 304.19287109 C62.25029315 304.28622859 50.33978702 304.35696574 38.42889786 304.40011978 C32.89606907 304.42084873 27.36349361 304.44889233 21.83081055 304.49462891 C16.4750297 304.5386177 11.11948996 304.56211811 5.76354218 304.57238007 C3.73695845 304.57967756 1.71038543 304.59392223 -0.31609344 304.61579132 C-38.42096136 305.01003273 -75.01351173 291.7121174 -102.84692383 265.28662109 C-106.77719114 261.11870972 -106.77719114 261.11870972 -107.02270508 257.44775391 C-106.70273247 251.77504808 -104.26962957 246.84880753 -102.15161133 241.63037109 C-101.71655273 240.50695312 -101.28149414 239.38353516 -100.83325195 238.22607422 C-96.62997516 227.74590408 -96.62997516 227.74590408 -91.83911133 224.19287109 C-89.55786133 223.22412109 -89.55786133 223.22412109 -87.33911133 222.69287109 C-82.36020289 221.226537 -79.39284993 218.84465817 -76.73364258 214.30615234 C-75.18868055 210.65626389 -75.2677514 207.07811863 -75.83911133 203.19287109 C-77.08136377 200.48352413 -78.71983297 198.31214945 -80.83911133 196.19287109 C-81.55903736 188.15222638 -79.3622892 182.12243206 -76.42114258 174.70458984 C-75.966884 173.52500198 -75.51262543 172.34541412 -75.04460144 171.13008118 C-73.83908113 168.00843529 -72.62067716 164.89247892 -71.39575195 161.77844238 C-70.16655117 158.64313348 -68.95616992 155.50058133 -67.7434082 152.35888672 C-65.13615177 145.62575128 -62.51467562 138.89918444 -59.83911133 132.19287109 C-59.40255219 131.0826358 -58.96599304 129.97240051 -58.51620483 128.82852173 C-57.86913071 127.2180043 -57.86913071 127.2180043 -57.20898438 125.57495117 C-56.82558395 124.61228836 -56.44218353 123.64962555 -56.04716492 122.65779114 C-54.86089491 120.23731845 -53.99770333 118.79110519 -51.83911133 117.19287109 C-46.84677167 116.79665366 -44.24851972 116.9881669 -39.83911133 119.19287109 C-35.81762792 119.51203644 -32.96558541 119.5596301 -29.15161133 118.31787109 C-24.60596244 114.14078833 -21.61181925 108.15618933 -21.27661133 101.94287109 C-22.05002682 96.78676782 -24.20980487 93.82217755 -27.83911133 90.19287109 C-29.13588963 89.69178054 -30.45121557 89.23745634 -31.77661133 88.81787109 C-34.3541665 87.87760142 -35.77967765 87.24673286 -37.83911133 85.38037109 C-39.60636018 81.51451423 -39.11256734 78.09148069 -37.89624023 74.09448242 C-37.45715332 72.999021 -37.01806641 71.90355957 -36.56567383 70.77490234 C-36.32634628 70.16832291 -36.08701874 69.56174347 -35.84043884 68.93678284 C-35.32520335 67.63381972 -34.8054249 66.33264547 -34.28152466 65.03314209 C-32.88635012 61.57210914 -31.52391418 58.09815019 -30.15551758 54.62646484 C-29.87637009 53.92124695 -29.5972226 53.21602905 -29.30961609 52.48944092 C-26.15156617 44.49551785 -23.18637735 36.43315663 -20.22631836 28.36401367 C-19.48068356 26.33415865 -18.73206628 24.30539628 -17.98022461 22.27783203 C-17.17171521 20.09205438 -16.3743152 17.9021527 -15.5847168 15.70947266 C-15.16206543 14.56188477 -14.73941406 13.41429687 -14.30395508 12.23193359 C-13.92746826 11.19504395 -13.55098145 10.1581543 -13.16308594 9.08984375 C-10.03215348 2.23908871 -7.33673361 0.08721076 0 0 Z " fill="#F7E767" transform="translate(282.839111328125,207.80712890625)"/>
<path d="M0 0 C52.8 0 105.6 0 160 0 C160 73.92 160 147.84 160 224 C107.2 224 54.4 224 0 224 C0 150.08 0 76.16 0 0 Z " fill="#EA6049" transform="translate(0,208)"/>
<path d="M0 0 C0.74873994 -0.00709439 1.49747989 -0.01418877 2.26890892 -0.02149814 C4.77354239 -0.03907666 7.27662364 -0.02097561 9.78123474 -0.00291443 C11.5784221 -0.00805329 13.37560443 -0.01533432 15.17277527 -0.02459717 C20.05088095 -0.04312231 24.92844056 -0.0301661 29.80652356 -0.01050687 C34.90958631 0.0058692 40.01261419 -0.0029317 45.11569214 -0.00802612 C53.68447095 -0.01254783 62.25303152 0.0033286 70.82176208 0.03126526 C80.73245422 0.06332769 90.64275295 0.06329771 100.55347306 0.04605049 C110.08374316 0.03019544 119.61386884 0.03691172 129.14413261 0.0539875 C133.20189692 0.06086523 137.25954572 0.05981818 141.31730843 0.05244255 C146.09365676 0.04479009 150.86955646 0.05687176 155.64582825 0.08429146 C157.40021368 0.09118692 159.15464092 0.09126085 160.90902519 0.08407593 C163.30101869 0.0754074 165.69161928 0.09129132 168.08349609 0.11352539 C169.12896845 0.10116424 169.12896845 0.10116424 170.19556147 0.08855337 C173.5625199 0.14646193 175.22427324 0.42876795 177.90722561 2.53535557 C179.61266893 4.80724569 180.02205738 5.82491508 179.97825623 8.62818909 C179.99372498 9.61818909 179.99372498 9.61818909 180.00950623 10.62818909 C179.2262478 13.57692669 177.84310908 14.73160453 175.47825623 16.62818909 C172.46263123 17.01881409 172.46263123 17.01881409 169.22825623 16.87818909 C168.15059998 16.84209534 167.07294373 16.80600159 165.96263123 16.76881409 C165.14278748 16.72240784 164.32294373 16.67600159 163.47825623 16.62818909 C163.32961121 18.39174744 163.32961121 18.39174744 163.17796326 20.19093323 C162.08809919 33.08564688 160.97567998 45.97837059 159.85115051 58.87010193 C159.74865022 60.04519538 159.74865022 60.04519538 159.64407921 61.24402809 C159.49856618 62.91223075 159.35303884 64.58043215 159.20749855 66.24863243 C158.67380755 72.37098182 158.14402635 78.49366291 157.61540794 84.61645222 C156.54143616 97.05394868 155.45740565 109.4905144 154.3602047 121.92598438 C153.79855735 128.29487117 153.24129087 134.66407574 152.69413757 141.03422546 C152.16952184 147.13958586 151.63312958 153.24380267 151.08812714 159.34737587 C150.88614747 161.63247002 150.68840582 163.91794309 150.4950943 166.20378685 C150.22722479 169.36297937 149.94419731 172.52046629 149.65745544 175.67799377 C149.58257967 176.60334458 149.5077039 177.52869539 149.43055916 178.48208714 C148.96049843 183.46106236 148.22330393 187.30948972 145.47825623 191.62818909 C143.04564038 192.84449701 141.47324521 192.76465481 138.75369263 192.78208923 C137.75688477 192.7906897 136.7600769 192.79929016 135.73306274 192.80815125 C134.08652458 192.81454117 134.08652458 192.81454117 132.40672302 192.82106018 C130.67731979 192.83332642 130.67731979 192.83332642 128.91297913 192.84584045 C125.08448309 192.87072362 121.25602417 192.88721699 117.42747498 192.90162659 C116.12267496 192.90695026 114.81787495 192.91227394 113.47353554 192.91775894 C107.99104478 192.9393872 102.50855697 192.95812385 97.02603436 192.96938133 C89.1690447 192.98562057 81.31254957 193.01879732 73.45574635 193.07578218 C67.93125739 193.11448468 62.40690067 193.13401433 56.88227969 193.1393019 C53.58262782 193.14295511 50.28362454 193.1574682 46.98409081 193.18740463 C43.30166625 193.21891166 39.62049616 193.21911395 35.93797302 193.21168518 C34.3005439 193.23629318 34.3005439 193.23629318 32.6300354 193.26139832 C25.25002582 193.20032951 25.25002582 193.20032951 21.31658936 190.28433228 C19.09384977 187.07277365 18.64177731 184.91747892 18.25950623 181.03834534 C18.19090393 180.39196609 18.12230164 179.74558685 18.05162048 179.07962036 C17.83333442 176.93073613 17.65233238 174.78108414 17.47825623 172.62818909 C17.41364197 171.87608154 17.34902771 171.123974 17.28245544 170.34907532 C16.86602343 165.45689437 16.50221694 160.562032 16.16017151 155.66413879 C15.84833995 151.20998518 15.51976625 146.75705632 15.19309998 142.30397034 C15.0985276 141.00813019 15.0985276 141.00813019 15.00204468 139.68611145 C14.29116033 129.98674827 13.41341979 120.30820275 12.47825623 110.62818909 C12.18721562 107.59179532 11.89716985 104.55530669 11.60716248 101.51881409 C11.52712479 100.6809436 11.4470871 99.84307312 11.36462402 98.97981262 C9.72339661 81.7938587 8.08324849 64.60777934 6.49772644 47.4165802 C6.31952885 45.4899878 6.14006582 43.56351198 5.95927429 41.63716125 C5.70685729 38.94437971 5.4591616 36.25120261 5.21263123 33.55787659 C5.13783539 32.77005798 5.06303955 31.98223938 4.98597717 31.17054749 C4.54678554 26.30179454 4.41306282 21.51700091 4.47825623 16.62818909 C3.67001404 16.6861969 2.86177185 16.74420471 2.02903748 16.80397034 C-6.68991014 17.17208031 -6.68991014 17.17208031 -10.77174377 14.50318909 C-12.85766794 11.07631367 -13.34113236 9.56125428 -12.52174377 5.62818909 C-8.79233163 0.85458177 -5.83688225 -0.09943673 0 0 Z " fill="#81C783" transform="translate(332.52174377441406,319.37181091308594)"/>
<path d="M0 0 C1.76845984 0.00138269 1.76845984 0.00138269 3.57264614 0.00279331 C4.22686894 0.00193889 4.88109175 0.00108446 5.55513948 0.00020415 C7.7631863 -0.00145245 9.97115836 0.00407361 12.17919827 0.00952244 C13.75568038 0.0098043 15.33216263 0.0096466 16.90864468 0.00907993 C21.20184837 0.00879191 25.49502437 0.01468943 29.7882216 0.02165389 C34.26989971 0.02788661 38.75157838 0.02849116 43.23326015 0.0296793 C51.72598196 0.03279286 60.21869097 0.04100657 68.71140712 0.05102879 C78.37750826 0.06218917 88.04360999 0.06770019 97.70971596 0.07272422 C117.59920876 0.08318917 137.48869001 0.10078908 157.37817287 0.12304783 C156.71677018 3.71639856 155.89021463 6.35975107 154.03442287 9.51757908 C153.53869778 10.37424168 153.04297268 11.23090427 152.53222561 12.11352634 C151.98638821 13.04479343 151.4405508 13.97606052 150.87817287 14.93554783 C145.32010255 24.58433282 140.01281471 34.33920562 134.81567287 44.18554783 C133.37475727 46.91236987 131.93329026 49.63889992 130.49145412 52.36523533 C130.14233974 53.02552738 129.79322536 53.68581944 129.43353176 54.36612034 C126.16650193 60.53774059 122.84835727 66.6809325 119.50317287 72.81054783 C119.02162746 73.69428074 118.54008205 74.57801365 118.04394436 75.48852634 C115.89196696 79.42112739 113.68668982 83.27551959 111.37817287 87.12304783 C111.04817287 108.57304783 110.71817287 130.02304783 110.37817287 152.12304783 C57.57817287 152.12304783 4.77817287 152.12304783 -49.62182713 152.12304783 C-49.62182713 77.06764085 -49.62182713 77.06764085 -35.73315525 58.95263767 C-32.39900815 54.48423285 -29.84063663 49.6378883 -27.18432713 44.74804783 C-26.15136224 42.93429805 -25.11614759 41.12182798 -24.07885838 39.31054783 C-18.89066294 30.1187047 -14.00748664 20.75845056 -9.09277439 11.41845798 C-8.73637379 10.74242527 -8.37997318 10.06639256 -8.01277256 9.369874 C-7.33849221 8.09019253 -6.66588377 6.80962835 -5.99516392 5.52807713 C-3.16113692 0.14835876 -3.16113692 0.14835876 0 0 Z " fill="#EEEAE7" transform="translate(49.621827125549316,55.876952171325684)"/>
<path d="M0 0 C1.37045026 -0.00542487 2.74089468 -0.01254958 4.11132812 -0.02124023 C7.82214736 -0.03943355 11.53252041 -0.0324229 15.24334717 -0.01972389 C19.13229549 -0.00957537 23.02120638 -0.0189947 26.91015625 -0.02526855 C33.44017372 -0.03253959 39.97001005 -0.02297163 46.5 -0.00390625 C54.04255185 0.01786159 61.58467116 0.01080982 69.12721252 -0.01121187 C75.61063837 -0.02938147 82.09393423 -0.03191662 88.57737732 -0.0214572 C92.44635098 -0.01523078 96.31512153 -0.01436299 100.18408203 -0.02760315 C103.82206402 -0.03918392 107.45949 -0.03109613 111.09741211 -0.00802612 C113.06428265 -0.00024035 115.03120039 -0.01207597 116.99804688 -0.02453613 C127.75673152 0.0785164 127.75673152 0.0785164 132.5625 4.51757812 C137.19537977 9.66735539 137.04711878 14.03867133 136.85546875 20.60351562 C136.84558105 22.60741535 136.83716647 24.61132279 136.83007812 26.61523438 C136.79716866 29.73992737 136.75071116 32.86283153 136.67602539 35.98681641 C136.3851087 49.77297394 137.44447353 59.29511871 145.36471558 70.73724365 C147.26309279 73.55890865 148.83178722 76.51780194 150.44921875 79.50976562 C151.07046631 80.63358643 151.69171387 81.75740723 152.33178711 82.9152832 C152.96479736 84.06279053 153.59780762 85.21029785 154.25 86.39257812 C154.58677765 87.00265717 154.9235553 87.61273621 155.27053833 88.24130249 C160.78602956 98.23656871 166.2306094 108.26798533 171.60620117 118.33935547 C172.12674072 119.31211426 172.64728027 120.28487305 173.18359375 121.28710938 C173.67815567 122.23481201 174.17271759 123.18251465 174.68226624 124.15893555 C176.51727902 127.56467109 176.51727902 127.56467109 178.81549072 130.75576782 C186.94356579 142.72383778 186.9350719 154.16452375 186.86328125 168.27148438 C186.87701103 170.66301281 186.89294068 173.05452951 186.91093445 175.44602966 C186.93761573 180.44652478 186.93060779 185.44558042 186.90063477 190.44604492 C186.87319562 195.51006483 186.8934936 200.56992014 186.9621582 205.63354492 C187.6835379 258.93335778 187.6835379 258.93335778 174.64323425 282.88633728 C173.37435012 285.97566265 173.25646275 288.20662783 173.5625 291.51757812 C176.41916737 295.51691245 180.13588453 296.76363615 184.5625 298.51757812 C187.15667075 301.11174888 185.79713158 308.40394689 185.8125 311.89257812 C185.8434375 313.63667969 185.8434375 313.63667969 185.875 315.41601562 C185.88273437 317.08664062 185.88273437 317.08664062 185.890625 318.79101562 C185.8999707 319.81630371 185.90931641 320.8415918 185.91894531 321.89794922 C185.5625 324.51757812 185.5625 324.51757812 184.22949219 326.31298828 C180.41689996 329.06801611 176.07617033 328.91448574 171.5625 328.51757812 C170.22916667 327.85091146 168.89583333 327.18424479 167.5625 326.51757812 C165.65505184 326.1330876 165.65505184 326.1330876 163.5625 326.01757812 C162.9025 325.96601563 162.2425 325.91445313 161.5625 325.86132812 C158.33463395 326.92047167 157.12584754 329.66850566 155.5625 332.51757812 C153.97565149 336.08674018 152.60291852 339.72720137 151.234375 343.38476562 C150.84050598 344.41949005 150.44663696 345.45421448 150.04083252 346.52029419 C148.79102938 349.80844086 147.55163695 353.10039904 146.3125 356.39257812 C145.46422699 358.62981726 144.61527603 360.86679947 143.765625 363.10351562 C141.69005618 368.57191876 139.62300869 374.04348378 137.5625 379.51757812 C137.2325 379.51757812 136.9025 379.51757812 136.5625 379.51757812 C136.2325 272.92757812 135.9025 166.33757812 135.5625 56.51757812 C83.0925 56.51757812 30.6225 56.51757812 -23.4375 56.51757812 C-23.4375 10.51757812 -23.4375 10.51757812 -19.4375 4.51757812 C-13.86738301 -0.8965282 -7.3010497 -0.04625287 0 0 Z " fill="#D3CBC6" transform="translate(71.4375,-0.517578125)"/>
<path d="M0 0 C1.60109104 2.86343911 2.30032879 5.12831062 2.5625 8.39111328 C2.63597656 9.2536673 2.70945312 10.11622131 2.78515625 11.00491333 C2.85605469 11.93399506 2.92695313 12.86307678 3 13.8203125 C3.08121094 14.79298065 3.16242188 15.7656488 3.24609375 16.76779175 C3.50515568 19.88628083 3.75310395 23.00552622 4 26.125 C4.24884823 29.19429014 4.50013554 32.26335781 4.75390625 35.33224487 C4.91084881 37.23783967 5.06480849 39.14368413 5.21484375 41.04983521 C5.69114449 46.92727923 6.30429648 52.77977222 6.97485352 58.63745117 C7.90537894 66.81688414 8.61493309 74.99999078 9.23093987 83.20848656 C9.40836929 85.56033809 9.59130298 87.91170634 9.77577209 90.26301575 C10.29891282 96.93196063 10.81946322 103.60104898 11.32006836 110.27172852 C11.62961155 114.391172 11.95102045 118.50954354 12.28015327 122.6274662 C12.40213593 124.18155558 12.51975826 125.73599409 12.63276482 127.29076195 C12.79074989 129.45814867 12.96388412 131.62384787 13.14038086 133.78979492 C13.28122353 135.63029671 13.28122353 135.63029671 13.4249115 137.50798035 C14.21366393 142.29739795 15.48896209 146.48896209 19 150 C7.08940448 150.09335749 -4.82110166 150.16409464 -16.73199081 150.20724869 C-22.2648196 150.22797763 -27.79739506 150.25602124 -33.33007812 150.30175781 C-38.68585897 150.3457466 -44.04139871 150.36924702 -49.3973465 150.37950897 C-51.42393023 150.38680646 -53.45050325 150.40105114 -55.47698212 150.42292023 C-92.4275605 150.8052191 -128.61399986 138.31727351 -156 113 C-157.01647785 111.67918565 -158.01925472 110.34755945 -159 109 C-158.07441284 108.86537354 -158.07441284 108.86537354 -157.13012695 108.72802734 C-143.01756818 106.63351026 -129.49117221 103.8077072 -115.88745117 99.48730469 C-114 99 -114 99 -111 99 C-111.495 97.906875 -111.99 96.81375 -112.5 95.6875 C-114.8828496 89.24582525 -115.30532307 82.21661442 -112.5625 75.8125 C-108.9511753 69.55716971 -102.91194423 64.16595487 -96 62 C-88.74807272 61.0550519 -82.06766257 61.74086473 -76 66 C-72.76355404 69.1524466 -69.83662556 72.48607141 -67 76 C-54.75654964 67.58322756 -54.75654964 67.58322756 -45.4375 56.19140625 C-42.54745 51.78565069 -38.76725513 48.83810382 -34.04296875 46.59765625 C-18.69908494 38.54162483 -7.46920611 14.93841223 0 0 Z " fill="#F5E13D" transform="translate(338,362)"/>
<path d="M0 0 C0.33 0 0.66 0 1 0 C1 62.37 1 124.74 1 189 C-51.8 189 -104.6 189 -159 189 C-159 169.2 -159 149.4 -159 129 C-150.09 126.69 -141.18 124.38 -132 122 C-129.36 121.01 -126.72 120.02 -124 119 C-122.68 119 -121.36 119 -120 119 C-118.46484375 120.72265625 -118.46484375 120.72265625 -116.9375 123.0625 C-110.723915 131.49332581 -102.06715515 135.78513472 -92 138 C-88.40434509 138.43029478 -84.86918354 138.52530226 -81.25 138.5 C-80.29061523 138.49427979 -79.33123047 138.48855957 -78.34277344 138.48266602 C-64.77886777 138.14413829 -53.5630709 133.28733394 -43.75 123.83203125 C-34.292458 113.73123731 -31.4888343 103.52475187 -31.6796875 89.82421875 C-32.29962816 82.42273206 -34.86891698 76.01521108 -38.3125 69.5 C-40 66 -40 66 -39.83984375 64.0703125 C-38.73907787 61.35679662 -37.1738884 59.58676951 -35.25 57.375 C-20.60836639 39.80968044 -9.25219705 20.91026637 0 0 Z " fill="#DE513E" transform="translate(159,243)"/>
<path d="M0 0 C52.8 0 105.6 0 160 0 C160 26.4 160 52.8 160 80 C122.62565293 80.16121214 122.62565293 80.16121214 106.97265625 80.1953125 C96.16154396 80.21905373 85.3505563 80.24697448 74.53955078 80.30175781 C66.66619098 80.34163598 58.79293223 80.36743528 50.91947424 80.37635398 C46.75077851 80.38156709 42.58237183 80.39381257 38.41376877 80.42292023 C34.48869257 80.45010495 30.56402401 80.45843892 26.63886261 80.45243073 C25.19973408 80.45352961 23.76059167 80.46146563 22.32154465 80.4768219 C20.35316631 80.49679338 18.38456839 80.48953833 16.41610718 80.48101807 C15.31548635 80.48470524 14.21486553 80.48839241 13.08089256 80.49219131 C9.12929129 79.86089899 7.08211132 78.53681008 4 76 C-10.07185468 54.89221799 0 25.36839679 0 0 Z " fill="#E1DAD4" transform="translate(0,432)"/>
<path d="M0 0 C1.0416572 3.32099674 0.98962171 6.03565614 0.68487549 9.48983765 C0.58961578 10.60574783 0.49435608 11.72165802 0.39620972 12.87138367 C0.28511871 14.09122452 0.17402771 15.31106537 0.05957031 16.56787109 C-0.05250763 17.85604233 -0.16458557 19.14421356 -0.28005981 20.47142029 C-0.58781115 24.00306679 -0.90426962 27.53388135 -1.22296047 31.06455564 C-1.48856916 34.01405466 -1.75036305 36.96388767 -2.01229596 39.913715 C-2.63067011 46.8750295 -3.25654115 53.83564339 -3.88671875 60.79589844 C-4.53612428 67.97031237 -5.17150212 75.14587356 -5.8001945 82.32212961 C-6.34093462 88.4878048 -6.89111321 94.65259008 -7.44866872 100.81676733 C-7.78134752 104.49631923 -8.11030431 108.17610902 -8.42989349 111.85682297 C-8.78690292 115.9636444 -9.16353717 120.06843914 -9.54199219 124.17333984 C-9.69648331 125.99702843 -9.69648331 125.99702843 -9.85409546 127.8575592 C-10.85171484 138.35962737 -10.85171484 138.35962737 -14 143 C-16.43261585 144.21630792 -18.00501102 144.13646572 -20.7245636 144.15390015 C-21.72137146 144.16250061 -22.71817932 144.17110107 -23.74519348 144.17996216 C-25.39173164 144.18635208 -25.39173164 144.18635208 -27.0715332 144.19287109 C-28.80093643 144.20513733 -28.80093643 144.20513733 -30.5652771 144.21765137 C-34.39377313 144.24253453 -38.22223205 144.2590279 -42.05078125 144.2734375 C-43.35558126 144.27876118 -44.66038128 144.28408485 -46.00472069 144.28956985 C-51.48721144 144.31119811 -56.96969925 144.32993476 -62.45222187 144.34119225 C-70.30921153 144.35743148 -78.16570665 144.39060823 -86.02250987 144.44759309 C-91.54699884 144.48629559 -97.07135555 144.50582524 -102.59597653 144.51111281 C-105.89562841 144.51476602 -109.19463169 144.52927911 -112.49416542 144.55921555 C-116.17658998 144.59072257 -119.85776006 144.59092486 -123.5402832 144.58349609 C-125.17771233 144.6081041 -125.17771233 144.6081041 -126.84822083 144.63320923 C-134.23119352 144.57211591 -134.23119352 144.57211591 -138.1627655 141.64639282 C-140.34605665 138.50153242 -140.81469482 136.49011286 -141.1875 132.6875 C-141.32285156 131.38039063 -141.45820313 130.07328125 -141.59765625 128.7265625 C-141.73301651 127.1511482 -141.86700152 125.57561544 -142 124 C-142.18579481 121.98694192 -142.37201971 119.97392351 -142.55859375 117.9609375 C-144.13875136 100.31517066 -144.13875136 100.31517066 -144 92 C-142.83936035 91.86537354 -142.83936035 91.86537354 -141.65527344 91.72802734 C-125.59907327 89.8179342 -110.27793919 87.50385387 -95 82 C-94.34467285 81.77086914 -93.6893457 81.54173828 -93.01416016 81.30566406 C-52.29950388 66.89395167 -20.72985071 37.38860207 0 0 Z " fill="#66BB6A" transform="translate(492,368)"/>
<path d="M0 0 C52.8 0 105.6 0 160 0 C160 21.12 160 42.24 160 64 C107.2 64 54.4 64 0 64 C0 42.88 0 21.76 0 0 Z " fill="#E2DBD5" transform="translate(0,144)"/>
<path d="M0 0 C1.37045026 -0.00542487 2.74089468 -0.01254958 4.11132812 -0.02124023 C7.82214736 -0.03943355 11.53252041 -0.0324229 15.24334717 -0.01972389 C19.13229549 -0.00957537 23.02120638 -0.0189947 26.91015625 -0.02526855 C33.44017372 -0.03253959 39.97001005 -0.02297163 46.5 -0.00390625 C54.04255185 0.01786159 61.58467116 0.01080982 69.12721252 -0.01121187 C75.61063837 -0.02938147 82.09393423 -0.03191662 88.57737732 -0.0214572 C92.44635098 -0.01523078 96.31512153 -0.01436299 100.18408203 -0.02760315 C103.82206402 -0.03918392 107.45949 -0.03109613 111.09741211 -0.00802612 C113.06428265 -0.00024035 115.03120039 -0.01207597 116.99804688 -0.02453613 C127.99790071 0.08082645 127.99790071 0.08082645 132.5625 4.51757812 C142.39007328 19.25893805 136.5625 39.80066844 136.5625 57.51757812 C83.7625 57.18757813 30.9625 56.85757813 -23.4375 56.51757812 C-23.4375 10.51757812 -23.4375 10.51757812 -19.4375 4.51757812 C-13.86738301 -0.8965282 -7.3010497 -0.04625287 0 0 Z " fill="#E1DBD5" transform="translate(71.4375,-0.517578125)"/>
<path d="M0 0 C5.78710465 2.60419709 9.82557323 7.36888297 13.625 12.3125 C14.09236572 12.91779541 14.55973145 13.52309082 15.04125977 14.14672852 C23.70711381 25.52902494 31.31866577 37.34491233 38 50 C38.49234131 50.92611084 38.98468262 51.85222168 39.49194336 52.80639648 C46.26878343 65.9752017 50.2496899 78.65799422 46.375 93.4375 C41.22774541 107.87375358 31.39093609 116.71314596 17.96875 123.3828125 C6.09475027 128.26207101 -10.9887142 128.39477657 -22.89453125 123.515625 C-35.95338149 116.54568394 -42.71317873 107.98361965 -47.5 94.125 C-48.3125 90.6875 -48.3125 90.6875 -48.5 87.125 C-48.61021484 85.74634766 -48.61021484 85.74634766 -48.72265625 84.33984375 C-50.01178809 57.13585648 -28.61110885 30.41934413 -12.5 10.125 C-11.80519531 9.238125 -11.11039063 8.35125 -10.39453125 7.4375 C-4.48502862 0.22425143 -4.48502862 0.22425143 0 0 Z " fill="#FEFEFE" transform="translate(80.5,255.875)"/>
<path d="M0 0 C1.00853027 -0.00700928 2.01706055 -0.01401855 3.05615234 -0.02124023 C6.39188114 -0.03885406 9.72676248 -0.02718497 13.0625 -0.01367188 C15.37890791 -0.0163658 17.69531472 -0.02024739 20.01171875 -0.02526855 C24.86729698 -0.03116822 29.72258096 -0.02258526 34.578125 -0.00390625 C40.80614646 0.01888316 47.03347845 0.00576265 53.26147461 -0.01819611 C58.04497485 -0.0326412 62.82831127 -0.02805393 67.61181641 -0.01768494 C69.90836671 -0.0150141 72.20493183 -0.01829988 74.50146484 -0.02760315 C77.7097114 -0.03774714 80.91683706 -0.02229671 84.125 0 C85.55271729 -0.01214539 85.55271729 -0.01214539 87.00927734 -0.02453613 C93.34067682 0.05709915 93.34067682 0.05709915 96.6552124 2.17156982 C98.45335149 5.16914419 98.54545048 7.08057057 98.51660156 10.57128906 C98.51611816 11.80927246 98.51563477 13.04725586 98.51513672 14.32275391 C98.48444092 16.26770752 98.48444092 16.26770752 98.453125 18.25195312 C98.44909668 19.4470752 98.44506836 20.64219727 98.44091797 21.87353516 C98.41998816 26.33837229 98.36414279 30.80299061 98.3125 35.26757812 C98.23 45.25007813 98.1475 55.23257813 98.0625 65.51757812 C61.1025 65.51757812 24.1425 65.51757812 -13.9375 65.51757812 C-14.02 55.53507812 -14.1025 45.55257812 -14.1875 35.26757812 C-14.22391602 32.11936523 -14.26033203 28.97115234 -14.29785156 25.72753906 C-14.30953263 23.23568403 -14.31972582 20.74382138 -14.328125 18.25195312 C-14.34858887 16.95531738 -14.36905273 15.65868164 -14.39013672 14.32275391 C-14.39062012 13.08477051 -14.39110352 11.84678711 -14.39160156 10.57128906 C-14.40048401 9.49651306 -14.40936646 8.42173706 -14.41851807 7.31439209 C-13.9375 4.51757812 -13.9375 4.51757812 -12.5302124 2.17156982 C-8.50588554 -0.39570421 -4.68000429 -0.03981212 0 0 Z " fill="#F5D3B8" transform="translate(317.9375,-0.517578125)"/>
<path d="M0 0 C0.33 0 0.66 0 1 0 C1 43.89 1 87.78 1 133 C-19.79 133 -40.58 133 -62 133 C-65.96 123.43 -69.92 113.86 -74 104 C-77.68529638 100.31470362 -79.11056587 100.54538689 -84.1875 100.3125 C-85.45980469 100.24675781 -86.73210937 100.18101562 -88.04296875 100.11328125 C-89.01878906 100.07589844 -89.99460937 100.03851563 -91 100 C-87.71715206 97.23186245 -84.3600389 94.94176807 -80.68481445 92.75439453 C-63.39138429 82.43456492 -46.72853075 68.66174396 -34 53 C-33.12413218 51.97098437 -32.24778536 50.94237637 -31.37109375 49.9140625 C-18.64640069 34.75241075 -8.92827971 17.60278403 0 0 Z " fill="#E58B6B" transform="translate(447,187)"/>
<path d="M0 0 C7.3453458 -0.11601154 14.69049309 -0.20477378 22.03657055 -0.25906086 C25.44796874 -0.2851206 28.85873874 -0.3204489 32.26977539 -0.37719727 C36.19409584 -0.44207403 40.11816474 -0.4662107 44.04296875 -0.48828125 C45.26396774 -0.51408768 46.48496674 -0.5398941 47.7429657 -0.56648254 C56.1455657 -0.56926416 56.1455657 -0.56926416 60.1015625 2.06640625 C62.25705067 5.39721205 63.91075365 8.73763411 65.33203125 12.42578125 C65.75424202 13.48541328 65.75424202 13.48541328 66.1849823 14.56645203 C66.77358499 16.0540481 67.35562704 17.54425519 67.93139648 19.03686523 C68.80886543 21.30311296 69.71427968 23.55669607 70.62304688 25.81054688 C71.19442675 27.26495107 71.76414387 28.72000982 72.33203125 30.17578125 C72.60070511 30.84064041 72.86937897 31.50549957 73.14619446 32.19050598 C74.96048757 36.97604413 75.41953988 40.87746566 75 46 C72.84765625 48.6796875 72.84765625 48.6796875 70.0625 50.875 C66.5126189 53.51550633 66.5126189 53.51550633 64 57 C63.85098509 59.10053716 63.77861547 61.20687825 63.75 63.3125 C63.71132813 65.00826172 63.71132813 65.00826172 63.671875 66.73828125 C64.11943639 71.18725457 65.66175146 73.55759533 68.65625 76.78515625 C72.73002798 78.89673117 77.30461816 78.43563635 81.80078125 78.43945312 C82.53683594 78.45814453 83.27289063 78.47683594 84.03125 78.49609375 C84.69705078 78.49794678 85.36285156 78.4997998 86.04882812 78.50170898 C88.96799432 79.24720676 90.10805077 80.68492731 92 83 C93.46386719 85.90087891 93.46386719 85.90087891 94.796875 89.2265625 C95.28027344 90.4228125 95.76367188 91.6190625 96.26171875 92.8515625 C96.50583496 93.47063477 96.74995117 94.08970703 97.00146484 94.72753906 C97.75201652 96.63011166 98.51720901 98.52626561 99.28515625 100.421875 C103 109.69396479 103 109.69396479 103 112 C84.19 112 65.38 112 46 112 C43.916875 106.410625 41.83375 100.82125 39.6875 95.0625 C33.58498496 78.75040445 27.36177784 62.48707862 21.0625 46.25 C20.66880219 45.23430939 20.27510437 44.21861877 19.86947632 43.17214966 C17.98282607 38.30736565 16.08989911 33.44519968 14.18408203 28.58789062 C12.69911238 24.80314519 11.24028129 21.00957767 9.79638672 17.20898438 C9.09240954 15.38400379 8.38815731 13.55912928 7.68359375 11.734375 C7.37043716 10.89505432 7.05728058 10.05573364 6.7346344 9.190979 C6.28289101 8.03248444 6.28289101 8.03248444 5.82202148 6.85058594 C5.56549301 6.17638611 5.30896454 5.50218628 5.04466248 4.80755615 C3.73956169 2.54936941 2.14984821 1.43542357 0 0 Z " fill="#EED50F" transform="translate(282,208)"/>
<path d="M0 0 C0.33 0 0.66 0 1 0 C1 26.07 1 52.14 1 79 C-36.37434707 79.16121214 -36.37434707 79.16121214 -52.02734375 79.1953125 C-62.83845604 79.21905373 -73.6494437 79.24697448 -84.46044922 79.30175781 C-92.33380902 79.34163598 -100.20706777 79.36743528 -108.08052576 79.37635398 C-112.24922149 79.38156709 -116.41762817 79.39381257 -120.58623123 79.42292023 C-124.51130743 79.45010495 -128.43597599 79.45843892 -132.36113739 79.45243073 C-133.80026592 79.45352961 -135.23940833 79.46146563 -136.67845535 79.4768219 C-138.64683369 79.49679338 -140.61543161 79.48953833 -142.58389282 79.48101807 C-143.68451365 79.48470524 -144.78513447 79.48839241 -145.91910744 79.49219131 C-151.05061545 78.67240172 -154.12742664 76.05627301 -157.375 72.125 C-159.15968507 68.69291333 -159.13730337 66.79168534 -159 63 C-157.24417603 62.86537354 -157.24417603 62.86537354 -155.45288086 62.72802734 C-76.35731668 56.93031792 -76.35731668 56.93031792 -10.66259766 16.48486328 C-6.39765596 11.3159655 -2.87435776 6.05316462 0 0 Z " fill="#D4CCC7" transform="translate(159,433)"/>
<path d="M0 0 C0.74873994 -0.00709439 1.49747989 -0.01418877 2.26890892 -0.02149814 C4.77354239 -0.03907666 7.27662364 -0.02097561 9.78123474 -0.00291443 C11.5784221 -0.00805329 13.37560443 -0.01533432 15.17277527 -0.02459717 C20.05088095 -0.04312231 24.92844056 -0.0301661 29.80652356 -0.01050687 C34.90958631 0.0058692 40.01261419 -0.0029317 45.11569214 -0.00802612 C53.68447095 -0.01254783 62.25303152 0.0033286 70.82176208 0.03126526 C80.73245422 0.06332769 90.64275295 0.06329771 100.55347306 0.04605049 C110.08374316 0.03019544 119.61386884 0.03691172 129.14413261 0.0539875 C133.20189692 0.06086523 137.25954572 0.05981818 141.31730843 0.05244255 C146.09365676 0.04479009 150.86955646 0.05687176 155.64582825 0.08429146 C157.40021368 0.09118692 159.15464092 0.09126085 160.90902519 0.08407593 C163.30101869 0.0754074 165.69161928 0.09129132 168.08349609 0.11352539 C169.12896845 0.10116424 169.12896845 0.10116424 170.19556147 0.08855337 C173.5625199 0.14646193 175.22427324 0.42876795 177.90722561 2.53535557 C179.61266893 4.80724569 180.02205738 5.82491508 179.97825623 8.62818909 C179.99372498 9.61818909 179.99372498 9.61818909 180.00950623 10.62818909 C179.21594861 13.61570011 177.90260813 14.72464813 175.47825623 16.62818909 C172.87256541 17.02351596 170.6873308 17.17363924 168.08349609 17.14285278 C167.33631614 17.14979831 166.58913619 17.15674384 165.81931442 17.16389984 C163.31413058 17.18220504 160.80988999 17.17189625 158.30467224 17.16163635 C156.50925486 17.16869309 154.71384343 17.17743707 152.91844177 17.18774414 C148.04030212 17.21027587 143.16248632 17.20728953 138.28431439 17.19842267 C134.21359482 17.19331807 130.1429364 17.20060107 126.07222313 17.20789474 C116.46980171 17.22490589 106.86753915 17.22131579 97.26512146 17.2046051 C87.3549971 17.18768205 77.44531315 17.20351813 67.5352369 17.23582798 C59.02980746 17.26250888 50.52451524 17.26980395 42.01904815 17.2613129 C36.93776581 17.25637936 31.85674851 17.2586224 26.77549934 17.27910042 C21.99747179 17.29743396 17.22007857 17.2915274 12.44208527 17.26690102 C10.68811041 17.26188572 8.93408741 17.26540153 7.18015099 17.27804947 C4.78603522 17.29394856 2.39401633 17.27906172 0 17.25637817 C-0.69475085 17.2682139 -1.3895017 17.28004963 -2.10530561 17.29224402 C-5.90214203 17.21911516 -7.45180284 16.68430707 -10.45279026 14.27642727 C-12.52174377 11.62818909 -12.52174377 11.62818909 -13.14674377 8.62818909 C-11.66069139 1.49513765 -6.58967699 -0.11226129 0 0 Z " fill="#49AD4D" transform="translate(332.52174377441406,319.37181091308594)"/>
<path d="M0 0 C6.75499843 8.38225296 6.80624126 18.64203941 6 29 C3.98108637 41.19760321 -3.45130223 51.49149082 -13.3125 58.6875 C-27.26617146 67.63216119 -42.53622008 69.10581287 -58.69921875 66.375 C-69.17929105 63.30632523 -78.43379355 56.42437121 -84 47 C-85.375 44 -85.375 44 -86 42 C-84.741875 42.33 -83.48375 42.66 -82.1875 43 C-62.39565314 46.82437662 -42.87612842 42.95467985 -26 32 C-14.63786668 24.07406107 -4.46372379 13.39117136 0 0 Z " fill="#EFEAE7" transform="translate(122,315)"/>
<path d="M0 0 C0.69627502 0.0143811 1.39255005 0.02876221 2.10992432 0.0435791 C2.85177979 0.042995 3.59363525 0.04241089 4.35797119 0.04180908 C6.80408927 0.04459041 9.24898072 0.07568281 11.69488525 0.10705566 C13.39310032 0.11451793 15.09132402 0.12021093 16.78955078 0.12420654 C21.25482035 0.13946415 25.71956778 0.17874677 30.18463135 0.22302246 C34.74266497 0.26397259 39.30078312 0.28221699 43.85894775 0.30236816 C52.79928107 0.34524113 61.73922721 0.41349381 70.67926025 0.49768066 C70.56393326 2.99845539 70.437231 5.49783065 70.30426025 7.99768066 C70.27332275 8.69377441 70.24238525 9.38986816 70.21051025 10.10705566 C70.17183838 10.80314941 70.1331665 11.49924316 70.09332275 12.21643066 C70.04619141 13.15905762 70.04619141 13.15905762 69.99810791 14.12072754 C69.52689213 17.63355818 68.53887793 21.05920995 67.67926025 24.49768066 C42.26926025 24.49768066 16.85926025 24.49768066 -9.32073975 24.49768066 C-9.32073975 0.07946293 -9.32073975 0.07946293 0 0 Z " fill="#FEE9D1" transform="translate(313.32073974609375,-0.4976806640625)"/>
<path d="M0 0 C23.1 0 46.2 0 70 0 C68.45394242 3.86514394 67.19985094 6.44114238 64.875 9.75 C64.33617187 10.52859375 63.79734375 11.3071875 63.2421875 12.109375 C62.13230469 13.54023437 62.13230469 13.54023437 61 15 C60.24071701 16.09516182 60.24071701 16.09516182 59.46609497 17.21244812 C56.76138967 20.75362284 54.59916946 23.5185769 50.23629761 24.83200073 C47.00236995 25.13449592 43.87223612 25.16904127 40.625 25.09765625 C38.8773938 25.11184853 38.8773938 25.11184853 37.09448242 25.12632751 C33.39501112 25.14682806 29.69922261 25.10558138 26 25.0625 C23.48306461 25.06557615 20.9661307 25.07269411 18.44921875 25.08398438 C12.29716284 25.11034454 6.15392687 25.05312437 0 25 C0 16.75 0 8.5 0 0 Z " fill="#FEE9D1" transform="translate(304,40)"/>
<path d="M0 0 C5.23724692 2.96387807 8.8638854 7.84165621 10.75 13.5 C11.491415 20.34289581 10.84053621 25.8487669 6.75 31.5 C2.17827225 36.42243563 -2.42978995 38.56108548 -9.0625 38.875 C-14.95306069 38.73474856 -19.40261357 37.07931188 -23.78515625 33.109375 C-28.41839105 27.97634519 -29.75854875 22.53952823 -29.5546875 15.80078125 C-28.74796654 9.70900375 -25.98920103 5.7765229 -21.1875 2.0625 C-14.86314007 -2.39247139 -7.15461617 -3.12928299 0 0 Z " fill="#F1BAA4" transform="translate(365.25,129.5)"/>
<path d="M0 0 C13.86 0 27.72 0 42 0 C42 8.25 42 16.5 42 25 C12.795 24.505 12.795 24.505 -17 24 C-13.2901058 19.0534744 -9.58307606 14.1794536 -5.7109375 9.37109375 C-3.57043087 6.40468388 -1.81490283 3.17607995 0 0 Z " fill="#FADDC3" transform="translate(374,40)"/>
<path d="M0 0 C3.36856713 1.97781016 5.98440367 4.36610419 8.5625 7.3125 C9.490625 8.3334375 9.490625 8.3334375 10.4375 9.375 C11.5625 11.3125 11.5625 11.3125 11.1328125 13.43359375 C10.85050781 14.36365234 10.85050781 14.36365234 10.5625 15.3125 C9.86125 15.26609375 9.16 15.2196875 8.4375 15.171875 C1.85751446 14.92154946 -3.08981679 15.26225048 -8.4375 19.3125 C-13.47726072 24.08334068 -17.21400758 28.49971939 -17.6328125 35.64453125 C-17.60960937 36.79308594 -17.58640625 37.94164062 -17.5625 39.125 C-17.53542969 40.86716797 -17.53542969 40.86716797 -17.5078125 42.64453125 C-17.48460937 43.52496094 -17.46140625 44.40539062 -17.4375 45.3125 C-24.76810551 43.01032637 -28.4956276 39.9729051 -32.4375 33.3125 C-35.27807557 27.24446043 -35.60886291 20.46487631 -33.78515625 14 C-30.8972266 7.65399149 -26.15256532 2.96283382 -20.25 -0.625 C-13.52395037 -2.49947285 -6.46539722 -3.01228734 0 0 Z " fill="#EED610" transform="translate(298.4375,353.6875)"/>
<path d="M0 0 C4.06187665 2.79161704 7.39319551 6.40000555 10.1484375 10.4765625 C10.1484375 11.4665625 10.1484375 12.4565625 10.1484375 13.4765625 C9.375 13.50234375 8.6015625 13.528125 7.8046875 13.5546875 C-1.45561713 14.05896151 -7.3646721 15.49044461 -13.7265625 22.4140625 C-17.82605443 27.20951469 -19.06444057 31.53854654 -19.4765625 37.7890625 C-19.55132812 38.85769531 -19.62609375 39.92632812 -19.703125 41.02734375 C-19.75210938 41.83558594 -19.80109375 42.64382813 -19.8515625 43.4765625 C-26.19714015 42.23840101 -29.2143152 38.49155499 -32.8515625 33.4765625 C-36.26634683 27.63838284 -36.67274273 22.08419875 -35.8515625 15.4765625 C-33.96989843 8.40150559 -28.6472621 3.64008363 -22.8515625 -0.5234375 C-15.55890645 -4.09440421 -7.19723621 -3.6116095 0 0 Z " fill="#EED610" transform="translate(259.8515625,426.5234375)"/>
<path d="M0 0 C3.97478341 3.40297247 7.04039016 6.75725357 8 12 C7.2265625 12.02578125 6.453125 12.0515625 5.65625 12.078125 C-3.60405463 12.58239901 -9.5131096 14.01388211 -15.875 20.9375 C-19.97449193 25.73295219 -21.21287807 30.06198404 -21.625 36.3125 C-21.69976562 37.38113281 -21.77453125 38.44976562 -21.8515625 39.55078125 C-21.90054687 40.35902344 -21.94953125 41.16726563 -22 42 C-28.29752417 40.7712148 -31.52407455 37.11733468 -35 32 C-38.3315549 25.25477442 -39.13837902 18.74995443 -36.9375 11.5 C-34.04857231 5.53046221 -29.09885362 -0.27156549 -23 -3 C-14.8992703 -5.34494807 -7.34885781 -3.87916248 0 0 Z " fill="#EED60F" transform="translate(326,412)"/>
<path d="M0 0 C4.42484878 2.21242439 7.19476657 4.94799616 10 9 C11.35682449 13.07047347 11.52472254 16.74391717 11 21 C8.46759618 25.9710149 5.01138866 29.49430567 0 32 C-4.95482094 32.54360446 -8.87125852 32.56437074 -13.375 30.3125 C-16.96775803 27.14745126 -20.69412413 23.78798338 -21.23828125 18.828125 C-21.40659218 12.98153463 -21.02425335 9.56807137 -17 5 C-11.37343316 0.04326255 -7.41017624 -0.82081952 0 0 Z " fill="#FEFEFE" transform="translate(69,80)"/>
<path d="M0 0 C5.27011062 1.82426906 7.83751204 4.57251686 11 9 C12.89917882 13.52881104 12.50964051 18.58433192 10.875 23.125 C8.07984174 27.41090933 4.95224283 30.34925239 0 32 C-4.66694522 32.54225459 -8.07771048 32.4698456 -12.3125 30.3125 C-16.44673697 26.7551333 -19.58789927 23.54676857 -20.23828125 17.94921875 C-20.42001793 12.41103242 -19.74513006 9.35244845 -16 5 C-10.58420856 0.22894564 -7.09115125 -0.64682799 0 0 Z " fill="#C6E5C7" transform="translate(380,352)"/>
<path d="M0 0 C4.35699098 2.46622131 7.04335342 5.33670683 9.3125 9.875 C9.85610446 14.82982094 9.87687074 18.74625852 7.625 23.25 C2.76555518 28.76612655 -0.37891704 30.60817879 -7.5625 31.1875 C-11.92205451 31.12267391 -14.3259369 29.70176897 -17.6875 26.875 C-22.17485572 22.02380463 -23.06694978 18.50237243 -22.96875 11.8984375 C-22.33090739 7.3095143 -19.40142374 4.50393282 -16.0625 1.5625 C-10.83094803 -2.15465535 -5.95356591 -1.81634214 0 0 Z " fill="#FBF4BC" transform="translate(286.6875,265.125)"/>
<path d="M0 0 C4.58395782 -0.10771702 9.16539636 -0.18719721 13.75 -0.25 C15.05195313 -0.28351562 16.35390625 -0.31703125 17.6953125 -0.3515625 C18.94570313 -0.36445312 20.19609375 -0.37734375 21.484375 -0.390625 C22.63647461 -0.41157227 23.78857422 -0.43251953 24.97558594 -0.45410156 C28 -0 28 -0 30.3828125 1.7265625 C32.254849 4.35826599 32.47246854 5.57372705 32.390625 8.765625 C32.38063477 9.56774414 32.37064453 10.36986328 32.36035156 11.19628906 C32.30572754 12.70787598 32.30572754 12.70787598 32.25 14.25 C32.1675 17.4675 32.085 20.685 32 24 C20.45 24 8.9 24 -3 24 C-2.01 16.08 -1.02 8.16 0 0 Z " fill="#FADDC3" transform="translate(384,0)"/>
<path d="M0 0 C1.42892578 0.00966797 1.42892578 0.00966797 2.88671875 0.01953125 C5.3125 0.1875 5.3125 0.1875 7.3125 1.1875 C9.19725924 6.84177772 9.25291579 12.89853467 6.75 18.375 C2.94720773 24.98971613 -2.24284234 30.11275934 -9.6875 32.1875 C-13.7019935 32.40940668 -17.67214782 32.36552054 -21.6875 32.1875 C-24.60502271 27.09934039 -24.6269837 21.65539286 -23.10546875 16.0390625 C-20.27256098 9.49362263 -14.59458466 4.14104233 -8.2578125 0.97265625 C-5.379676 0.09346866 -3.00423651 -0.04508404 0 0 Z " fill="#F7E766" transform="translate(263.6875,439.8125)"/>
<path d="M0 0 C1.42892578 0.00966797 1.42892578 0.00966797 2.88671875 0.01953125 C5.3125 0.1875 5.3125 0.1875 7.3125 1.1875 C9.19725924 6.84177772 9.25291579 12.89853467 6.75 18.375 C2.94720773 24.98971613 -2.24284234 30.11275934 -9.6875 32.1875 C-13.7019935 32.40940668 -17.67214782 32.36552054 -21.6875 32.1875 C-24.60502271 27.09934039 -24.6269837 21.65539286 -23.10546875 16.0390625 C-20.27256098 9.49362263 -14.59458466 4.14104233 -8.2578125 0.97265625 C-5.379676 0.09346866 -3.00423651 -0.04508404 0 0 Z " fill="#F7E766" transform="translate(327.6875,423.8125)"/>
<path d="M0 0 C0.33 0 0.66 0 1 0 C2.91125702 9.5562851 2.43533355 15.80582291 -3 24 C-7.03214211 28.66828103 -11.94238146 31.74113434 -18 33 C-21.35202532 33.21579562 -24.64750432 33.18548644 -28 33 C-30.91752271 27.91184039 -30.9394837 22.46789286 -29.41796875 16.8515625 C-26.58235872 10.29987904 -20.90445672 4.96794678 -14.57421875 1.77734375 C-11.65664996 0.89631767 -9.28939679 0.83481768 -6.25 0.9375 C-4.50070276 0.99128855 -2.75000331 1.02055373 -1 1 C-0.67 0.67 -0.34 0.34 0 0 Z " fill="#F5E13C" transform="translate(310,367)"/>
<path d="M0 0 C4.08998175 1.80720124 6.66247347 4.19069751 9 8 C9.62819266 13.0255413 9.03320735 15.95572354 6 20 C3.24705395 23.21177039 0.96958591 23.86947882 -3.25 24.4375 C-8.1843364 23.86182742 -10.79803186 21.71753928 -14 18 C-15.23534045 14.29397865 -15.45528745 11.90246386 -15 8 C-10.91704021 1.64314568 -7.65816344 -0.51919752 0 0 Z " fill="#F1BAA3" transform="translate(391,168)"/>
<path d="M0 0 C3.55067165 1.18355722 6.75347279 2.25754506 10.109375 3.76953125 C22.67566967 9.31520086 35.34784337 13.96396408 49 16 C49 16.66 49 17.32 49 18 C32.83 18 16.66 18 0 18 C0 12.06 0 6.12 0 0 Z " fill="#D4CCC5" transform="translate(208,494)"/>
<path d="M0 0 C0.495 5.94 0.495 5.94 1 12 C-7.1304953 13.78436443 -15.22197601 14.79124219 -23.5 15.625 C-25.38138672 15.82609375 -25.38138672 15.82609375 -27.30078125 16.03125 C-34.22814873 16.74212122 -41.03596633 17.20065173 -48 17 C-48 16.67 -48 16.34 -48 16 C-47.44763672 15.87995605 -46.89527344 15.75991211 -46.32617188 15.63623047 C-31.03801104 12.27017517 -16.61893005 8.26013315 -2.72265625 0.8828125 C-1 0 -1 0 0 0 Z " fill="#EDD411" transform="translate(351,494)"/>
<path d="M0 0 C4.0743356 0.84881992 5.54405875 2.30225596 8 5.625 C8.625 8.625 8.625 8.625 8 11.625 C5.54405875 14.94774404 4.0743356 16.40118008 0 17.25 C-4.0743356 16.40118008 -5.54405875 14.94774404 -8 11.625 C-8.625 8.625 -8.625 8.625 -8 5.625 C-5.54405875 2.30225596 -4.0743356 0.84881992 0 0 Z " fill="#FEFEFD" transform="translate(88,111.375)"/>
<path d="M0 0 C2.0625 1.5625 2.0625 1.5625 3 4 C3.17821261 6.85140177 2.92914963 9.292848 2 12 C-0.93837168 14.85194898 -2.53597436 15 -6.625 15 C-10 14 -10 14 -12 11.875 C-13.30782688 8.11499772 -13.06090617 5.81926223 -12 2 C-8.81688665 -2.07438508 -4.54417813 -1.38635943 0 0 Z " fill="#C5E4C6" transform="translate(405,385)"/>
<path d="M0 0 C2.0625 1.5625 2.0625 1.5625 3 4 C3.17821261 6.85140177 2.92914963 9.292848 2 12 C-0.93837168 14.85194898 -2.53597436 15 -6.625 15 C-10 14 -10 14 -12 11.875 C-13.30782688 8.11499772 -13.06090617 5.81926223 -12 2 C-8.81688665 -2.07438508 -4.54417813 -1.38635943 0 0 Z " fill="#FBF4BA" transform="translate(301,305)"/>
<path d="M0 0 C2.475 2.97 2.475 2.97 5 6 C-15.13 6 -35.26 6 -56 6 C-56 5.67 -56 5.34 -56 5 C-54.92238403 4.92483154 -54.92238403 4.92483154 -53.82299805 4.84814453 C-35.9255943 3.59609877 -35.9255943 3.59609877 -18.0625 1.9375 C-17.29574951 1.85838379 -16.52899902 1.77926758 -15.73901367 1.69775391 C-0.05619372 -0.00802767 -0.05619372 -0.00802767 0 0 Z " fill="#E59065" transform="translate(352,506)"/>
<path d="M0 0 C1.09651823 3.41139003 0.94215473 6.20655581 0.5625 9.75 C0.40974609 11.22726562 0.40974609 11.22726562 0.25390625 12.734375 C0.12822266 13.85585938 0.12822266 13.85585938 0 15 C-0.33 15 -0.66 15 -1 15 C-1.22786458 12.98177083 -1.45572917 10.96354167 -1.68359375 8.9453125 C-1.91292961 6.92595684 -1.91292961 6.92595684 -3 5 C-1.5625 2.375 -1.5625 2.375 0 0 Z " fill="#6EBE72" transform="translate(492,368)"/>
</svg>
