<?xml version="1.0" encoding="UTF-8"?>
<svg version="1.1" xmlns="http://www.w3.org/2000/svg" width="512" height="512">
<path d="M0 0 C3.12526399 1.79536442 4.57046273 3.00669507 6 6.3125 C6 10.01889211 4.9324406 12.89240393 3 16 C0.73324085 18.18843172 -1.79968956 19.85114737 -4.4375 21.5625 C-5.98201808 22.60770765 -7.52627846 23.65329618 -9.0703125 24.69921875 C-9.87887695 25.23853027 -10.68744141 25.7778418 -11.52050781 26.33349609 C-15.66223543 29.11721338 -19.73218597 32.0023916 -23.8125 34.875 C-25.50607465 36.06051859 -27.20008849 37.24541001 -28.89453125 38.4296875 C-34.75479356 42.52750697 -40.61276247 46.62859902 -46.47070312 50.72973633 C-50.7987712 53.75963978 -55.12743366 56.78868872 -59.45703125 59.81640625 C-60.35357422 60.44353516 -61.25011719 61.07066406 -62.17382812 61.71679688 C-63.87936085 62.90978609 -65.58507733 64.10251268 -67.29101562 65.29492188 C-68.06767578 65.83826172 -68.84433594 66.38160156 -69.64453125 66.94140625 C-70.3813916 67.45590332 -71.11825195 67.97040039 -71.87744141 68.50048828 C-73.27961606 69.49107452 -74.67281433 70.49450495 -76.05615234 71.51123047 C-80.80376887 75 -80.80376887 75 -83 75 C-83.10657928 75.54559067 -83.21315857 76.09118134 -83.32296753 76.65330505 C-84.49654074 82.31990176 -86.16747373 87.58361165 -88.2578125 92.97265625 C-88.56572723 93.78117538 -88.87364197 94.58969452 -89.19088745 95.42271423 C-90.16310772 97.97157922 -91.14388268 100.5170483 -92.125 103.0625 C-92.79093624 104.80381795 -93.45630608 106.54535261 -94.12109375 108.28710938 C-95.74086574 112.52727048 -97.36831144 116.76441111 -99 121 C-98.41641724 120.99111755 -97.83283447 120.98223511 -97.23156738 120.9730835 C-91.13169191 120.88426475 -85.03200156 120.82412307 -78.93164062 120.78027344 C-76.65812716 120.76021683 -74.3846649 120.73296462 -72.11132812 120.69824219 C-68.83450651 120.64946288 -65.55836975 120.62697103 -62.28125 120.609375 C-60.76827332 120.57840729 -60.76827332 120.57840729 -59.22473145 120.54681396 C-52.24796395 120.54461918 -46.62017907 121.59111597 -41.40734863 126.49969482 C-33.57466465 136.58897173 -38.66814371 156.00276088 -40.03540039 167.79931641 C-40.25450516 169.74404764 -40.47285195 171.68886441 -40.69050598 173.63375854 C-41.15720854 177.79036562 -41.62900857 181.94634952 -42.10487556 186.10191727 C-42.8571717 192.67324714 -43.59677258 199.24596901 -44.33457947 205.81893921 C-45.7676018 218.57071789 -47.21232861 231.3211554 -48.65923309 244.07136536 C-50.5050752 260.33713958 -52.34873927 276.60314212 -54.17536348 292.87108743 C-54.90960719 299.40611592 -55.651415 305.94022801 -56.39905369 312.473737 C-56.86159014 316.52908221 -57.31779344 320.58512156 -57.77227592 324.6413765 C-57.98444551 326.52306469 -58.19927627 328.404455 -58.41694641 330.28551483 C-58.71340316 332.8505421 -59.0003884 335.41645953 -59.28504944 337.9828186 C-59.37356314 338.72843036 -59.46207685 339.47404212 -59.55327278 340.24224818 C-60.12984323 345.57524122 -60.48095914 349.15826974 -57.03689575 353.441329 C-56.16894379 354.2990997 -55.30099182 355.1568704 -54.40673828 356.04063416 C-53.92473024 356.52253206 -53.44272221 357.00442997 -52.94610786 357.50093085 C-51.3301467 359.11177637 -49.70036091 360.707864 -48.0703125 362.30444336 C-46.90834794 363.45709325 -45.7472982 364.61066598 -44.58709717 365.76509094 C-42.08757121 368.24858504 -39.58201748 370.72577606 -37.07171631 373.19837761 C-33.10302985 377.10822185 -29.15015997 381.03379672 -25.19970703 384.96205139 C-15.38524377 394.71644325 -5.54993309 404.44974547 4.28930664 414.17913818 C11.93593892 421.74087666 19.57680551 429.30825391 27.20069313 436.892932 C31.12778584 440.79852736 35.06640367 444.69199714 39.01411438 448.57674587 C41.46723279 450.99576227 43.90990744 453.42511701 46.34981537 455.85745049 C47.48346335 456.98333291 48.62142293 458.10489304 49.76395416 459.2217598 C51.32332739 460.74728646 52.86653103 462.28754207 54.40673828 463.8323822 C55.27469025 464.69052993 56.14264221 465.54867765 57.03689575 466.43282986 C59.30664245 469.40099925 59.81173929 471.29513337 60 475 C55.5202513 487.8039363 36.16840261 496.12316521 24.625 501.6875 C17.60681031 504.73933358 10.36683775 506.97622213 3 509 C1.85917969 509.32355469 0.71835937 509.64710938 -0.45703125 509.98046875 C-24.09818541 515.53236052 -52.23262097 513.61240025 -74.6875 504.5390625 C-76.99026354 503.78485526 -76.99026354 503.78485526 -79.1171875 504.73828125 C-80.89432851 505.92918695 -82.51730335 507.15260896 -84.125 508.5625 C-88.37602853 512.16663288 -90.34864804 512.12881608 -95.8817749 512.14717102 C-96.59795557 512.15084771 -97.31413624 512.1545244 -98.05201936 512.1583125 C-100.46404871 512.16937028 -102.87603501 512.17319672 -105.28808594 512.17700195 C-107.01261533 512.18326504 -108.73714337 512.1899117 -110.46166992 512.19691467 C-115.15601481 512.21433918 -119.85034951 512.22488047 -124.54471874 512.2331202 C-127.47653315 512.23826748 -130.40834439 512.24434335 -133.34015656 512.25063133 C-142.50997589 512.2696878 -151.67978715 512.28391774 -160.84962249 512.2922433 C-171.44037168 512.3020172 -182.03091195 512.3283388 -192.62158751 512.36874419 C-200.8033967 512.39888977 -208.98514594 512.41371071 -217.16700959 512.41702431 C-222.05552317 512.41937666 -226.94381367 512.42836097 -231.83226776 512.45348549 C-236.43204964 512.47674385 -241.03146121 512.48100848 -245.63128662 512.47072411 C-247.31874065 512.47022808 -249.00621276 512.47656812 -250.69361115 512.49028015 C-252.99961503 512.50796912 -255.3042857 512.50090887 -257.61029053 512.48774719 C-259.54492472 512.49132972 -259.54492472 512.49132972 -261.51864243 512.49498463 C-266.86728583 511.73450651 -269.90437386 509.26861974 -273.375 505.25 C-274.179375 504.13625 -274.179375 504.13625 -275 503 C-279.40933977 504.71298092 -283.63672263 506.71722637 -287.890625 508.78125 C-294.96252381 511.55315004 -301.88280492 512.36251071 -309.4375 512.3125 C-310.26789795 512.31048584 -311.0982959 512.30847168 -311.95385742 512.30639648 C-317.24341113 512.21983544 -321.91951201 511.68604318 -326.89453125 509.75390625 C-331.96848789 507.93707205 -335.20419528 507.75618806 -340.125 509.9375 C-354.38596581 515.0345077 -369.72563352 512.58299014 -383.22265625 506.5625 C-401.70527845 497.39829161 -415.76386185 481.60634648 -426 464 C-426.35191406 463.39784668 -426.70382812 462.79569336 -427.06640625 462.17529297 C-439.71603177 440.24266274 -446.17466776 416.07824354 -446.24023438 390.76953125 C-446.24985601 388.53346326 -446.28089788 386.29834981 -446.3125 384.0625 C-446.48269473 361.20631149 -440.16178588 339.21644789 -424.29296875 322.2578125 C-412.80712568 310.94807264 -400.75020787 307.9123596 -385 307 C-386.4540625 306.12601562 -386.4540625 306.12601562 -387.9375 305.234375 C-395.38025962 300.70408104 -402.59809412 295.99149256 -409.5625 290.75 C-410.20380859 290.26756836 -410.84511719 289.78513672 -411.50585938 289.28808594 C-414.68306532 286.86459673 -417.80839727 284.38000079 -420.88671875 281.83203125 C-421.45479248 281.3625708 -422.02286621 280.89311035 -422.6081543 280.40942383 C-424 279 -424 279 -425.25 275.9375 C-424.97372779 272.69130156 -424.21231743 271.3721803 -421.859375 269.15258789 C-417.71277488 266.58219672 -412.62475622 266.37291885 -407.875 265.75 C-406.25851562 265.51023437 -406.25851562 265.51023437 -404.609375 265.265625 C-383.37832974 262.19607629 -360.11886301 260.02854002 -341.39453125 272.7734375 C-339.2101915 274.46247019 -337.10257737 276.21111361 -335 278 C-333.67332935 279.00882247 -332.34191029 280.0115393 -331 281 C-330.56429687 280.35933594 -330.12859375 279.71867187 -329.6796875 279.05859375 C-323.15360548 269.58023653 -317.01752572 262.05454851 -307 256 C-306.01 256 -305.02 256 -304 256 C-305.1523115 245.49029547 -306.30816008 234.98098659 -307.46855068 224.47217083 C-308.00722977 219.59272134 -308.54468044 214.71314302 -309.0793457 209.83325195 C-309.59518071 205.12563885 -310.11421377 200.41838846 -310.6354847 195.71137428 C-310.83398919 193.91373097 -311.03133267 192.11595906 -311.22750664 190.31805992 C-311.50205103 187.80373267 -311.78068566 185.28989049 -312.06030273 182.77612305 C-312.18114479 181.65618706 -312.18114479 181.65618706 -312.3044281 180.5136261 C-312.64073906 177.52280427 -313.04473865 174.86578404 -314 172 C-315.78860413 171.09371556 -315.78860413 171.09371556 -318.0234375 170.52734375 C-318.87043213 170.27291504 -319.71742676 170.01848633 -320.59008789 169.75634766 C-321.50910889 169.48612793 -322.42812988 169.2159082 -323.375 168.9375 C-339.1879386 163.96644358 -353.21455726 156.57487554 -366 146 C-366.74507813 145.42894531 -367.49015625 144.85789063 -368.2578125 144.26953125 C-377.83126142 136.60713202 -383.95005485 124.90132079 -385.75 112.8125 C-385.8325 111.884375 -385.915 110.95625 -386 110 C-386.58265625 110.38671875 -387.1653125 110.7734375 -387.765625 111.171875 C-397.97973947 117.66008608 -408.7466894 121.4934219 -421 121 C-423.96500683 120.18236386 -425.59202347 119.40083471 -427.78515625 117.24609375 C-431.26310229 110.81580767 -429.27081496 102.00734444 -427.375 95.3125 C-424.57325938 87.12508129 -420.65456664 79.68072762 -414 74 C-413.01 73.154375 -412.02 72.30875 -411 71.4375 C-404.40086533 66.85436471 -395.95848189 64.67687367 -388 65 C-396.87787583 53.44261982 -409.50247607 44.71188708 -423 39.375 C-426.22741093 37.89576999 -427.5909835 37.25835066 -429 34 C-429 29.35080744 -428.90193903 27.12742379 -426 23.5 C-421.71469427 21.35734713 -418.60272127 20.98918138 -414 22 C-402.30513859 26.37918937 -393.12489997 33.44453053 -383.73876953 41.52148438 C-381.3818666 43.52561301 -378.95105317 45.42530413 -376.5 47.3125 C-375.46359375 48.11107422 -375.46359375 48.11107422 -374.40625 48.92578125 C-373.71015625 49.45751953 -373.71015625 49.45751953 -373 50 C-372.97421875 49.39414062 -372.9484375 48.78828125 -372.921875 48.1640625 C-372.21846071 37.77271509 -368.63045935 29.44759923 -361.875 21.5 C-351.50073859 12.47890312 -339.51966539 8.60519665 -325.875 8.46875 C-322.27488884 9.13398793 -320.58709743 10.44986111 -318 13 C-314.66818651 22.99544047 -318.8188806 34.83859988 -323 44 C-324.52132997 46.56853271 -326.08356617 48.7002794 -328 51 C-327.071875 51.2475 -326.14375 51.495 -325.1875 51.75 C-302.86087857 58.26380303 -290.01042591 71.00834237 -279 91 C-277.47904727 93.88826082 -276.03031217 96.80385149 -274.625 99.75 C-274.1606958 100.72187256 -274.1606958 100.72187256 -273.68701172 101.71337891 C-270.9323232 107.72156577 -269.12532366 113.62402902 -267 120 C-193.74 120.495 -193.74 120.495 -119 121 C-117.515 116.05 -117.515 116.05 -116 111 C-115.42430942 109.24582761 -114.83645028 107.49549509 -114.22583008 105.75317383 C-113.75437309 104.40676567 -113.75437309 104.40676567 -113.27339172 103.03315735 C-111.8443294 99.0099784 -110.40245036 94.99158319 -108.94995117 90.97680664 C-108.19095704 88.86534003 -107.44161032 86.75038089 -106.7019043 84.63208008 C-105.62253178 81.54409452 -104.51200183 78.46890407 -103.39453125 75.39453125 C-103.07337845 74.45583694 -102.75222565 73.51714264 -102.42134094 72.55000305 C-99.94678274 65.89139575 -96.70323755 62.17521772 -91 58 C-90.10829102 57.32638428 -89.21658203 56.65276855 -88.29785156 55.95874023 C-87.10627441 55.14191772 -87.10627441 55.14191772 -85.890625 54.30859375 C-84.98159424 53.68130371 -84.07256348 53.05401367 -83.13598633 52.40771484 C-82.18361084 51.75754395 -81.23123535 51.10737305 -80.25 50.4375 C-78.19640486 49.02243972 -76.14302323 47.60706955 -74.08984375 46.19140625 C-73.06616699 45.48773926 -72.04249023 44.78407227 -70.98779297 44.05908203 C-66.57958865 41.02110236 -62.19511388 37.94972941 -57.8125 34.875 C-56.17322241 33.7264978 -54.5338996 32.57806014 -52.89453125 31.4296875 C-52.08838379 30.86475586 -51.28223633 30.29982422 -50.45166016 29.71777344 C-47.97213143 27.98047369 -45.49203605 26.2439862 -43.01171875 24.5078125 C-42.18406006 23.92805664 -41.35640137 23.34830078 -40.50366211 22.75097656 C-38.84600252 21.59166553 -37.1866799 20.43472848 -35.52563477 19.28027344 C-31.16607981 16.24537396 -26.85005152 13.16512397 -22.578125 10.0078125 C-21.24007812 9.03328125 -21.24007812 9.03328125 -19.875 8.0390625 C-18.17101312 6.79657206 -16.47753038 5.53949755 -14.796875 4.265625 C-9.59671907 0.50417888 -6.43730756 -0.87179138 0 0 Z M-306.0625 278.625 C-317.91659582 290.68673125 -323.31627602 306.24876261 -324 323 C-318.35088589 322.48888968 -314.2396202 320.26084402 -309.375 317.5625 C-307.88292798 316.7510897 -306.39074415 315.93988495 -304.8984375 315.12890625 C-303.91883057 314.58858765 -303.91883057 314.58858765 -302.91943359 314.03735352 C-300.9684003 312.98292201 -298.98360414 311.99180207 -297 311 C-298.32 299.12 -299.64 287.24 -301 275 C-303.04623841 275 -304.68717504 277.32752363 -306.0625 278.625 Z M-349.328125 311.4375 C-350.52695312 311.57285156 -350.52695312 311.57285156 -351.75 311.7109375 C-352.9875 311.85402344 -352.9875 311.85402344 -354.25 312 C-355.09046875 312.09539062 -355.9309375 312.19078125 -356.796875 312.2890625 C-358.86481004 312.52405512 -360.93243631 312.76176221 -363 313 C-359.50148141 315.97019718 -356.05278427 318.16367499 -351.9375 320.1875 C-350.91527344 320.69667969 -349.89304687 321.20585937 -348.83984375 321.73046875 C-345.87561903 323.15471004 -345.87561903 323.15471004 -342 324 C-341.67 319.71 -341.34 315.42 -341 311 C-343.88136227 311 -346.48896349 311.1130244 -349.328125 311.4375 Z " fill="#F19B1F" transform="translate(446,0)"/>
<path d="M0 0 C2.74703988 2.39258312 2.97154858 3.80439649 3.5 7.4375 C2.75249645 12.76346282 -0.76796775 14.8674143 -4.61328125 18.40234375 C-18.67444281 31.60884715 -24.06130547 47.05315369 -27 66 C-18.07903637 62.45448881 -9.53114607 58.37915338 -1 54 C1.35009055 57.52513582 1.61681555 60.46651523 2.04980469 64.56176758 C2.18226813 65.72141352 2.18226813 65.72141352 2.31740761 66.90448666 C2.61002537 69.48368999 2.89093364 72.06403202 3.171875 74.64453125 C3.37621342 76.46640862 3.58127518 78.28820499 3.78701782 80.10992432 C4.33693881 84.99729523 4.87681312 89.885728 5.41472626 94.77443314 C5.97343608 99.83715532 6.54111263 104.89887143 7.10791016 109.96069336 C8.0049633 117.98171327 8.89680001 126.00329493 9.78417969 134.02539062 C10.79683476 143.17950567 11.82059567 152.33230461 12.8515625 161.484375 C15.27872323 183.07024609 17.63857169 204.66099165 19.79638672 226.27563477 C19.90908653 227.39876572 19.90908653 227.39876572 20.02406311 228.54458618 C20.22226264 230.52364499 20.41846993 232.50290305 20.61450195 234.48217773 C21.00019876 238.00181375 21.47932362 241.49800876 22 245 C19.52700609 246.30476979 17.04760211 247.59365386 14.5625 248.875 C13.53092773 249.42220703 13.53092773 249.42220703 12.47851562 249.98046875 C4.36252027 254.13283847 -3.37865516 255.37246791 -12.4375 255.3125 C-13.26789795 255.31048584 -14.0982959 255.30847168 -14.95385742 255.30639648 C-20.24341113 255.21983544 -24.91951201 254.68604318 -29.89453125 252.75390625 C-34.96848789 250.93707205 -38.20419528 250.75618806 -43.125 252.9375 C-57.38596581 258.0345077 -72.72563352 255.58299014 -86.22265625 249.5625 C-104.70527845 240.39829161 -118.76386185 224.60634648 -129 207 C-129.35191406 206.39784668 -129.70382813 205.79569336 -130.06640625 205.17529297 C-142.71603177 183.24266274 -149.17466776 159.07824354 -149.24023438 133.76953125 C-149.24985601 131.53346326 -149.28089788 129.29834981 -149.3125 127.0625 C-149.48269473 104.20631149 -143.16178588 82.21644789 -127.29296875 65.2578125 C-115.80712568 53.94807264 -103.75020787 50.9123596 -88 50 C-88.969375 49.41734375 -89.93875 48.8346875 -90.9375 48.234375 C-98.38025962 43.70408104 -105.59809412 38.99149256 -112.5625 33.75 C-113.20380859 33.26756836 -113.84511719 32.78513672 -114.50585938 32.28808594 C-117.68306532 29.86459673 -120.80839727 27.38000079 -123.88671875 24.83203125 C-124.73882935 24.12784058 -124.73882935 24.12784058 -125.6081543 23.40942383 C-127 22 -127 22 -128.25 18.9375 C-127.97372779 15.69130156 -127.21231743 14.3721803 -124.859375 12.15258789 C-120.71277488 9.58219672 -115.62475622 9.37291885 -110.875 8.75 C-109.25851563 8.51023437 -109.25851563 8.51023437 -107.609375 8.265625 C-86.37832974 5.19607629 -63.11886301 3.02854002 -44.39453125 15.7734375 C-42.2101915 17.46247019 -40.10257737 19.21111361 -38 21 C-36.67332935 22.00882247 -35.34191029 23.0115393 -34 24 C-33.34644531 23.03900391 -33.34644531 23.03900391 -32.6796875 22.05859375 C-13.90228013 -5.21335505 -13.90228013 -5.21335505 0 0 Z M-52.328125 54.4375 C-53.52695313 54.57285156 -53.52695313 54.57285156 -54.75 54.7109375 C-55.9875 54.85402344 -55.9875 54.85402344 -57.25 55 C-58.09046875 55.09539062 -58.9309375 55.19078125 -59.796875 55.2890625 C-61.86481004 55.52405512 -63.93243631 55.76176221 -66 56 C-62.50148141 58.97019718 -59.05278427 61.16367499 -54.9375 63.1875 C-53.91527344 63.69667969 -52.89304687 64.20585937 -51.83984375 64.73046875 C-48.87561903 66.15471004 -48.87561903 66.15471004 -45 67 C-44.67 62.71 -44.34 58.42 -44 54 C-46.88136227 54 -49.48896349 54.1130244 -52.328125 54.4375 Z " fill="#E64C3C" transform="translate(149,257)"/>
<path d="M0 0 C2.70476322 2.66612375 3.17020787 4.25088343 3.2421875 8.01953125 C2.62438653 19.87862372 -0.09287431 30.89269917 -7.8125 40.15625 C-6.884375 40.40375 -5.95625 40.65125 -5 40.90625 C17.32662143 47.42005303 30.17707409 60.16459237 41.1875 80.15625 C42.70845273 83.04451082 44.15718783 85.96010149 45.5625 88.90625 C46.0268042 89.87812256 46.0268042 89.87812256 46.50048828 90.86962891 C49.2551768 96.87781577 51.06217634 102.78027902 53.1875 109.15625 C126.4475 109.65125 126.4475 109.65125 201.1875 110.15625 C197.81223542 121.40713194 197.81223542 121.40713194 196.38500977 125.28173828 C195.902276 126.59877243 195.902276 126.59877243 195.40979004 127.94241333 C194.89950256 129.32056717 194.89950256 129.32056717 194.37890625 130.7265625 C194.01575317 131.7146994 193.6526001 132.7028363 193.27844238 133.72091675 C192.10568033 136.90895416 190.92832303 140.09526411 189.75 143.28125 C188.93870103 145.47785732 188.12742186 147.67447195 187.31616211 149.87109375 C186.09760504 153.16933799 184.87841406 156.46734214 183.65748596 159.76470947 C181.52494356 165.52556811 179.40495053 171.29057973 177.30848694 177.06466675 C176.21326076 180.07786745 175.10941721 183.08785736 174.00338745 186.09710693 C173.50326565 187.46402954 173.00707263 188.83239633 172.5149231 190.20220947 C171.84469559 192.06570985 171.15914945 193.92368017 170.47265625 195.78125 C170.10019775 196.80476562 169.72773926 197.82828125 169.34399414 198.8828125 C168.1875 201.15625 168.1875 201.15625 165.1875 202.15625 C163.25840311 201.69060592 161.33039398 201.21879238 159.4140625 200.703125 C141.66313316 196.34324762 124.43142347 200.43426776 108.02392578 207.38769531 C88.24046925 215.66718497 67.93029929 218.14582883 47.453125 210.8203125 C43.28183835 209.10326794 39.23667353 207.14080599 35.1875 205.15625 C34.1886377 204.67317383 33.18977539 204.19009766 32.16064453 203.69238281 C28.85110655 202.08808662 25.548974 200.46965206 22.25 198.84375 C21.17621094 198.31595947 20.10242188 197.78816895 18.99609375 197.24438477 C17.99835938 196.74479248 17.000625 196.2452002 15.97265625 195.73046875 C15.07426025 195.28276123 14.17586426 194.83505371 13.25024414 194.3737793 C11.1875 193.15625 11.1875 193.15625 10.1875 191.15625 C9.90771504 189.16278219 9.67611145 187.16245362 9.46875 185.16015625 C9.34113281 183.96197266 9.21351563 182.76378906 9.08203125 181.52929688 C8.95183594 180.27181641 8.82164062 179.01433594 8.6875 177.71875 C8.43012578 175.24056755 8.16984518 172.76268472 7.90625 170.28515625 C7.79216797 169.18244385 7.67808594 168.07973145 7.56054688 166.94360352 C7.26580214 164.07851029 7.26580214 164.07851029 6.1875 161.15625 C4.39889587 160.24996556 4.39889587 160.24996556 2.1640625 159.68359375 C1.31706787 159.42916504 0.47007324 159.17473633 -0.40258789 158.91259766 C-1.32160889 158.64237793 -2.24062988 158.3721582 -3.1875 158.09375 C-19.0004386 153.12269358 -33.02705726 145.73112554 -45.8125 135.15625 C-46.55757812 134.58519531 -47.30265625 134.01414063 -48.0703125 133.42578125 C-57.64376142 125.76338202 -63.76255485 114.05757079 -65.5625 101.96875 C-65.645 101.040625 -65.7275 100.1125 -65.8125 99.15625 C-66.39515625 99.54296875 -66.9778125 99.9296875 -67.578125 100.328125 C-77.79223947 106.81633608 -88.5591894 110.6496719 -100.8125 110.15625 C-103.77750683 109.33861386 -105.40452347 108.55708471 -107.59765625 106.40234375 C-111.07560229 99.97205767 -109.08331496 91.16359444 -107.1875 84.46875 C-104.38575938 76.28133129 -100.46706664 68.83697762 -93.8125 63.15625 C-92.3275 61.8878125 -92.3275 61.8878125 -90.8125 60.59375 C-84.21336533 56.01061471 -75.77098189 53.83312367 -67.8125 54.15625 C-76.69037583 42.59886982 -89.31497607 33.86813708 -102.8125 28.53125 C-106.03991093 27.05201999 -107.4034835 26.41460066 -108.8125 23.15625 C-108.8125 18.50705744 -108.71443903 16.28367379 -105.8125 12.65625 C-101.52719427 10.51359713 -98.41522127 10.14543138 -93.8125 11.15625 C-82.11763859 15.53543937 -72.93739997 22.60078053 -63.55126953 30.67773438 C-61.1943666 32.68186301 -58.76355317 34.58155413 -56.3125 36.46875 C-55.6215625 37.00113281 -54.930625 37.53351562 -54.21875 38.08203125 C-53.7546875 38.43652344 -53.290625 38.79101562 -52.8125 39.15625 C-52.77382812 38.24746094 -52.77382812 38.24746094 -52.734375 37.3203125 C-52.03096071 26.92896509 -48.44295935 18.60384923 -41.6875 10.65625 C-32.05315684 2.2785603 -12.24102419 -8.02467141 0 0 Z " fill="#9FC8D2" transform="translate(125.8125,10.84375)"/>
<path d="M0 0 C4.74100819 2.12188187 8.14080186 6.4360229 11.64550781 10.15429688 C12.47824219 11.01410156 13.31097656 11.87390625 14.16894531 12.75976562 C15.72628783 14.36918489 17.27735924 15.98471501 18.81982422 17.60839844 C21.18567937 20.07661475 23.59790886 22.49174835 26.02050781 24.90429688 C27.08592289 25.97389402 28.1507438 27.04408321 29.21508789 28.11474609 C32.39949855 31.31704999 35.58703345 34.51622456 38.77563477 37.71435547 C40.14275106 39.0865009 41.50896853 40.45954247 42.87426758 41.83349609 C44.86460632 43.83608382 46.85826335 45.83531815 48.85253906 47.83398438 C49.45177689 48.43838348 50.05101471 49.04278259 50.66841125 49.66549683 C53.53686908 52.53432572 56.44313323 55.29553547 59.53460693 57.9233551 C65.049818 62.73040544 70.19686845 67.90847586 75.37768555 73.06860352 C76.50021113 74.18321093 77.62291199 75.29764184 78.74577332 76.41191101 C82.40223723 80.04239187 86.05346356 83.67811544 89.70410156 87.31445312 C90.96584072 88.57082617 92.22758557 89.82719351 93.48933601 91.08355522 C98.73407655 96.30671787 103.97739765 101.53129854 109.21700954 106.75960636 C116.70990507 114.236223 124.21119801 121.70418452 131.7243008 129.16049677 C137.01895252 134.41648807 142.30402235 139.68199213 147.58202511 144.95470136 C150.7308735 148.09989619 153.88377006 151.24076642 157.04696465 154.37153816 C160.01694111 157.31149656 162.97488443 160.26304329 165.92398262 163.2239399 C167.00766776 164.30784617 168.09564248 165.38748324 169.18817139 166.46247482 C170.67935475 167.93101297 172.15429186 169.41417695 173.62620544 170.9019928 C174.87024973 172.14107187 174.87024973 172.14107187 176.13942623 173.40518284 C178.34369362 176.33366592 178.8207742 178.26953222 179.02050781 181.90429688 C174.54075911 194.70823317 155.18891042 203.02746208 143.64550781 208.59179688 C136.62731812 211.64363046 129.38734556 213.880519 122.02050781 215.90429688 C120.30927734 216.38962891 120.30927734 216.38962891 118.56347656 216.88476562 C98.10174478 221.69000142 74.15302698 220.49070039 54.02050781 214.90429688 C52.98539062 214.65035156 51.95027344 214.39640625 50.88378906 214.13476562 C19.04048841 205.11915889 -8.30270687 180.37838125 -24.59765625 152.2590332 C-28.42811812 145.3860408 -31.33460467 138.30998192 -33.97949219 130.90429688 C-34.28371094 130.11023438 -34.58792969 129.31617188 -34.90136719 128.49804688 C-39.69424172 115.39100225 -40.55918504 102.08213399 -40.47949219 88.27929688 C-40.47739746 87.44457855 -40.47530273 86.60986023 -40.47314453 85.74984741 C-40.40518023 72.59450832 -39.51242503 60.3698622 -34.97949219 47.90429688 C-34.69009766 47.09557129 -34.40070313 46.2868457 -34.10253906 45.45361328 C-29.9390491 34.14545079 -15.47685254 -3.0540989 0 0 Z " fill="#F0C319" transform="translate(326.9794921875,293.095703125)"/>
<path d="M0 0 C2.70476322 2.66612375 3.17020787 4.25088343 3.2421875 8.01953125 C2.62438653 19.87862372 -0.09287431 30.89269917 -7.8125 40.15625 C-6.884375 40.40375 -5.95625 40.65125 -5 40.90625 C17.33997295 47.42394835 30.15701447 60.16919253 41.1875 80.15625 C42.70864006 83.02356028 44.15786663 85.91770851 45.5625 88.84375 C46.0268042 89.8030542 46.0268042 89.8030542 46.50048828 90.78173828 C49.37712328 97.024615 51.2580174 103.57067762 53.1875 110.15625 C52.15866699 110.17083252 51.12983398 110.18541504 50.06982422 110.20043945 C46.23403053 110.25863657 42.39881078 110.33586703 38.56347656 110.41870117 C36.90699616 110.45185018 35.25040554 110.47991309 33.59375 110.50268555 C31.20525366 110.53641732 28.81775829 110.58873959 26.4296875 110.64453125 C25.69507294 110.65092117 24.96045837 110.6573111 24.20358276 110.66389465 C17.990062 110.83952815 14.05555966 112.50046985 9.4375 116.59375 C4.93588239 121.72059228 4.83125618 125.57752681 5.1875 132.15625 C5.45006567 135.31163295 5.80887902 138.45042706 6.1875 141.59375 C6.93421525 148.159849 7.40448489 154.53821082 7.1875 161.15625 C-10.1906405 156.7282731 -26.37871961 149.93986917 -40.8125 139.15625 C-41.76640625 138.45886719 -42.7203125 137.76148438 -43.703125 137.04296875 C-55.23019914 128.17719998 -63.43472541 116.49491109 -65.625 101.84375 C-65.686875 100.956875 -65.74875 100.07 -65.8125 99.15625 C-66.39515625 99.54296875 -66.9778125 99.9296875 -67.578125 100.328125 C-77.79223947 106.81633608 -88.5591894 110.6496719 -100.8125 110.15625 C-103.77750683 109.33861386 -105.40452347 108.55708471 -107.59765625 106.40234375 C-111.07560229 99.97205767 -109.08331496 91.16359444 -107.1875 84.46875 C-104.38575938 76.28133129 -100.46706664 68.83697762 -93.8125 63.15625 C-92.3275 61.8878125 -92.3275 61.8878125 -90.8125 60.59375 C-84.21336533 56.01061471 -75.77098189 53.83312367 -67.8125 54.15625 C-76.69037583 42.59886982 -89.31497607 33.86813708 -102.8125 28.53125 C-106.03991093 27.05201999 -107.4034835 26.41460066 -108.8125 23.15625 C-108.8125 18.50705744 -108.71443903 16.28367379 -105.8125 12.65625 C-101.52719427 10.51359713 -98.41522127 10.14543138 -93.8125 11.15625 C-82.11763859 15.53543937 -72.93739997 22.60078053 -63.55126953 30.67773438 C-61.1943666 32.68186301 -58.76355317 34.58155413 -56.3125 36.46875 C-55.6215625 37.00113281 -54.930625 37.53351562 -54.21875 38.08203125 C-53.7546875 38.43652344 -53.290625 38.79101562 -52.8125 39.15625 C-52.77382812 38.24746094 -52.77382812 38.24746094 -52.734375 37.3203125 C-52.03096071 26.92896509 -48.44295935 18.60384923 -41.6875 10.65625 C-32.05315684 2.2785603 -12.24102419 -8.02467141 0 0 Z " fill="#E54C3C" transform="translate(125.8125,10.84375)"/>
<path d="M0 0 C3.12526399 1.79536442 4.57046273 3.00669507 6 6.3125 C6 10.01889211 4.9324406 12.89240393 3 16 C0.73324085 18.18843172 -1.79968956 19.85114737 -4.4375 21.5625 C-5.98201808 22.60770765 -7.52627846 23.65329618 -9.0703125 24.69921875 C-9.87887695 25.23853027 -10.68744141 25.7778418 -11.52050781 26.33349609 C-15.66223543 29.11721338 -19.73218597 32.0023916 -23.8125 34.875 C-25.50607465 36.06051859 -27.20008849 37.24541001 -28.89453125 38.4296875 C-34.75479356 42.52750697 -40.61276247 46.62859902 -46.47070312 50.72973633 C-50.7987712 53.75963978 -55.12743366 56.78868872 -59.45703125 59.81640625 C-60.35357422 60.44353516 -61.25011719 61.07066406 -62.17382812 61.71679688 C-63.87936085 62.90978609 -65.58507733 64.10251268 -67.29101562 65.29492188 C-68.06767578 65.83826172 -68.84433594 66.38160156 -69.64453125 66.94140625 C-70.3813916 67.45590332 -71.11825195 67.97040039 -71.87744141 68.50048828 C-73.27961606 69.49107452 -74.67281433 70.49450495 -76.05615234 71.51123047 C-80.80376887 75 -80.80376887 75 -83 75 C-83.19722656 76.12921875 -83.39445313 77.2584375 -83.59765625 78.421875 C-85.35289308 86.28901511 -88.54337941 93.74747267 -91.4375 101.25 C-92.08000245 102.9304131 -92.72183878 104.61108103 -93.36303711 106.29199219 C-94.95305558 110.45697243 -96.54916334 114.61958151 -98.14782715 118.78125 C-106.1648556 139.65469351 -113.92785374 160.61657497 -121.64358521 181.60290527 C-127.21402759 196.75368529 -132.8097187 211.89378594 -138.5 227 C-146.83281107 249.12890005 -154.97905263 271.32635449 -163.14237976 293.51820374 C-167.27264685 304.74491785 -171.41466241 315.96726707 -175.5625 327.1875 C-175.9010199 328.10331848 -176.23953979 329.01913696 -176.58831787 329.96270752 C-183.22849224 347.92534671 -189.88114713 365.88336552 -196.53466797 383.84106445 C-200.98648027 395.85732559 -205.4342014 407.87507682 -209.87181091 419.89659119 C-211.6824821 424.8015323 -213.49459652 429.70592445 -215.3112793 434.60864258 C-215.98621071 436.4304845 -216.66109799 438.25234278 -217.3359375 440.07421875 C-217.81680565 441.37233238 -217.81680565 441.37233238 -218.30738831 442.69667053 C-219.97145498 447.19567537 -221.62025494 451.69953734 -223.24229431 456.21386719 C-223.88277214 457.99501383 -224.52876995 459.77417268 -225.17504883 461.55322266 C-225.89890372 463.54782432 -226.6133518 465.54588358 -227.31518555 467.54833984 C-227.61980713 468.38187988 -227.92442871 469.21541992 -228.23828125 470.07421875 C-228.48618408 470.77119873 -228.73408691 471.46817871 -228.98950195 472.1862793 C-230.27983635 474.5022721 -231.77913936 475.58723878 -234 477 C-237.88968824 477.84327226 -241.05292052 477.5445707 -244.5 475.5625 C-247.03145444 471.23793201 -246.602613 466.47071976 -245.43273926 461.67422485 C-244.6148015 459.18422279 -243.71096491 456.74526046 -242.765625 454.30078125 C-242.42073532 453.37342163 -242.07584564 452.44606201 -241.72050476 451.49060059 C-240.57721158 448.42596845 -239.41356831 445.36948524 -238.25 442.3125 C-237.43415669 440.1362119 -236.61981518 437.95936028 -235.80688477 435.78198242 C-234.09119584 431.19187879 -232.36794883 426.60471659 -230.63916016 422.01953125 C-228.05093991 415.14717526 -225.49484357 408.26323243 -222.94921875 401.375 C-222.53572678 400.25614914 -222.1222348 399.13729828 -221.69621277 397.98454285 C-220.8615159 395.72552007 -220.026916 393.46646147 -219.19241333 391.20736694 C-217.09327963 385.52866432 -214.98778348 379.85232211 -212.8828125 374.17578125 C-208.35169448 361.95335611 -203.82996447 349.72747729 -199.3125 337.5 C-198.96710175 336.56515778 -198.62170349 335.63031555 -198.26583862 334.66714478 C-196.53599594 329.98517081 -194.80628681 325.30314753 -193.07666016 320.62109375 C-189.90748403 312.04244571 -186.73698699 303.46428583 -183.56661987 294.88607788 C-182.49951865 291.99869756 -181.43248751 289.11129135 -180.36547852 286.22387695 C-177.21608305 277.70144505 -174.06643759 269.17910613 -170.91517639 260.65736389 C-169.19324215 256.00081978 -167.47157469 251.34417705 -165.75 246.6875 C-165.40615265 245.75747162 -165.0623053 244.82744324 -164.70803833 243.86923218 C-160.40557082 232.2308155 -156.11068635 220.58963194 -151.82421875 208.9453125 C-151.38263931 207.74583481 -150.94105988 206.54635712 -150.48609924 205.31053162 C-148.68831118 200.4270296 -146.89052522 195.54352689 -145.09329224 190.65982056 C-139.49934211 175.46077581 -133.87352659 160.27422907 -128.20623779 145.10238647 C-121.85335537 128.10757968 -121.85335537 128.10757968 -115.8125 111 C-114.91325014 108.39633743 -114.01163014 105.79352076 -113.10791016 103.19140625 C-112.50526644 101.45545238 -111.90326824 99.71927158 -111.30462646 97.98193359 C-109.68120847 93.27395625 -108.02954783 88.57713219 -106.34921265 83.88916016 C-105.79064963 82.31770865 -105.24060625 80.74319827 -104.69985962 79.16552734 C-101.67101056 70.34625588 -99.10460388 63.28832538 -91 58 C-90.1853125 57.41009277 -89.370625 56.82018555 -88.53125 56.21240234 C-85.79943897 54.24285146 -83.03138703 52.33630664 -80.25 50.4375 C-78.19640486 49.02243972 -76.14302323 47.60706955 -74.08984375 46.19140625 C-73.06616699 45.48773926 -72.04249023 44.78407227 -70.98779297 44.05908203 C-66.57958865 41.02110236 -62.19511388 37.94972941 -57.8125 34.875 C-56.17322241 33.7264978 -54.5338996 32.57806014 -52.89453125 31.4296875 C-52.08838379 30.86475586 -51.28223633 30.29982422 -50.45166016 29.71777344 C-47.97213143 27.98047369 -45.49203605 26.2439862 -43.01171875 24.5078125 C-42.18406006 23.92805664 -41.35640137 23.34830078 -40.50366211 22.75097656 C-38.84600252 21.59166553 -37.1866799 20.43472848 -35.52563477 19.28027344 C-31.16607981 16.24537396 -26.85005152 13.16512397 -22.578125 10.0078125 C-21.24007812 9.03328125 -21.24007812 9.03328125 -19.875 8.0390625 C-18.17101312 6.79657206 -16.47753038 5.53949755 -14.796875 4.265625 C-9.59671907 0.50417888 -6.43730756 -0.87179138 0 0 Z " fill="#FF5263" transform="translate(446,0)"/>
<path d="M0 0 C6.83173836 -0.10179743 13.66327959 -0.17163191 20.49560547 -0.21972656 C22.81761993 -0.23978577 25.13958423 -0.26703991 27.46142578 -0.30175781 C30.80774345 -0.35052541 34.15339059 -0.37302643 37.5 -0.390625 C38.5305249 -0.41127014 39.5610498 -0.43191528 40.62280273 -0.45318604 C46.8988014 -0.45512005 51.82325028 0.25723001 57 4 C61.23265769 8.26652681 62.28883769 12.08814222 62.30078125 18.05859375 C62.22933691 29.09608398 60.8318807 40.08323964 59.60131836 51.03808594 C59.18396929 54.78167018 58.7897022 58.52725052 58.39648438 62.2734375 C58.1341998 64.6564031 57.87057727 67.03922191 57.60546875 69.421875 C57.43183052 71.09984161 57.43183052 71.09984161 57.25468445 72.81170654 C57.07483757 74.3604245 57.07483757 74.3604245 56.89135742 75.94042969 C56.7914299 76.84782898 56.69150238 77.75522827 56.58854675 78.69012451 C55.90742987 81.36331096 55.13916632 82.30356833 53 84 C49.03273785 86.28795264 44.9308227 88.31328588 40.83520508 90.36035156 C38.85783946 91.35225639 36.89087495 92.36282305 34.92382812 93.375 C23.51622316 99.15412527 10.96564344 104.64838933 -2 105 C-3.51207031 105.0928125 -3.51207031 105.0928125 -5.0546875 105.1875 C-15.78893803 105.57695127 -25.85009772 103.38330076 -36 100 C-34.60223207 92.88116745 -32.44311004 86.32037351 -29.88671875 79.5390625 C-29.48031158 78.44655182 -29.07390442 77.35404114 -28.65518188 76.22842407 C-27.33816139 72.69185444 -26.01293685 69.15842292 -24.6875 65.625 C-23.78029089 63.19389089 -22.87363676 60.76257461 -21.9675293 58.33105469 C-20.1618221 53.48755346 -18.35314511 48.64517834 -16.54199219 43.80371094 C-14.29038942 37.78206112 -12.05137085 31.75585067 -9.8203125 25.7265625 C-9.51339981 24.89754425 -9.20648712 24.068526 -8.89027405 23.21438599 C-7.75657061 20.15192795 -6.6230047 17.08941924 -5.49008179 14.02667236 C-4.74060436 12.00173811 -3.98966399 9.97735288 -3.23828125 7.953125 C-2.82618408 6.84098633 -2.41408691 5.72884766 -1.98950195 4.58300781 C-1 2 -1 2 0 0 Z " fill="#9FC8D2" transform="translate(346,121)"/>
<path d="M0 0 C2.70476322 2.66612375 3.17020787 4.25088343 3.2421875 8.01953125 C2.57757132 20.77727221 -0.43972577 32.97320804 -9.8125 42.15625 C-18.10245698 49.24335048 -30.12206183 54.40524048 -41.125 54.21875 C-42.9503125 54.1878125 -42.9503125 54.1878125 -44.8125 54.15625 C-44.915625 54.919375 -45.01875 55.6825 -45.125 56.46875 C-45.86789884 59.37280911 -46.38243983 60.44620766 -48.8125 62.15625 C-50.1325 62.15625 -51.4525 62.15625 -52.8125 62.15625 C-52.76867187 63.31382813 -52.72484375 64.47140625 -52.6796875 65.6640625 C-52.68552643 70.08802705 -53.56498576 73.84800726 -54.9375 78.03125 C-55.27418701 79.07224854 -55.27418701 79.07224854 -55.61767578 80.13427734 C-59.48178335 91.55663243 -65.07566071 99.29381128 -75.8125 104.90625 C-84.06823194 108.76800167 -94.43004805 111.88521393 -103.5234375 109.421875 C-106.20654938 107.93837969 -107.35338043 106.8539791 -108.8125 104.15625 C-110.83112105 91.22616382 -106.31181632 78.56545729 -98.8125 68.15625 C-96.375 65.34375 -96.375 65.34375 -93.8125 63.15625 C-92.3275 61.8878125 -92.3275 61.8878125 -90.8125 60.59375 C-84.21336533 56.01061471 -75.77098189 53.83312367 -67.8125 54.15625 C-76.69037583 42.59886982 -89.31497607 33.86813708 -102.8125 28.53125 C-106.03991093 27.05201999 -107.4034835 26.41460066 -108.8125 23.15625 C-108.8125 18.50705744 -108.71443903 16.28367379 -105.8125 12.65625 C-101.52719427 10.51359713 -98.41522127 10.14543138 -93.8125 11.15625 C-82.11763859 15.53543937 -72.93739997 22.60078053 -63.55126953 30.67773438 C-61.1943666 32.68186301 -58.76355317 34.58155413 -56.3125 36.46875 C-55.6215625 37.00113281 -54.930625 37.53351562 -54.21875 38.08203125 C-53.7546875 38.43652344 -53.290625 38.79101562 -52.8125 39.15625 C-52.77382812 38.24746094 -52.77382812 38.24746094 -52.734375 37.3203125 C-52.03096071 26.92896509 -48.44295935 18.60384923 -41.6875 10.65625 C-32.05315684 2.2785603 -12.24102419 -8.02467141 0 0 Z " fill="#4FB96E" transform="translate(125.8125,10.84375)"/>
<path d="M0 0 C6.02770138 0.47587116 10.76678289 3.19722957 16 6 C15.39499782 9.33905275 14.58072853 12.4269034 13.41210938 15.61108398 C13.08597153 16.50517471 12.75983368 17.39926544 12.42381287 18.32044983 C12.06739212 19.28591232 11.71097137 20.25137482 11.34375 21.24609375 C10.96996719 22.26734848 10.59618439 23.28860321 10.21107483 24.34080505 C8.97765717 27.70770532 7.73891606 31.07261948 6.5 34.4375 C5.63247829 36.80150229 4.76521269 39.16559857 3.89819336 41.52978516 C1.27115602 48.68862348 -1.36342143 55.84467104 -4 63 C-4.5692923 64.54551544 -4.5692923 64.54551544 -5.15008545 66.12225342 C-10.04135101 79.3996396 -14.95005459 92.67054207 -19.86590576 105.93884277 C-21.46183499 110.2465891 -23.0572342 114.55453168 -24.65267944 118.86245728 C-27.61871615 126.87115228 -30.58496274 134.87976949 -33.55175781 142.88818359 C-38.5874797 156.48190675 -43.61892267 170.07719996 -48.64349365 183.67504883 C-49.67750315 186.47294976 -50.7119938 189.2706724 -51.74658203 192.06835938 C-55.01702278 200.91405999 -58.28175919 209.7617914 -61.53285217 218.61462402 C-63.10042414 222.88216181 -64.67053782 227.14876238 -66.24087524 231.4152832 C-66.98936567 233.45110948 -67.73660488 235.48739626 -68.48251343 237.52416992 C-69.51386491 240.34018905 -70.54945359 243.15461666 -71.5859375 245.96875 C-71.88827805 246.79777832 -72.19061859 247.62680664 -72.50212097 248.48095703 C-76.84269733 260.22846488 -76.84269733 260.22846488 -81 263 C-87.86323268 263.65364121 -87.86323268 263.65364121 -91.5 261.5625 C-94.03145444 257.23793201 -93.602613 252.47071976 -92.43273926 247.67422485 C-91.6148015 245.18422279 -90.71096491 242.74526046 -89.765625 240.30078125 C-89.42073532 239.37342163 -89.07584564 238.44606201 -88.72050476 237.49060059 C-87.57721158 234.42596845 -86.41356831 231.36948524 -85.25 228.3125 C-84.43415669 226.1362119 -83.61981518 223.95936028 -82.80688477 221.78198242 C-81.09119584 217.19187879 -79.36794883 212.60471659 -77.63916016 208.01953125 C-75.05093991 201.14717526 -72.49484357 194.26323243 -69.94921875 187.375 C-69.53572678 186.25614914 -69.1222348 185.13729828 -68.69621277 183.98454285 C-67.8615159 181.72552007 -67.026916 179.46646147 -66.19241333 177.20736694 C-64.09327963 171.52866432 -61.98778348 165.85232211 -59.8828125 160.17578125 C-55.35169448 147.95335611 -50.82996447 135.72747729 -46.3125 123.5 C-45.96710175 122.56515778 -45.62170349 121.63031555 -45.26583862 120.66714478 C-43.53599594 115.98517081 -41.80628681 111.30314753 -40.07666016 106.62109375 C-37.9721219 100.92431572 -35.86698395 95.22775942 -33.76171875 89.53125 C-33.4097644 88.57884933 -33.05781006 87.62644867 -32.69519043 86.64518738 C-30.93161958 81.8730371 -29.16763435 77.10104072 -27.40283203 72.3293457 C-24.0876717 63.36440849 -20.77676297 54.39796207 -17.4793396 45.42648315 C-15.92475776 41.19758067 -14.36798075 36.96948779 -12.81103516 32.74145508 C-12.07084256 30.72948873 -11.33172078 28.71712806 -10.59375 26.7043457 C-9.56913351 23.9099585 -8.54080245 21.11696334 -7.51171875 18.32421875 C-7.21452438 17.510634 -6.91733002 16.69704926 -6.61112976 15.85881042 C-4.61999999 10.47008818 -2.39201533 5.22282339 0 0 Z " fill="#C13B2B" transform="translate(293,214)"/>
<path d="M0 0 C76.32683064 -6.18783454 76.32683064 -6.18783454 95.29541016 7.85009766 C107.74181161 18.7177936 111.48500639 31.26283267 112.61334229 47.29833984 C113.83243223 68.54570768 112.71772042 89.81194871 111 111 C105.61483519 112.79505494 99.67646212 112 94 112 C93.67 84.94 93.34 57.88 93 30 C73.2 49.8 53.4 69.6 33 90 C24 83.25 24 83.25 21 79 C22.6086001 74.98427481 25.43645473 72.29519936 28.45947266 69.31347656 C29.02470831 68.74799984 29.58994396 68.18252312 30.17230797 67.59991074 C31.99826654 65.77544177 33.8309859 63.95793928 35.6640625 62.140625 C36.79431694 61.01331208 37.92412119 59.88554761 39.0534668 58.75732422 C43.23852412 54.58274157 47.43229074 50.41689743 51.625 46.25 C60.98875 36.9275 70.3525 27.605 80 18 C52.94 17.67 25.88 17.34 -2 17 C-2 4 -2 4 0 0 Z " fill="#F29C1F" transform="translate(323,365)"/>
<path d="M0 0 C0.91072266 0.81597656 0.91072266 0.81597656 1.83984375 1.6484375 C2.41605469 2.15375 2.99226563 2.6590625 3.5859375 3.1796875 C4.83984375 4.6484375 4.83984375 4.6484375 4.83984375 7.5234375 C3.92705974 12.36426954 1.87181183 16.86381121 0.03125 21.41015625 C-1.01795995 24.26194328 -1.66353189 26.85136975 -2.16015625 29.8359375 C-3.16015625 33.6484375 -3.16015625 33.6484375 -5.41015625 35.1484375 C-6.77140625 35.3959375 -6.77140625 35.3959375 -8.16015625 35.6484375 C-9.00578125 35.8546875 -9.85140625 36.0609375 -10.72265625 36.2734375 C-35.62614748 38.990182 -55.44705694 28.1463827 -74.44921875 13.078125 C-77.04238878 10.96025298 -79.60401698 8.81066586 -82.16015625 6.6484375 C-83.06121094 5.96523438 -83.96226563 5.28203125 -84.890625 4.578125 C-87.16015625 2.6484375 -87.16015625 2.6484375 -88.28515625 -0.2890625 C-88.14703728 -3.67297724 -87.47056209 -4.90711608 -85.02392578 -7.20336914 C-80.86874275 -9.76321009 -75.78780364 -9.97826448 -71.03515625 -10.6015625 C-69.41867188 -10.84132813 -69.41867188 -10.84132813 -67.76953125 -11.0859375 C-44.22274595 -14.490292 -19.50938027 -16.05800015 0 0 Z " fill="#4EB96E" transform="translate(109.16015625,276.3515625)"/>
<path d="M0 0 C0 27.39 0 54.78 0 83 C-24.12965696 83 -41.88676283 76.35985819 -61 62 C-59.38353437 57.94953982 -56.50697489 55.23201365 -53.46459961 52.22167969 C-52.90020676 51.65538849 -52.3358139 51.08909729 -51.75431824 50.50564575 C-49.89184086 48.63947035 -48.02227329 46.78058085 -46.15234375 44.921875 C-44.85685899 43.62758236 -43.56174369 42.33291983 -42.26698303 41.03790283 C-39.55566475 38.32814756 -36.84102201 35.62178295 -34.1237793 32.91796875 C-30.63243364 29.44365504 -27.14774964 25.96275214 -23.66528988 22.47953415 C-20.99340656 19.807922 -18.31893083 17.13891825 -15.64355659 14.47080231 C-14.35707897 13.1875167 -13.07121481 11.90361583 -11.78596306 10.61910248 C-9.9951498 8.83044475 -8.20109074 7.04511153 -6.40600586 5.26074219 C-5.87040039 4.72468353 -5.33479492 4.18862488 -4.78295898 3.63632202 C-1.11447695 0 -1.11447695 0 0 0 Z " fill="#F2D359" transform="translate(417,394)"/>
<path d="M0 0 C27.39 0 54.78 0 83 0 C79.21935798 4.41074902 75.56768647 8.56323873 71.5012207 12.65991211 C70.73172592 13.43685425 70.73172592 13.43685425 69.94668579 14.22949219 C68.27576622 15.91483175 66.6011418 17.5964195 64.92578125 19.27734375 C64.35030233 19.85565004 63.77482342 20.43395634 63.18190575 21.02978706 C60.14666602 24.0799238 57.10863634 27.12724738 54.06811523 30.17211914 C50.92731244 33.31844575 47.79592205 36.47397245 44.66654682 39.63165951 C42.25496912 42.06180957 39.83675954 44.4852755 37.41664696 46.90692329 C36.25830392 48.06829698 35.10246724 49.23217601 33.94918251 50.39857292 C32.34327434 52.02145558 30.7282608 53.63469791 29.1105957 55.24584961 C28.19381546 56.16627548 27.27703522 57.08670135 26.33247375 58.03501892 C24 60 24 60 21 60 C19.2410942 57.88746803 17.74614281 55.85317562 16.25 53.5625 C15.80970459 52.89307373 15.36940918 52.22364746 14.91577148 51.53393555 C4.63855075 35.35409267 1.19578074 19.13249179 0 0 Z " fill="#F2D45A" transform="translate(321,382)"/>
<path d="M0 0 C1.16678268 1.0623726 2.33344882 2.1248732 3.5 3.1875 C5.25577819 4.74213291 5.25577819 4.74213291 8.18359375 5.52734375 C9.08240366 17.98584783 5.73757135 29.51604813 -1.81640625 39.52734375 C-10.60714026 49.33322395 -23.1197232 52.43595668 -35.73046875 53.57421875 C-39.95777381 53.51000652 -42.56389735 52.75792689 -45.6015625 49.7734375 C-49.07950854 43.34315142 -47.08722121 34.53468819 -45.19140625 27.83984375 C-42.38966563 19.65242504 -38.47097289 12.20807137 -31.81640625 6.52734375 C-30.82640625 5.68171875 -29.83640625 4.83609375 -28.81640625 3.96484375 C-21.16269168 -1.36752442 -7.8281075 -6.3466592 0 0 Z " fill="#4FB96E" transform="translate(63.81640625,67.47265625)"/>
<path d="M0 0 C4.10338418 3.51718644 7.96284248 6.83810314 11.74194336 10.62841797 C12.60230698 11.48885712 13.46267059 12.34929626 14.34910583 13.23580933 C15.25354935 14.14541412 16.15799286 15.05501892 17.08984375 15.9921875 C18.04368954 16.94790248 18.99775941 17.90339388 19.95204163 18.8586731 C22.44153194 21.35194916 24.92800224 23.84821525 27.41381836 26.34515381 C29.95957994 28.90121509 32.50823777 31.45438505 35.05664062 34.0078125 C40.04057069 39.00241019 45.02131048 44.00017799 50 49 C43.75098418 62.1454215 26.56737523 68.63551532 13.765625 73.7734375 C9.28445065 75.23307313 4.62138213 76.07572357 0 77 C0 51.59 0 26.18 0 0 Z " fill="#F2D45A" transform="translate(434,399)"/>
<path d="M0 0 C2.89509184 1.30943104 4.94592537 2.70266501 7.17285156 4.96166992 C8.06463104 5.85851753 8.06463104 5.85851753 8.97442627 6.77348328 C9.92294464 7.74219109 9.92294464 7.74219109 10.890625 8.73046875 C11.55406921 9.39911453 12.21751343 10.06776031 12.90106201 10.75666809 C15.02218406 12.89558082 17.13652168 15.0410362 19.25 17.1875 C21.34999707 19.31528759 23.45149132 21.44153829 25.55609131 23.56477356 C26.86352544 24.88427409 28.16828143 26.20643605 29.4697876 27.53178406 C33.26050343 31.36327684 37.17524924 34.98195254 41.26373291 38.49449158 C43.42901526 40.37199696 45.4778371 42.34481265 47.5 44.375 C48.1703125 45.04273438 48.840625 45.71046875 49.53125 46.3984375 C51 48 51 48 51 49 C25.92 49 0.84 49 -25 49 C-21.19316887 29.96584437 -14.14927501 13.71391271 0 0 Z " fill="#F2D45A" transform="translate(348,315)"/>
<path d="M0 0 C2.74703988 2.39258312 2.97154858 3.80439649 3.5 7.4375 C2.75249645 12.76346282 -0.76796775 14.8674143 -4.61328125 18.40234375 C-19.33791359 32.2319912 -26.23342024 50.19772517 -27.15576172 70.4140625 C-27.21974962 75.12673867 -27.26072492 79.83581252 -27.21484375 84.54882812 C-27.33798482 92.98399149 -27.33798482 92.98399149 -29.25512695 95.92626953 C-32.1209401 98.47794116 -33.84812572 99 -37.6875 99 C-42.16697248 97.64770642 -42.16697248 97.64770642 -44 95 C-45.15977297 91.52068108 -45.21696163 88.34267584 -45.2734375 84.71875 C-45.28592026 83.99708649 -45.29840302 83.27542297 -45.31126404 82.53189087 C-45.52795259 66.9900841 -45.46664083 52.74990678 -40 38 C-39.61585937 36.80117188 -39.23171875 35.60234375 -38.8359375 34.3671875 C-36.16121179 26.52496449 -32.18672266 20.41624457 -27 14 C-26.27683594 13.03126953 -26.27683594 13.03126953 -25.5390625 12.04296875 C-19.16934702 3.88752379 -10.40981472 -3.90368052 0 0 Z " fill="#805333" transform="translate(149,257)"/>
<path d="M0 0 C6.27 0 12.54 0 19 0 C17.00086558 6.86615721 14.77880249 13.58385213 12.296875 20.2890625 C11.94178864 21.25537094 11.58670227 22.22167938 11.22085571 23.2172699 C10.06698914 26.35432607 8.90865133 29.48970823 7.75 32.625 C6.94860469 34.80000249 6.14733653 36.97505183 5.34619141 39.15014648 C-2.02057744 59.13077213 -9.48679253 79.07403253 -17 99 C-22.7162156 97.11311636 -28.37607322 95.1473175 -34 93 C-32.06610551 86.29257761 -29.88782342 79.72962857 -27.4453125 73.19140625 C-26.93791031 71.82165901 -26.93791031 71.82165901 -26.42025757 70.42424011 C-25.32480296 67.46921674 -24.22498909 64.51583808 -23.125 61.5625 C-22.36497216 59.51539681 -21.60520905 57.46819532 -20.84570312 55.42089844 C-19.30927324 51.28079524 -17.77108144 47.14135328 -16.23144531 43.00244141 C-14.15678172 37.42416757 -12.0891082 31.84332773 -10.0234375 26.26171875 C-9.13084893 23.8515697 -8.23806933 21.44149156 -7.34515381 19.03146362 C-6.7835903 17.51554226 -6.22226867 15.99953126 -5.66119385 14.48342896 C-4.88984529 12.39998875 -4.11702274 10.31710167 -3.34375 8.234375 C-2.91255859 7.07131836 -2.48136719 5.90826172 -2.03710938 4.70996094 C-1 2 -1 2 0 0 Z " fill="#DE4E61" transform="translate(327,121)"/>
<path d="M0 0 C2.5625 1.5 2.5625 1.5 4 4 C4.54209118 6.78463682 4.56345053 9.21724432 4 12 C1.97507749 14.80373886 0.14100482 15.92799754 -2.9375 17.5 C-10.70361663 23.83968705 -12.77221212 36.47274673 -14 46 C-14.80001281 56.83611556 -14.09769117 66.55542871 -11 77 C-10.09284116 81.00493827 -9.56075307 83.98973207 -11.25 87.875 C-13.56498015 90.68604733 -15.25349078 91.88640077 -18.875 92.4375 C-22 92 -22 92 -24.6875 90.125 C-34.90212055 76.32145872 -33.79239786 51.29633663 -31.3828125 35.12890625 C-29.21492777 23.60597345 -24.52226108 11.07017303 -15.125 3.625 C-9.99022084 0.13621277 -6.21160156 -0.76127977 0 0 Z " fill="#FEFBFB" transform="translate(58,335)"/>
<path d="M0 0 C5.51334345 3.88263624 8.42596487 8.37279812 10.625 14.75 C11.45244539 21.01494368 9.66385171 26.31771641 6.625 31.75 C2.20881612 37.0941415 -3.5901789 39.99450193 -10.37890625 41.06640625 C-15.77081319 41.39350824 -20.00623749 39.88051046 -24.375 36.75 C-30.03793358 31.42083461 -33.355231 26.79699181 -33.75 18.9375 C-33.59685909 12.87492148 -31.87750728 8.54393851 -27.83203125 4.02734375 C-19.79934304 -3.45390133 -9.81336981 -5.76398673 0 0 Z " fill="#D25726" transform="translate(215.375,263.25)"/>
<path d="M0 0 C11.68968988 4.37725287 20.99297154 11.42590557 30.33935547 19.55664062 C31.72254539 20.75884862 33.12640468 21.93722423 34.53515625 23.109375 C40.0780466 27.76583009 44.97908059 32.96862089 49 39 C49 39.99 49 40.98 49 42 C51.64 42 54.28 42 57 42 C57 42.33 57 42.66 57 43 C54.36 43 51.72 43 49 43 C48.896875 43.763125 48.79375 44.52625 48.6875 45.3125 C47.94460116 48.21655911 47.43006017 49.28995766 45 51 C43.68 51 42.36 51 41 51 C41 53.64 41 56.28 41 59 C40.67 59 40.34 59 40 59 C40 56.36 40 53.72 40 51 C39.319375 50.979375 38.63875 50.95875 37.9375 50.9375 C34.17859307 49.73784885 32.53315108 47.76763169 29.859375 44.9453125 C19.0453472 33.63147669 5.57727724 23.15721853 -9 17.375 C-12.22741093 15.89576999 -13.5909835 15.25835066 -15 12 C-15 7.35080744 -14.90193903 5.12742379 -12 1.5 C-7.71469427 -0.64265287 -4.60272127 -1.01081862 0 0 Z " fill="#4C8055" transform="translate(32,22)"/>
<path d="M0 0 C4.45850936 0.79616239 5.90783917 1.93313458 8.5 5.625 C9.125 9.125 9.125 9.125 8.5 12.625 C6.4375 15.5625 6.4375 15.5625 3.5 17.625 C-0.0625 18.1875 -0.0625 18.1875 -3.5 17.625 C-6.80748965 15.01382396 -8.31680509 12.99896185 -8.875 8.8125 C-8.5 5.625 -8.5 5.625 -6.4375 2.75 C-3.5 0.625 -3.5 0.625 0 0 Z " fill="#D25826" transform="translate(199.5,381.375)"/>
<path d="M0 0 C2.5 1.5 2.5 1.5 4 4 C4.79126072 8.02224201 4.66872394 10.95679065 2.4375 14.4375 C-0.83565762 16.53567796 -3.11417724 17 -7 17 C-9.80189446 15.23358828 -11.51524911 13.96950178 -13 11 C-13.52981019 7.02642355 -13.31881474 5.45829619 -11 2.125 C-6.85436985 -0.81148802 -5.00671711 -0.7152453 0 0 Z " fill="#D35826" transform="translate(195,339)"/>
<path d="M0 0 C2.71049169 1.3937977 3.88911516 2.63169017 6 5 C6.625 8 6.625 8 6 11 C4.20006226 13.69990662 2.916227 15.5418865 0 17 C-3.97357645 17.52981019 -5.54170381 17.31881474 -8.875 15 C-11.81148802 10.85436985 -11.7152453 9.00671711 -11 4 C-8.15865173 -0.54615724 -5.11373458 -0.79351054 0 0 Z " fill="#EFC019" transform="translate(133,87)"/>
<path d="M0 0 C3.74093467 2.07829704 4.79149259 3.32541719 6.0625 7.4375 C5.98713481 11.73331579 5.03450339 13.05219671 2 16 C-0.85324437 17.42662219 -2.83454549 17.31033868 -6 17 C-8.875 15.5625 -8.875 15.5625 -11 13 C-11.71534153 9.85595859 -11.71534153 7.14404141 -11 4 C-7.77123438 0.10648852 -4.96361941 -0.8272699 0 0 Z " fill="#EFC119" transform="translate(107,113)"/>
</svg>
