<?xml version="1.0" encoding="UTF-8"?>
<svg version="1.1" xmlns="http://www.w3.org/2000/svg" width="512" height="512">
<path d="M0 0 C5.80005883 0.09314395 10.84893436 3.00697878 15.98828125 5.44140625 C17.01759766 5.90740234 18.04691406 6.37339844 19.10742188 6.85351562 C25.99881512 10.05729427 32.09984126 13.82582353 38.17578125 18.37890625 C38.821521 18.84965576 39.46726074 19.32040527 40.13256836 19.80541992 C48.82259327 26.29155832 54.44796112 36.90075774 58.203125 46.8203125 C59.06887389 49.09768408 60.04491009 51.22365852 61.17578125 53.37890625 C61.38332031 52.651875 61.59085938 51.92484375 61.8046875 51.17578125 C66.959381 34.35293216 76.40752783 20.87050988 92.00732422 12.38232422 C96.05267558 10.2572409 100.14991869 8.25029921 104.27636719 6.28808594 C105.99458323 5.46563908 107.69936521 4.61526974 109.40234375 3.76171875 C114.52094278 1.26587294 118.4537959 -0.57475797 124.17578125 0.37890625 C126.11328125 1.37890625 126.11328125 1.37890625 127.17578125 3.37890625 C127.79475108 9.83387738 126.69716905 13.0338239 122.55078125 18.06640625 C110.64776887 33.57651963 107.95475331 49.33421982 108.11328125 68.50390625 C108.12004883 70.08171875 108.12004883 70.08171875 108.12695312 71.69140625 C108.13860114 74.25396846 108.15495572 76.81640502 108.17578125 79.37890625 C109.55914673 78.70516968 109.55914673 78.70516968 110.97045898 78.01782227 C114.42488319 76.3398827 117.88773017 74.67998681 121.35327148 73.02514648 C122.84615366 72.30926618 124.33677285 71.58864519 125.82495117 70.86303711 C127.97633786 69.81511057 130.13554598 68.7850472 132.296875 67.7578125 C132.95038437 67.4348671 133.60389374 67.11192169 134.27720642 66.77919006 C139.09874825 64.51726074 143.81734317 63.33555807 149.17578125 63.37890625 C152.19469413 64.59931784 153.59560452 65.57770982 155.48828125 68.19140625 C156.59190206 71.702927 156.99711537 74.76614902 155.27075195 78.15600586 C153.96654663 80.13567314 152.59149787 82.03991131 151.17578125 83.94140625 C150.15941787 85.3683405 149.14511472 86.7967443 148.1328125 88.2265625 C147.62959473 88.93055176 147.12637695 89.63454102 146.60791016 90.35986328 C137.53172178 103.1556488 131.10289939 116.69615176 129.17578125 132.37890625 C129.92601562 132.92417969 130.67625 133.46945313 131.44921875 134.03125 C138.38193637 139.1391087 144.89459393 144.47223606 151.17578125 150.37890625 C151.83964844 150.96671875 152.50351563 151.55453125 153.1875 152.16015625 C160.11295168 158.56584787 165.15162836 166.46044576 170.17578125 174.37890625 C170.54735352 174.95962891 170.91892578 175.54035156 171.30175781 176.13867188 C181.38579173 192.28450982 186.63600945 211.92178648 190.51953125 230.4140625 C191.02998678 233.29010708 191.02998678 233.29010708 192.17578125 235.37890625 C193.42122475 234.13069737 193.42122475 234.13069737 194.69182873 232.85727215 C214.40031131 213.10547659 234.11395941 193.3588484 253.83398239 173.61857445 C256.26102308 171.18903233 258.68802014 168.75944663 261.11499023 166.32983398 C261.59815828 165.84614132 262.08132632 165.36244866 262.57913581 164.86409865 C270.40304935 157.03148183 278.2234224 149.19533921 286.04249337 141.35788854 C294.06529013 133.31639062 302.09195167 125.27876836 310.12200004 117.24451047 C314.63237994 112.73152039 319.1409751 108.21677888 323.64539146 103.69783592 C327.8836839 99.44598583 332.12662737 95.19883384 336.373209 90.95526314 C337.93221012 89.39571104 339.48949342 87.83443957 341.04493713 86.27133942 C343.16682458 84.13951936 345.29477353 82.01393917 347.42436218 79.88981628 C348.34801631 78.95742363 348.34801631 78.95742363 349.29033011 78.00619477 C353.45204365 73.87333958 357.37825098 69.98353252 363.55078125 69.81640625 C368.00232195 70.00739644 370.2550272 71.28687085 373.38671875 74.3828125 C377.15753097 78.58998509 380.7429587 82.89147436 384.17578125 87.37890625 C384.66353027 88.01344727 385.1512793 88.64798828 385.65380859 89.30175781 C415.81222181 128.87938215 435.95137743 178.81121136 436.4140625 228.99609375 C436.42385635 229.88296371 436.43365021 230.76983368 436.44374084 231.68357849 C437.08816333 305.21952296 411.9986932 368.36877345 360.67578125 421.06640625 C355.80542837 425.87598824 350.52621986 430.11992659 345.17578125 434.37890625 C344.38558594 435.03632813 343.59539062 435.69375 342.78125 436.37109375 C314.43714185 459.77966068 279.29525088 476.45103993 243.33569336 483.84130859 C236.28641779 485.3159064 231.53318808 487.87930049 226.10620117 492.45117188 C207.34929887 508.12858275 181.85916773 512.0212435 158.17578125 510.37890625 C140.62630686 508.22537531 123.54361923 501.15820983 110.05078125 489.69921875 C108.14917018 488.09103298 108.14917018 488.09103298 105.17578125 488.37890625 C103.75988075 489.62097406 103.75988075 489.62097406 102.36328125 491.31640625 C90.88719832 503.20234929 74.5624764 510.26427712 58.11132812 510.66992188 C50.00370933 510.74740563 42.86091496 509.86075207 35.02148438 507.81738281 C25.80662522 505.43781664 19.02580463 506.18796483 9.91796875 508.64453125 C-6.55456603 513.05597931 -23.3205159 509.76532322 -38.02734375 501.671875 C-56.27400615 490.99123802 -67.41338734 473.57466322 -72.69921875 453.44140625 C-78.3081719 431.5722668 -78.29896007 405.10884597 -71.82421875 383.37890625 C-71.62634766 382.71004395 -71.42847656 382.04118164 -71.22460938 381.35205078 C-68.18327862 371.42835584 -68.18327862 371.42835584 -65.46459961 367.32861328 C-62.60910178 363.02084254 -62.60910178 363.02084254 -61.91967773 358.03051758 C-62.54706168 355.48530241 -63.35290481 353.08758092 -64.26171875 350.62890625 C-64.86695326 348.77459179 -65.46441565 346.91772528 -66.0546875 345.05859375 C-66.35810059 344.11725586 -66.66151367 343.17591797 -66.97412109 342.20605469 C-69.31044418 334.43620365 -70.56030612 326.38105312 -71.82421875 318.37890625 C-71.9428125 317.64655762 -72.06140625 316.91420898 -72.18359375 316.15966797 C-79.97154892 265.64226232 -71.43201938 205.24026939 -40.82421875 163.37890625 C-31.90112156 151.63208469 -21.25747295 141.39144784 -8.82421875 133.37890625 C-8.16421875 133.37890625 -7.50421875 133.37890625 -6.82421875 133.37890625 C-11.80467438 113.94190683 -19.07756236 98.74095717 -30.8671875 82.578125 C-33.14558931 79.35805593 -34.68413992 77.09330828 -35.44921875 73.19140625 C-34.64502798 69.5725478 -33.11118988 67.27125209 -30.82421875 64.37890625 C-27.35025666 62.64192521 -23.62935711 62.82418264 -19.9390564 63.95822144 C-17.92212798 64.78502298 -15.95863176 65.68445696 -13.9921875 66.625 C-13.274366 66.955569 -12.55654449 67.286138 -11.81697083 67.62672424 C-9.54258842 68.67762697 -7.27728185 69.74664403 -5.01171875 70.81640625 C-3.47126414 71.53180821 -1.93025308 72.24601329 -0.38867188 72.95898438 C9.55159022 77.56681074 9.55159022 77.56681074 13.17578125 79.37890625 C13.62404375 54.21758721 11.72332845 34.3686098 -4.15234375 13.95703125 C-5.87923754 11.29406419 -6.58279469 9.52791577 -6.82421875 6.37890625 C-3.89612386 0.52271648 -3.89612386 0.52271648 0 0 Z " fill="#ED6160" transform="translate(75.82421875,0.62109375)"/>
<path d="M0 0 C5.80005883 0.09314395 10.84893436 3.00697878 15.98828125 5.44140625 C17.01759766 5.90740234 18.04691406 6.37339844 19.10742188 6.85351562 C25.99881512 10.05729427 32.09984126 13.82582353 38.17578125 18.37890625 C38.821521 18.84965576 39.46726074 19.32040527 40.13256836 19.80541992 C48.82259327 26.29155832 54.44796112 36.90075774 58.203125 46.8203125 C59.06887389 49.09768408 60.04491009 51.22365852 61.17578125 53.37890625 C61.38332031 52.651875 61.59085938 51.92484375 61.8046875 51.17578125 C66.959381 34.35293216 76.40752783 20.87050988 92.00732422 12.38232422 C96.05267558 10.2572409 100.14991869 8.25029921 104.27636719 6.28808594 C105.99458323 5.46563908 107.69936521 4.61526974 109.40234375 3.76171875 C114.52094278 1.26587294 118.4537959 -0.57475797 124.17578125 0.37890625 C126.11328125 1.37890625 126.11328125 1.37890625 127.17578125 3.37890625 C127.79475108 9.83387738 126.69716905 13.0338239 122.55078125 18.06640625 C110.64776887 33.57651963 107.95475331 49.33421982 108.11328125 68.50390625 C108.12004883 70.08171875 108.12004883 70.08171875 108.12695312 71.69140625 C108.13860114 74.25396846 108.15495572 76.81640502 108.17578125 79.37890625 C109.55914673 78.70516968 109.55914673 78.70516968 110.97045898 78.01782227 C114.42488319 76.3398827 117.88773017 74.67998681 121.35327148 73.02514648 C122.84615366 72.30926618 124.33677285 71.58864519 125.82495117 70.86303711 C127.97633786 69.81511057 130.13554598 68.7850472 132.296875 67.7578125 C132.95038437 67.4348671 133.60389374 67.11192169 134.27720642 66.77919006 C139.09874825 64.51726074 143.81734317 63.33555807 149.17578125 63.37890625 C152.19469413 64.59931784 153.59560452 65.57770982 155.48828125 68.19140625 C156.59190206 71.702927 156.99711537 74.76614902 155.27075195 78.15600586 C153.96654663 80.13567314 152.59149787 82.03991131 151.17578125 83.94140625 C150.15941787 85.3683405 149.14511472 86.7967443 148.1328125 88.2265625 C147.62959473 88.93055176 147.12637695 89.63454102 146.60791016 90.35986328 C137.53172178 103.1556488 131.10289939 116.69615176 129.17578125 132.37890625 C129.92601562 132.92417969 130.67625 133.46945313 131.44921875 134.03125 C138.38193637 139.1391087 144.89459393 144.47223606 151.17578125 150.37890625 C151.83964844 150.96671875 152.50351563 151.55453125 153.1875 152.16015625 C160.11295168 158.56584787 165.15162836 166.46044576 170.17578125 174.37890625 C170.54735352 174.95962891 170.91892578 175.54035156 171.30175781 176.13867188 C181.05230127 191.7505486 193.17660613 219.62392514 191.17578125 238.37890625 C189.59842682 240.57149982 189.59842682 240.57149982 187.34143066 242.81452942 C186.4916011 243.6712323 185.64177155 244.52793518 184.76618958 245.41059875 C183.81245465 246.34663873 182.8584824 247.28243694 181.90429688 248.21801758 C180.90816185 249.21274217 179.91312666 250.20856921 178.91911316 251.20541382 C176.21747214 253.90849057 173.50068231 256.59586471 170.78094292 259.28071427 C167.94127762 262.08914256 165.11574705 264.91171799 162.28869629 267.73283386 C156.9331341 273.07284985 151.56495305 278.39999172 146.19213915 283.72264355 C140.07600961 289.78290397 133.9740562 295.85735263 127.87326145 301.93304408 C115.32316078 314.43086897 102.75533806 326.91073413 90.17578125 339.37890625 C87.55946116 338.33941074 84.96005159 337.28490115 82.37890625 336.16015625 C67.46210582 329.68831691 52.25880688 327.92330353 36.4609375 332.72265625 C34.17578125 333.37890625 34.17578125 333.37890625 31.17578125 333.37890625 C31.39234375 334.32636719 31.39234375 334.32636719 31.61328125 335.29296875 C35.59101898 354.46345477 35.59101898 354.46345477 31.40234375 361.25390625 C29.07312977 363.47687538 28.32197201 364.06535529 25.17578125 364.00390625 C24.51578125 364.01679688 23.85578125 364.0296875 23.17578125 364.04296875 C19.86213751 362.94273548 18.93210135 361.38383078 17.17578125 358.37890625 C16.44072277 354.87722065 16.20556635 351.38329988 15.98828125 347.81640625 C15.8514144 345.93992341 15.71218099 344.06361133 15.5703125 342.1875 C15.51721924 341.36048584 15.46412598 340.53347168 15.40942383 339.68139648 C15.18739159 337.4933233 14.76732939 335.49383516 14.17578125 333.37890625 C-0.59010335 328.9914298 -18.01549937 329.34998337 -31.82421875 336.37890625 C-32.86578125 336.89839844 -33.90734375 337.41789062 -34.98046875 337.953125 C-44.56321685 343.14378022 -52.58111358 349.86811279 -58.66796875 358.9453125 C-59.04953125 359.41839844 -59.43109375 359.89148438 -59.82421875 360.37890625 C-60.48421875 360.37890625 -61.14421875 360.37890625 -61.82421875 360.37890625 C-66.06164552 346.51385903 -69.56128369 332.70611387 -71.82421875 318.37890625 C-71.9428125 317.64655762 -72.06140625 316.91420898 -72.18359375 316.15966797 C-79.97154892 265.64226232 -71.43201938 205.24026939 -40.82421875 163.37890625 C-31.90112156 151.63208469 -21.25747295 141.39144784 -8.82421875 133.37890625 C-8.16421875 133.37890625 -7.50421875 133.37890625 -6.82421875 133.37890625 C-11.80467438 113.94190683 -19.07756236 98.74095717 -30.8671875 82.578125 C-33.14558931 79.35805593 -34.68413992 77.09330828 -35.44921875 73.19140625 C-34.64502798 69.5725478 -33.11118988 67.27125209 -30.82421875 64.37890625 C-27.35025666 62.64192521 -23.62935711 62.82418264 -19.9390564 63.95822144 C-17.92212798 64.78502298 -15.95863176 65.68445696 -13.9921875 66.625 C-13.274366 66.955569 -12.55654449 67.286138 -11.81697083 67.62672424 C-9.54258842 68.67762697 -7.27728185 69.74664403 -5.01171875 70.81640625 C-3.47126414 71.53180821 -1.93025308 72.24601329 -0.38867188 72.95898438 C9.55159022 77.56681074 9.55159022 77.56681074 13.17578125 79.37890625 C13.62404375 54.21758721 11.72332845 34.3686098 -4.15234375 13.95703125 C-5.87923754 11.29406419 -6.58279469 9.52791577 -6.82421875 6.37890625 C-3.89612386 0.52271648 -3.89612386 0.52271648 0 0 Z " fill="#FED15B" transform="translate(75.82421875,0.62109375)"/>
<path d="M0 0 C6.70887714 3.54159609 11.4916373 11.10660752 16 17 C16.48774902 17.63454102 16.97549805 18.26908203 17.47802734 18.92285156 C47.63644056 58.5004759 67.77559618 108.43230511 68.23828125 158.6171875 C68.2480751 159.50405746 68.25786896 160.39092743 68.26795959 161.30467224 C68.91238208 234.84061671 43.82291195 297.9898672 -7.5 350.6875 C-12.37035288 355.49708199 -17.64956139 359.74102034 -23 364 C-23.79019531 364.65742188 -24.58039063 365.31484375 -25.39453125 365.9921875 C-53.7386394 389.40075443 -88.88053037 406.07213368 -124.84008789 413.46240234 C-131.88936346 414.93700015 -136.64259317 417.50039424 -142.06958008 422.07226562 C-160.82648238 437.7496765 -186.31661352 441.64233725 -210 440 C-228.05105337 437.7849193 -246.46140114 430.28888204 -260 418 C-260.99 416.515 -260.99 416.515 -262 415 C-261.40832031 414.12859375 -260.81664062 413.2571875 -260.20703125 412.359375 C-242.46531333 385.79935505 -239.02756774 353.11063583 -245 322 C-248.50970118 306.8290336 -254.22208807 290.84018009 -266 280 C-260.98599018 268.47032259 -245.08412692 261.10177149 -234.125 256.1875 C-210.03732714 246.99908969 -184.34345965 247.18381958 -160.625 257.3125 C-136.29333054 268.33039261 -118.24524554 287.18283055 -108.6875 312.125 C-108.44475342 312.75776855 -108.20200684 313.39053711 -107.9519043 314.04248047 C-104.42220749 323.77380587 -103.69732692 333.02424031 -103.79418945 343.35205078 C-103.81265729 345.3923777 -103.81469702 347.43225369 -103.81445312 349.47265625 C-103.86299109 360.31280203 -103.86299109 360.31280203 -105 364 C-78.70690013 352.99440907 -55.65386663 338.71505451 -35 319 C-34.14664063 318.19949219 -33.29328125 317.39898437 -32.4140625 316.57421875 C-25.52113214 309.93134737 -19.73568667 302.63229817 -14 295 C-13.5771875 294.44860352 -13.154375 293.89720703 -12.71875 293.32910156 C9.18115468 264.70524178 22.02859623 229.67670242 26 194 C26.0928125 193.23373291 26.185625 192.46746582 26.28125 191.67797852 C32.32607477 138.17588215 15.62669784 83.87634164 -17.6171875 41.8671875 C-20.6150322 38.25994486 -23.70610456 34.75607857 -26.89453125 31.31640625 C-29.35293804 28.61170267 -31.67499723 25.82002954 -34 23 C-31.2497945 20.20010351 -28.49287017 17.40701326 -25.72973633 14.61987305 C-24.33255206 13.20776623 -22.94064824 11.79044107 -21.54882812 10.37304688 C-20.66259766 9.48037109 -19.77636719 8.58769531 -18.86328125 7.66796875 C-18.05157471 6.84578857 -17.23986816 6.0236084 -16.40356445 5.17651367 C-11.26146488 0.52015839 -6.86989877 -1.40250528 0 0 Z " fill="#FED05B" transform="translate(444,71)"/>
<path d="M0 0 C19.11771533 13.99765906 29.31093748 34.97439703 33 58 C37.05536058 89.28469543 33.58456192 120.7765286 14.15234375 146.4375 C3.39245436 159.24782203 -11.34308232 167.80235488 -28 170 C-38.17433703 170.61754682 -47.29043143 170.00952037 -57.15429688 167.43847656 C-66.36915603 165.05891039 -73.14997662 165.80905858 -82.2578125 168.265625 C-98.73034728 172.67707306 -115.49629715 169.38641697 -130.203125 161.29296875 C-148.4497874 150.61233177 -159.58916859 133.19575697 -164.875 113.0625 C-170.49260427 91.15963011 -170.43843813 64.76557019 -164 43 C-163.80744629 42.3311377 -163.61489258 41.66227539 -163.41650391 40.97314453 C-161.08570638 33.12008988 -158.01889089 26.45939261 -153 20 C-152.34128906 19.11699219 -151.68257812 18.23398437 -151.00390625 17.32421875 C-140.82552789 4.20662952 -126.52801954 -6.49509773 -110 -10 C-106.03762361 -10.29798062 -102.09719313 -10.32474474 -98.125 -10.3125 C-96.56845703 -10.33666992 -96.56845703 -10.33666992 -94.98046875 -10.36132812 C-88.43715629 -10.36545379 -83.04795992 -9.53003451 -77 -7 C-75.62459604 0.41115724 -74.72773644 7.65055036 -74.44140625 15.1875 C-73.94434005 18.3546475 -73.2987477 19.77979721 -71 22 C-69.06574514 22.62723208 -69.06574514 22.62723208 -67 22.5 C-66.319375 22.5103125 -65.63875 22.520625 -64.9375 22.53125 C-62.86303154 22.12401234 -62.86303154 22.12401234 -61.265625 20.37890625 C-59.59566241 17.23999508 -59.67080086 14.98166146 -59.75 11.4375 C-59.77578125 10.20644531 -59.8015625 8.97539062 -59.828125 7.70703125 C-60.05636435 2.78432335 -60.44047584 -2.10416356 -61 -7 C-39.60406107 -14.06886478 -19.20564999 -12.20481746 0 0 Z " fill="#F69594" transform="translate(168,341)"/>
<path d="M0 0 C6.70887714 3.54159609 11.4916373 11.10660752 16 17 C16.48774902 17.63454102 16.97549805 18.26908203 17.47802734 18.92285156 C47.63644056 58.5004759 67.77559618 108.43230511 68.23828125 158.6171875 C68.25297203 159.94749245 68.25297203 159.94749245 68.26795959 161.30467224 C68.91238208 234.84061671 43.82291195 297.9898672 -7.5 350.6875 C-12.37035288 355.49708199 -17.64956139 359.74102034 -23 364 C-23.79019531 364.65742188 -24.58039063 365.31484375 -25.39453125 365.9921875 C-54.8481713 390.31708426 -93.17103859 408.9321881 -131 415 C-131.99 414.67 -132.98 414.34 -134 414 C-133.52691406 413.57332031 -133.05382812 413.14664062 -132.56640625 412.70703125 C-120.75121822 401.53672678 -111.81495209 386.97037692 -108.5 371 C-107.3194131 366.9445111 -106.59878316 365.41392393 -103.08984375 362.98828125 C-99.89711846 361.41610255 -96.58019933 360.17635721 -93.25488281 358.91601562 C-89.13563796 357.24262815 -85.23581678 355.14653027 -81.3125 353.0625 C-80.09494019 352.41825073 -80.09494019 352.41825073 -78.8527832 351.76098633 C-62.58131053 343.03934476 -48.30658188 331.70173725 -35 319 C-34.14664063 318.19949219 -33.29328125 317.39898437 -32.4140625 316.57421875 C-25.52113214 309.93134737 -19.73568667 302.63229817 -14 295 C-13.5771875 294.44860352 -13.154375 293.89720703 -12.71875 293.32910156 C9.18115468 264.70524178 22.02859623 229.67670242 26 194 C26.0928125 193.23373291 26.185625 192.46746582 26.28125 191.67797852 C32.32607477 138.17588215 15.62669784 83.87634164 -17.6171875 41.8671875 C-20.6150322 38.25994486 -23.70610456 34.75607857 -26.89453125 31.31640625 C-29.35293804 28.61170267 -31.67499723 25.82002954 -34 23 C-31.2497945 20.20010351 -28.49287017 17.40701326 -25.72973633 14.61987305 C-24.33255206 13.20776623 -22.94064824 11.79044107 -21.54882812 10.37304688 C-20.66259766 9.48037109 -19.77636719 8.58769531 -18.86328125 7.66796875 C-18.05157471 6.84578857 -17.23986816 6.0236084 -16.40356445 5.17651367 C-11.26146488 0.52015839 -6.86989877 -1.40250528 0 0 Z " fill="#80D261" transform="translate(444,71)"/>
<path d="M0 0 C5.80005883 0.09314395 10.84893436 3.00697878 15.98828125 5.44140625 C17.01759766 5.90740234 18.04691406 6.37339844 19.10742188 6.85351562 C25.99881512 10.05729427 32.09984126 13.82582353 38.17578125 18.37890625 C38.821521 18.84965576 39.46726074 19.32040527 40.13256836 19.80541992 C48.82259327 26.29155832 54.44796112 36.90075774 58.203125 46.8203125 C59.06887389 49.09768408 60.04491009 51.22365852 61.17578125 53.37890625 C61.38332031 52.651875 61.59085937 51.92484375 61.8046875 51.17578125 C66.959381 34.35293216 76.40752783 20.87050988 92.00732422 12.38232422 C96.05267558 10.2572409 100.14991869 8.25029921 104.27636719 6.28808594 C105.99458323 5.46563908 107.69936521 4.61526974 109.40234375 3.76171875 C114.52094278 1.26587294 118.4537959 -0.57475797 124.17578125 0.37890625 C126.11328125 1.37890625 126.11328125 1.37890625 127.17578125 3.37890625 C127.79475108 9.83387738 126.69716905 13.0338239 122.55078125 18.06640625 C110.64776887 33.57651963 107.95475331 49.33421982 108.11328125 68.50390625 C108.12004883 70.08171875 108.12004883 70.08171875 108.12695312 71.69140625 C108.13860114 74.25396846 108.15495572 76.81640502 108.17578125 79.37890625 C109.55914673 78.70516968 109.55914673 78.70516968 110.97045898 78.01782227 C114.42488319 76.3398827 117.88773017 74.67998681 121.35327148 73.02514648 C122.84615366 72.30926618 124.33677285 71.58864519 125.82495117 70.86303711 C127.97633786 69.81511057 130.13554598 68.7850472 132.296875 67.7578125 C132.95038437 67.4348671 133.60389374 67.11192169 134.27720642 66.77919006 C139.09874825 64.51726074 143.81734317 63.33555807 149.17578125 63.37890625 C152.19469413 64.59931784 153.59560452 65.57770982 155.48828125 68.19140625 C156.59190206 71.702927 156.99711537 74.76614902 155.27075195 78.15600586 C153.96654663 80.13567314 152.59149787 82.03991131 151.17578125 83.94140625 C150.15941787 85.3683405 149.14511472 86.7967443 148.1328125 88.2265625 C147.62959473 88.93055176 147.12637695 89.63454102 146.60791016 90.35986328 C137.39250222 103.35192323 131.90151593 116.95305739 128.17578125 132.37890625 C124.17653076 130.85110269 120.39038522 129.01891086 116.55078125 127.12890625 C110.6626466 124.3234485 104.70114904 122.04804312 98.48828125 120.06640625 C97.74175293 119.82438477 96.99522461 119.58236328 96.22607422 119.33300781 C84.9009206 115.84721059 73.79695777 115.01633258 61.98828125 115.06640625 C61.30668945 115.06822906 60.62509766 115.07005188 59.92285156 115.07192993 C38.73187592 115.16724213 20.40434136 119.7791739 1.63671875 129.609375 C-1.15538182 131.03693883 -3.89094066 132.28314144 -6.82421875 133.37890625 C-7.11554688 132.24195313 -7.406875 131.105 -7.70703125 129.93359375 C-12.47655342 111.75399598 -19.86288004 97.66433618 -30.8671875 82.578125 C-33.14558931 79.35805593 -34.68413992 77.09330828 -35.44921875 73.19140625 C-34.64502798 69.5725478 -33.11118988 67.27125209 -30.82421875 64.37890625 C-27.35025666 62.64192521 -23.62935711 62.82418264 -19.9390564 63.95822144 C-17.92212798 64.78502298 -15.95863176 65.68445696 -13.9921875 66.625 C-12.91545525 67.1208535 -12.91545525 67.1208535 -11.81697083 67.62672424 C-9.54258842 68.67762697 -7.27728185 69.74664403 -5.01171875 70.81640625 C-3.47126414 71.53180821 -1.93025308 72.24601329 -0.38867188 72.95898438 C9.55159022 77.56681074 9.55159022 77.56681074 13.17578125 79.37890625 C13.62404375 54.21758721 11.72332845 34.3686098 -4.15234375 13.95703125 C-5.87923754 11.29406419 -6.58279469 9.52791577 -6.82421875 6.37890625 C-3.89612386 0.52271648 -3.89612386 0.52271648 0 0 Z " fill="#97DA7A" transform="translate(75.82421875,0.62109375)"/>
<path d="M0 0 C2.12467923 1.12005407 3.26662136 2.30348608 4.79382706 4.16269302 C5.39710831 4.88843521 6.00038956 5.6141774 6.62195206 6.36191177 C7.31804581 7.20366959 8.01413956 8.0454274 8.73132706 8.91269302 C9.57179581 9.86788834 10.41226456 10.82308365 11.27820206 11.80722427 C36.67744759 40.73161581 52.42162556 77.13335532 58.73132706 114.91269302 C58.84992081 115.59944107 58.96851456 116.28618912 59.09070206 116.99374771 C67.70057621 168.78111576 52.89174864 224.6222023 22.75061417 267.10019302 C16.20397854 276.11931957 9.09108678 284.3902649 1.27869034 292.33017349 C-0.09366084 293.73370462 -1.43551524 295.16691197 -2.77257919 296.60409927 C-10.13718276 304.3674631 -18.60372844 310.6853044 -27.26867294 316.91269302 C-27.93753525 317.3938356 -28.60639755 317.87497818 -29.29552841 318.37070084 C-59.73661268 339.91269302 -59.73661268 339.91269302 -72.26867294 339.91269302 C-73.02268202 335.10410685 -73.3995008 330.3946605 -71.26867294 325.91269302 C-66.83551009 321.32106261 -60.94202537 318.34965356 -55.44884872 315.20419693 C-48.11484669 310.85964253 -41.84091476 304.73280286 -35.59289169 298.99081802 C-33.99649493 297.5634515 -32.351813 296.18885623 -30.67101669 294.86191177 C-27.05894627 291.93114244 -24.27162166 288.44924699 -21.26867294 284.91269302 C-20.45269638 283.99616959 -19.63671982 283.07964615 -18.79601669 282.13534927 C-0.43600581 261.35087541 13.30355283 236.29226002 21.73132706 209.91269302 C22.11546768 208.74351334 22.49960831 207.57433365 22.89538956 206.36972427 C28.41282468 188.40647176 30.95191386 170.02007544 30.91882706 151.28769302 C30.91755814 150.55349136 30.91628922 149.8192897 30.91498184 149.06283951 C30.80126457 114.48151217 24.3707167 81.49334119 7.76111221 50.81601334 C6.70564424 48.86522426 5.67783406 46.90122783 4.64929581 44.93613052 C-0.72855176 34.85724765 -7.21791238 25.88421916 -14.26867294 16.91269302 C-18.12870513 18.50062236 -20.56647783 20.96410796 -23.49517441 23.89868546 C-24.26596702 24.6669148 -24.26596702 24.6669148 -25.05233121 25.45066392 C-26.77213693 27.16717667 -28.48469904 28.89073755 -30.19738388 30.61435318 C-31.42905572 31.84658917 -32.66116814 33.07838491 -33.8936882 34.30977249 C-37.23874708 37.65425702 -40.57759917 41.00487677 -43.91538525 44.35661745 C-47.40451324 47.85823911 -50.89929731 51.35420629 -54.39348984 54.85077286 C-61.00953275 61.47303455 -67.62046044 68.10037846 -74.22957349 74.72955549 C-81.75399519 82.2763238 -89.28408963 89.81742095 -96.81467009 97.35804296 C-112.30566595 112.86994982 -127.78951059 128.3889782 -143.26867294 143.91269302 C-143.26867294 140.22890418 -142.08771349 139.36733971 -139.59691215 136.83037782 C-139.05101691 136.28981051 -138.50512168 135.74924321 -137.94268417 135.19229507 C-137.36972555 134.61324535 -136.79676693 134.03419563 -136.20644593 133.43759894 C-134.27436237 131.48879503 -132.3316415 129.55095328 -130.38879013 127.61288834 C-129.00552351 126.22228671 -127.6228832 124.83106185 -126.24082565 123.43925858 C-122.47726878 119.65341879 -118.70405512 115.87734471 -114.92839718 112.10357761 C-111.78197308 108.95727289 -108.63989556 105.80664493 -105.49770761 102.65611053 C-98.0877664 95.22691133 -90.6696498 87.80594378 -83.24670029 80.3897438 C-75.57738166 72.72707024 -67.92294686 65.04975318 -60.27551341 57.3652432 C-53.71885128 50.77794355 -47.15262219 44.20028842 -40.5786736 37.6302402 C-36.64813292 33.70177293 -32.72151075 29.76957414 -28.80421829 25.8278923 C-25.12172062 22.12322806 -21.42748918 18.43069002 -17.7237072 14.74730873 C-16.36323476 13.39026408 -15.0070543 12.02890153 -13.65542793 10.66304588 C-11.81575673 8.8053442 -9.96151356 6.96356898 -8.10259628 5.1251564 C-7.56562394 4.57566621 -7.0286516 4.02617602 -6.47540736 3.46003461 C-2.82038466 -0.1085389 -2.82038466 -0.1085389 0 0 Z " fill="#E84544" transform="translate(411.26867294311523,95.08730697631836)"/>
<path d="M0 0 C0.99 0.495 0.99 0.495 2 1 C-1.63 4.63 -5.26 8.26 -9 12 C-7.35 13.32 -5.7 14.64 -4 16 C33.22299636 57.8758709 49.20898985 116.94440088 49.25 171.8125 C49.25067474 172.6288089 49.25134949 173.4451178 49.25204468 174.28616333 C49.23447386 187.72389857 48.52641192 200.7711502 46 214 C45.83371094 214.89074219 45.66742188 215.78148437 45.49609375 216.69921875 C34.48640969 273.86802264 1.87105461 329.71578431 -45 365 C-45.84594727 365.64461182 -45.84594727 365.64461182 -46.70898438 366.30224609 C-55.17098355 372.7341748 -63.81562767 378.63083951 -73 384 C-73.88196045 384.52907959 -73.88196045 384.52907959 -74.78173828 385.06884766 C-83.06034232 390.02988264 -91.51716465 394.28554802 -100.375 398.125 C-101.29732422 398.52775146 -102.21964844 398.93050293 -103.16992188 399.34545898 C-104.02908203 399.70841064 -104.88824219 400.0713623 -105.7734375 400.4453125 C-106.54091309 400.77031738 -107.30838867 401.09532227 -108.09912109 401.43017578 C-110 402 -110 402 -112 401 C-111.34644531 400.03513672 -111.34644531 400.03513672 -110.6796875 399.05078125 C-104.65056266 389.90269356 -99.78746128 380.90370132 -97.5625 370.125 C-96.35821851 366.03729658 -95.62193482 364.43101917 -92.0859375 361.98046875 C-88.89401791 360.413373 -85.57751172 359.17533857 -82.25488281 357.91601562 C-78.13563796 356.24262815 -74.23581678 354.14653027 -70.3125 352.0625 C-69.09494019 351.41825073 -69.09494019 351.41825073 -67.8527832 350.76098633 C-51.58131053 342.03934476 -37.30658188 330.70173725 -24 318 C-23.14664063 317.19949219 -22.29328125 316.39898437 -21.4140625 315.57421875 C-14.52113214 308.93134737 -8.73568667 301.63229817 -3 294 C-2.5771875 293.44860352 -2.154375 292.89720703 -1.71875 292.32910156 C20.18115468 263.70524178 33.02859623 228.67670242 37 193 C37.0928125 192.23373291 37.185625 191.46746582 37.28125 190.67797852 C43.32607477 137.17588215 26.62669784 82.87634164 -6.6171875 40.8671875 C-9.6150322 37.25994486 -12.70610456 33.75607857 -15.89453125 30.31640625 C-18.35293804 27.61170267 -20.67499723 24.82002954 -23 22 C-20.20985205 19.18509306 -17.41639976 16.37351173 -14.61987305 13.56494141 C-13.20251 12.14008931 -11.78776361 10.71263587 -10.37304688 9.28515625 C-9.48037109 8.38925781 -8.58769531 7.49335937 -7.66796875 6.5703125 C-6.84578857 5.74289551 -6.0236084 4.91547852 -5.17651367 4.06298828 C-3 2 -3 2 0 0 Z " fill="#97D97A" transform="translate(433,72)"/>
<path d="M0 0 C30.73916894 -0.96349414 56.28351793 5.0521249 79.50927734 26.52099609 C89.60418504 36.53654651 97.24741128 48.90699786 102.3125 62.125 C102.55524658 62.75776855 102.79799316 63.39053711 103.0480957 64.04248047 C111.32876559 86.8721731 108.89429366 113.88698456 98.9140625 135.67578125 C94.6824271 144.37795744 89.46095144 151.78105984 83 159 C82.46246094 159.6909375 81.92492187 160.381875 81.37109375 161.09375 C68.00807818 177.97334862 44.73177125 187.26675303 24 190 C19.93153586 190.21210003 15.88491616 190.19291714 11.8125 190.125 C10.76513672 190.11597656 9.71777344 190.10695313 8.63867188 190.09765625 C6.09219486 190.07440075 3.54622969 190.04172569 1 190 C0.67 189.34 0.34 188.68 0 188 C0.81339844 187.86464844 1.62679687 187.72929687 2.46484375 187.58984375 C22.24397814 183.87430332 38.60604898 175.15642707 53 161 C54.14082031 159.87851562 54.14082031 159.87851562 55.3046875 158.734375 C72.46188965 140.80539559 80.45105452 116.47217012 80.21484375 91.90625 C79.00335787 69.87923404 71.21559935 49.86704822 57 33 C56.23816406 32.03835938 55.47632813 31.07671875 54.69140625 30.0859375 C41.63100396 14.46933337 19.75298389 4.39626403 0 1 C0 0.67 0 0.34 0 0 Z " fill="#FEC244" transform="translate(233,321)"/>
<path d="M0 0 C31.92716604 -0.62703166 31.92716604 -0.62703166 44 3 C44.77150391 3.22042969 45.54300781 3.44085938 46.33789062 3.66796875 C65.60900391 9.24140473 82.99024031 17.56337428 98 31 C98.55381348 31.49338867 99.10762695 31.98677734 99.67822266 32.49511719 C108.66280474 40.64398474 115.62630765 49.70997347 122 60 C122.36432129 60.57347168 122.72864258 61.14694336 123.10400391 61.73779297 C133.5617566 78.46725282 139.68112519 99.64376507 143 119 C143.1326123 119.76030518 143.26522461 120.52061035 143.40185547 121.30395508 C142.78526734 125.44063956 140.02438758 127.610784 137.12890625 130.39453125 C136.53198471 130.98674973 135.93506317 131.5789682 135.3200531 132.18913269 C133.4122679 134.07557818 131.48752963 135.94367211 129.5625 137.8125 C128.26909763 139.08939704 126.97676625 140.3673799 125.68554688 141.64648438 C116.19526651 151 116.19526651 151 115 151 C114.91548584 150.20231201 114.83097168 149.40462402 114.74389648 148.58276367 C112.56825095 128.65430654 108.99348537 109.83653158 103.27880859 90.56835938 C102.76323831 88.73503625 102.36813875 86.8685182 102 85 C103.875 82.375 103.875 82.375 106 80 C106.43945488 76.86103655 106.5413337 74.98116734 105 72.1875 C102.83585129 70.68387033 102.83585129 70.68387033 99.15234375 70.88671875 C96.64648419 70.59758111 95.41831535 70.43366013 93.64892578 68.59936523 C92.48498259 66.65289731 91.5099142 64.6855092 90.5625 62.625 C86.78474395 55.18391511 82.53199733 49.28191445 77 43 C76.14259035 41.91923153 75.28781671 40.83635781 74.4375 39.75 C57.27419275 20.38626875 32.88186022 8.55793032 8 3 C6.41551561 2.60879966 4.83202323 2.21353736 3.25 1.8125 C2.1775 1.544375 1.105 1.27625 0 1 C0 0.67 0 0.34 0 0 Z " fill="#FEC344" transform="translate(124,115)"/>
<path d="M0 0 C20.05343368 0.90534689 35.26754777 10.43824006 48.6875 24.8125 C67.75760033 47.56200793 69.76885662 79.14204958 67.7265625 107.51953125 C65.32987664 130.19760598 56.33136049 151.85935701 38.6953125 166.93359375 C29.81334063 173.74310552 18.56423063 180.52469286 7 180 C7.72703125 179.28457031 8.4540625 178.56914062 9.203125 177.83203125 C33.64796102 153.07992774 42.38184898 121.60592363 42.38500977 87.46899414 C42.2110349 59.94224422 34.51252767 32.66006405 15.3046875 12.22265625 C11.77114648 8.81488534 7.97727051 5.86698085 4 3 C2.66528482 2.00184512 1.33153586 1.00239216 0 0 Z " fill="#F47C7C" transform="translate(134,330)"/>
<path d="M0 0 C13.54142787 4.03735164 23.57868803 19.15505193 30.140625 30.890625 C37.65455826 44.90068211 44.11741403 65.50493233 41.109375 81.62890625 C38.20042229 86.26664446 38.20042229 86.26664446 35.109375 87.29296875 C34.119375 87.27363281 34.119375 87.27363281 33.109375 87.25390625 C32.449375 87.26679688 31.789375 87.2796875 31.109375 87.29296875 C27.81289137 86.19843317 26.86054162 84.60777248 25.109375 81.62890625 C24.4169052 78.29252862 24.23577063 74.96382917 24.046875 71.56640625 C22.47537473 51.4981081 16.10262537 32.94375877 0.484375 19.31640625 C-1.19190901 17.93684378 -2.87581104 16.63917465 -4.66015625 15.40234375 C-7.84757816 13.08829038 -8.82261887 12.01654121 -9.515625 8.06640625 C-8.890625 4.62890625 -8.890625 4.62890625 -7.328125 2.19140625 C-4.819567 0.58335625 -3.01108933 -0.1994525 0 0 Z " fill="#99D97A" transform="translate(67.890625,277.37109375)"/>
<path d="M0 0 C2.75312858 2.88742754 3.82304762 4.79741101 4.40234375 8.734375 C3.84017155 13.29724843 1.70045491 15.93543138 -1 19.5625 C-2.01636338 20.98943425 -3.03066653 22.41783805 -4.04296875 23.84765625 C-4.79779541 24.90364014 -4.79779541 24.90364014 -5.56787109 25.98095703 C-14.78327903 38.97301698 -20.27426532 52.57415114 -24 68 C-28.01303508 66.443154 -31.9092928 64.68861143 -35.8125 62.875 C-36.97394531 62.33617187 -38.13539063 61.79734375 -39.33203125 61.2421875 C-40.21246094 60.83226562 -41.09289062 60.42234375 -42 60 C-39.48904375 46.30387498 -33.31364448 35.17251581 -25.10546875 24.0703125 C-24.60354004 23.37711914 -24.10161133 22.68392578 -23.58447266 21.96972656 C-22.59381943 20.60626736 -21.58509976 19.25569505 -20.55615234 17.92089844 C-16.93709722 12.92080479 -16.35747631 9.10794123 -17 3 C-11.33849585 -0.44829919 -6.53781427 -2.42759705 0 0 Z " fill="#81D261" transform="translate(228,65)"/>
<path d="M0 0 C1.70784205 3.21476152 1.59739401 6.4838288 1.0625 10 C-0.40515664 12.51473974 -1.74197171 14.47787586 -3.5625 16.6875 C-15.63356597 32.41659409 -17.78381141 48.29964883 -18.5 67.625 C-18.54318359 68.72457031 -18.58636719 69.82414062 -18.63085938 70.95703125 C-18.73576406 73.63792882 -18.83792726 76.31890001 -18.9375 79 C-28.24621178 69.9590515 -34.87145261 58.31165867 -35.25 45.0625 C-35.07181814 31.68104252 -28.80593134 21.53935403 -21.0625 11.125 C-18.74288269 8.25514152 -18.74288269 8.25514152 -18.6875 5.3125 C-17.9375 3 -17.9375 3 -16.1328125 1.8046875 C-10.97950883 -0.67653278 -5.46029174 -2.81821509 0 0 Z " fill="#80D261" transform="translate(201.9375,2)"/>
<path d="M0 0 C2.44748361 1.75567289 4.41414349 3.84112366 6.4375 6.0625 C6.97826172 6.63033203 7.51902344 7.19816406 8.07617188 7.78320312 C9.39826737 9.17549838 10.70115676 10.5859884 12 12 C12.99 11.154375 13.98 10.30875 15 9.4375 C15.639375 8.89867187 16.27875 8.35984375 16.9375 7.8046875 C18.33242359 6.58412936 19.68679392 5.31588887 21 4.0078125 C26.1032522 -0.95589765 26.1032522 -0.95589765 30.8125 -1.1875 C34.28521152 0.10625527 35.46334109 0.65550708 37 4 C37.625 6.75 37.625 6.75 37 10 C35.01979101 13.00399051 32.5292607 15.45387756 30 18 C28.98939537 19.03627506 27.97899183 20.07274625 26.96875 21.109375 C18.66592025 29.55605316 18.66592025 29.55605316 15 32 C6.70898431 31.72201171 3.09055981 27.05311727 -2.4375 21.4375 C-3.35982422 20.55513672 -4.28214844 19.67277344 -5.23242188 18.76367188 C-12.59030022 11.39490104 -12.59030022 11.39490104 -12.7265625 6.5078125 C-12 3 -12 3 -9.9375 0.4375 C-6.01988706 -1.47962974 -4.20437786 -1.0952581 0 0 Z " fill="#FFEECF" transform="translate(89,234)"/>
<path d="M0 0 C4.32169362 1.15966734 7.09376633 4.50882542 10.18359375 7.5859375 C11.33863974 8.57878554 12.50402813 9.55984868 13.68359375 10.5234375 C14.50859375 11.2040625 15.33359375 11.8846875 16.18359375 12.5859375 C16.95445312 11.80347656 17.7253125 11.02101562 18.51953125 10.21484375 C19.53241948 9.19257693 20.54544759 8.17044869 21.55859375 7.1484375 C22.06648438 6.63216797 22.574375 6.11589844 23.09765625 5.58398438 C27.94951659 0.7002039 27.94951659 0.7002039 32.55859375 0.2734375 C36.18359375 0.5859375 36.18359375 0.5859375 38.62109375 2.2109375 C40.18359375 4.5859375 40.18359375 4.5859375 40.87109375 7.3359375 C39.80110084 12.39408579 36.74706086 14.97015195 33.18359375 18.5859375 C32.14437164 19.7069801 31.10672531 20.82948468 30.0703125 21.953125 C28.94299295 23.14473227 27.81407683 24.33483106 26.68359375 25.5234375 C26.15032471 26.10359619 25.61705566 26.68375488 25.06762695 27.28149414 C22.20336197 30.21992897 20.55259032 31.4813493 16.50390625 32.62890625 C12.9164175 32.58247992 12.03010374 32.43244749 9.55859375 29.9609375 C8.90503906 29.32542969 8.25148437 28.68992188 7.578125 28.03515625 C6.78792969 27.22691406 5.99773437 26.41867188 5.18359375 25.5859375 C4.0643439 24.48640113 2.94309781 23.38889466 1.8203125 22.29296875 C-8.69693271 11.95988324 -8.69693271 11.95988324 -9.06640625 7.7109375 C-8.81640625 4.5859375 -8.81640625 4.5859375 -7.81640625 2.2109375 C-5.29847588 0.16511907 -3.21683156 -0.15346352 0 0 Z " fill="#FFEED0" transform="translate(120.81640625,184.4140625)"/>
<path d="M0 0 C2.58269204 1.64043516 4.48378953 3.71633303 6.5 6 C7.03625 6.57234375 7.5725 7.1446875 8.125 7.734375 C9.43571388 9.1387113 10.72060273 10.56707505 12 12 C15.88713331 10.44871286 17.9900631 7.9601524 20.75 4.875 C26.23162756 -0.71981751 26.23162756 -0.71981751 30.375 -0.875 C34.31801389 0.07676197 35.83850681 0.57763578 38 4 C38.6875 6.75 38.6875 6.75 38 10 C36.02916857 13.0113753 33.52997497 15.45364978 31 18 C29.9035393 19.12229176 28.80719376 20.24469604 27.7109375 21.3671875 C17.40843804 31.83305946 17.40843804 31.83305946 13.19873047 32.33203125 C7.52957745 31.7435678 4.42319141 27.38479174 0.57519531 23.46728516 C-0.86818604 22.00689426 -2.34486538 20.58770231 -3.828125 19.16796875 C-11.6263427 11.35882918 -11.6263427 11.35882918 -11.6953125 6.4375 C-11 3 -11 3 -10 1 C-6.73914583 -0.63042709 -3.51185178 -0.67908736 0 0 Z " fill="#FFEED0" transform="translate(193,185)"/>
<path d="M0 0 C2.60524833 1.87743767 4.70760568 4.14136501 6.875 6.5 C7.46796875 7.12003906 8.0609375 7.74007812 8.671875 8.37890625 C10.12855211 9.90606773 11.56620705 11.45133343 13 13 C17.63810105 11.20775955 20.52061188 7.40862236 23.66992188 3.72460938 C25.05078125 2.23828125 25.05078125 2.23828125 28 0 C31.95721942 0.07103773 34.18362145 0.46935394 37.5 2.625 C39 5 39 5 38.86010742 8.33447266 C37.88501562 12.49002995 36.7248498 14.03535462 33.73828125 17.0234375 C32.86623047 17.89871094 31.99417969 18.77398437 31.09570312 19.67578125 C30.17724609 20.56652344 29.25878906 21.45726562 28.3125 22.375 C27.41337891 23.28894531 26.51425781 24.20289063 25.58789062 25.14453125 C18.01738901 32.62060988 18.01738901 32.62060988 12 33 C10.15625 32.05859375 10.15625 32.05859375 8.5 30.4375 C7.50806641 29.47650391 7.50806641 29.47650391 6.49609375 28.49609375 C5.67238281 27.67238281 4.84867188 26.84867187 4 26 C2.80542005 24.88453582 1.60862511 23.77144109 0.41015625 22.66015625 C-0.87387791 21.44166406 -2.15641947 20.22159716 -3.4375 19 C-4.06527344 18.41919678 -4.69304687 17.83839355 -5.33984375 17.23999023 C-8.425379 14.2259264 -9.86184361 12.4991289 -11.0390625 8.24609375 C-11 5 -11 5 -8.9375 2.0625 C-5.40058258 -0.42086755 -4.23555444 -0.69828034 0 0 Z " fill="#FFEED0" transform="translate(157,233)"/>
<path d="M0 0 C5.75347011 0.17705274 10.82149778 3.08608777 15.92578125 5.50390625 C16.95509766 5.96990234 17.98441406 6.43589844 19.04492188 6.91601562 C25.93631512 10.11979427 32.03734126 13.88832353 38.11328125 18.44140625 C38.759021 18.91215576 39.40476074 19.38290527 40.07006836 19.86791992 C51.7887542 28.61461732 58.50123904 44.12536923 60.94921875 58.06640625 C61.11434306 60.45677719 60.83815439 62.17223816 60.11328125 64.44140625 C59.7471875 63.58160156 59.38109375 62.72179688 59.00390625 61.8359375 C54.49231451 51.98562887 48.74659299 45.05366057 41.11328125 37.44140625 C40.22189453 36.46107422 40.22189453 36.46107422 39.3125 35.4609375 C27.35576945 22.45374483 10.14277281 13.24576185 -5.88671875 6.44140625 C-5.07900209 2.40282296 -4.35473146 0.6658791 0 0 Z " fill="#81D262" transform="translate(75.88671875,0.55859375)"/>
<path d="M0 0 C3.76039861 2.5279509 6.81950592 5.78348091 10 9 C10.65226562 9.63035156 11.30453125 10.26070313 11.9765625 10.91015625 C14.85142122 13.90082681 15.90929743 15.51350439 16.6875 19.6875 C16 23 16 23 13.875 25.4375 C10.35134664 27.352529 8.9701725 27.64685219 5 27 C2.06477308 24.96453714 -0.33667754 22.50027818 -2.8125 19.9375 C-3.8324707 18.95233398 -3.8324707 18.95233398 -4.87304688 17.94726562 C-8.07569185 14.70630386 -9.81821623 12.64282958 -11.078125 8.1875 C-11 5 -11 5 -8.9375 2.0625 C-5.46119057 -0.37831301 -4.15781078 -0.50869595 0 0 Z " fill="#955B50" transform="translate(359,326)"/>
<path d="M0 0 C4.30950642 0.94448918 8.06541657 2.36510009 12.08203125 4.15234375 C12.7884375 4.44818359 13.49484375 4.74402344 14.22265625 5.04882812 C18.00235098 6.70602383 20.88189052 7.99979831 22.83203125 11.83984375 C22.76683184 15.55621001 22.63093249 17.88730766 20.20703125 20.77734375 C16.4171828 22.47280227 12.76499824 22.49981858 8.81201172 21.15014648 C6.6904931 20.20213217 4.63835892 19.17171764 2.58203125 18.08984375 C1.875625 17.74179687 1.16921875 17.39375 0.44140625 17.03515625 C-3.25943192 15.14268219 -6.08601053 13.59202964 -8.16796875 9.83984375 C-8.66796875 7.40234375 -8.66796875 7.40234375 -8.16796875 4.83984375 C-5.61987697 1.28795824 -4.48256909 -0.2266157 0 0 Z " fill="#955B50" transform="translate(385.16796875,283.16015625)"/>
<path d="M0 0 C0.98935547 -0.02835938 1.97871094 -0.05671875 2.99804688 -0.0859375 C7.81245632 -0.09888816 10.26368005 -0.09391818 14.21484375 2.84375 C16.0625 5.5 16.0625 5.5 16.6875 8.5 C16.0625 11.5 16.0625 11.5 14.375 14.375 C9.15997626 17.72048693 4.08628938 16.9134672 -1.9375 16.5 C-3.27748047 16.44972656 -3.27748047 16.44972656 -4.64453125 16.3984375 C-8.19781316 16.17451592 -10.43082981 15.80894524 -13.5 13.9375 C-15.70968328 10.19064574 -15.48639399 7.82254018 -14.9375 3.5 C-10.65656461 -0.78032669 -5.68894369 -0.01476689 0 0 Z " fill="#955B50" transform="translate(403.9375,232.5)"/>
<path d="M0 0 C2.4375 1.5625 2.4375 1.5625 4 4 C4.5 7.5 4.5 7.5 4 11 C0.96894655 14.94112161 -2.71238245 16.30021072 -7.3125 17.75 C-7.95123047 17.97042969 -8.58996094 18.19085938 -9.24804688 18.41796875 C-13.60918697 19.84075204 -17.42883824 20.34340008 -22 20 C-24.4375 18.4375 -24.4375 18.4375 -26 16 C-26.5 12.5 -26.5 12.5 -26 9 C-22.96894655 5.05887839 -19.28761755 3.69978928 -14.6875 2.25 C-14.04876953 2.02957031 -13.41003906 1.80914062 -12.75195312 1.58203125 C-8.39081303 0.15924796 -4.57116176 -0.34340008 0 0 Z " fill="#945B50" transform="translate(407,176)"/>
<path d="M0 0 C2.01692842 0.82680154 3.98042463 1.72623552 5.9468689 2.66677856 C6.6646904 2.99734756 7.3825119 3.32791656 8.12208557 3.66850281 C10.39646797 4.71940553 12.66177454 5.7884226 14.92733765 6.85818481 C16.46779226 7.57358677 18.00880332 8.28779185 19.55038452 9.00076294 C29.49064662 13.6085893 29.49064662 13.6085893 33.11483765 15.42068481 C33.11483765 16.08068481 33.11483765 16.74068481 33.11483765 17.42068481 C26.46812213 20.74404257 17.69397207 17.59855465 11.11483765 15.42068481 C6.8146384 13.66955723 2.62128954 11.7235784 -1.57266235 9.73318481 C-2.66772095 9.22207153 -3.76277954 8.71095825 -4.89102173 8.18435669 C-7.55947972 6.93752261 -10.22395809 5.68290722 -12.88516235 4.42068481 C-10.27978579 -1.3483633 -6.09693204 -1.87360272 0 0 Z " fill="#81D362" transform="translate(55.885162353515625,64.57931518554688)"/>
<path d="M0 0 C0.99 0.33 1.98 0.66 3 1 C0.83656815 3.1907786 -1.33061964 5.37762406 -3.5 7.5625 C-4.10070312 8.17158203 -4.70140625 8.78066406 -5.3203125 9.40820312 C-5.92617188 10.01728516 -6.53203125 10.62636719 -7.15625 11.25390625 C-7.70087891 11.80377197 -8.24550781 12.3536377 -8.80664062 12.92016602 C-10.62404766 14.64350646 -12.47458054 16.25825607 -14.38037109 17.88037109 C-20.21814283 22.98224252 -25.63748429 28.50583165 -31.10742188 33.99389648 C-32.31034202 35.19709917 -33.51348333 36.40008078 -34.71682739 37.6028595 C-37.96229404 40.84804077 -41.20468137 44.09628265 -44.44650078 47.34510684 C-47.8426187 50.74750175 -51.24159347 54.1470403 -54.64025879 57.54689026 C-61.06645886 63.97619088 -67.49010687 70.408035 -73.91282892 76.84080988 C-81.22890704 84.16808888 -88.54784546 91.492508 -95.8670187 98.81669509 C-110.91451772 113.87462958 -125.95844332 128.93612979 -141 144 C-141 140.30979782 -139.81204438 139.45523362 -137.30959082 136.92234689 C-136.48665525 136.11251911 -136.48665525 136.11251911 -135.64709473 135.28633118 C-134.7834234 134.41881494 -134.7834234 134.41881494 -133.90230417 133.53377312 C-131.96082013 131.58732669 -130.00876761 129.65183248 -128.05664062 127.71606445 C-126.66685165 126.32712122 -125.277722 124.937518 -123.88920593 123.54730225 C-120.10882619 119.76605905 -116.31924438 115.99415964 -112.52799797 112.22381616 C-108.57082246 108.28534924 -104.62209773 104.33842856 -100.67248535 100.39237976 C-93.18799849 92.91723049 -85.69589467 85.44976366 -78.2010541 77.98499697 C-69.67053484 69.48796841 -61.14849645 60.98245593 -52.62717533 52.47620451 C-35.09423325 34.97465029 -17.5506173 17.48382813 0 0 Z " fill="#F53030" transform="translate(409,95)"/>
<path d="M0 0 C2.4375 1 2.4375 1 4 3 C4.56153595 7.42209561 4.79893062 9.72171101 2.4375 13.5 C-0.97532932 15.60020266 -3.06688873 15.63210717 -7 15 C-9.5 12.9375 -9.5 12.9375 -11 10 C-10.93977486 6.50694211 -10.63658168 4.09633511 -8.875 1.0625 C-5.85228899 -0.65036957 -3.39414695 -0.35727863 0 0 Z " fill="#FFEDCD" transform="translate(266,354)"/>
<path d="M0 0 C0.66 0.33 1.32 0.66 2 1 C1.2059375 1.77085938 0.411875 2.54171875 -0.40625 3.3359375 C-1.43776041 4.34869317 -2.46899627 5.36172852 -3.5 6.375 C-4.02464844 6.88289063 -4.54929687 7.39078125 -5.08984375 7.9140625 C-6.43153181 9.23832604 -7.71995815 10.61605865 -9 12 C-9 12.66 -9 13.32 -9 14 C-10.0209375 14.2784375 -10.0209375 14.2784375 -11.0625 14.5625 C-15.18689821 16.58082253 -17.90378945 19.66287393 -21 23 C-21.66 22.67 -22.32 22.34 -23 22 C-20.20985205 19.18509306 -17.41639976 16.37351173 -14.61987305 13.56494141 C-13.20251 12.14008931 -11.78776361 10.71263587 -10.37304688 9.28515625 C-9.48037109 8.38925781 -8.58769531 7.49335937 -7.66796875 6.5703125 C-6.84578857 5.74289551 -6.0236084 4.91547852 -5.17651367 4.06298828 C-3 2 -3 2 0 0 Z " fill="#98E345" transform="translate(433,72)"/>
<path d="M0 0 C0.66 0.66 1.32 1.32 2 2 C-0.97 2 -3.94 2 -7 2 C-7.33 1.34 -7.66 0.68 -8 0 C-4.71303767 -0.79953138 -3.28976808 -1.09658936 0 0 Z " fill="#FFCA4E" transform="translate(241,509)"/>
</svg>
