<?xml version="1.0" encoding="UTF-8"?>
<svg version="1.1" xmlns="http://www.w3.org/2000/svg" width="512" height="512">
<path d="M0 0 C3.95821881 1.31940627 6.58821722 2.21861702 10 4.1875 C12.61753872 5.50120811 13.88981114 5.99760459 16.875 6.0625 C19.81057226 5.06440543 22.27073177 3.82925188 25 2.375 C27.96866296 0.85532729 29.6432215 0.01486577 33 -0.125 C35.83034898 0.93638087 38.33267842 2.21195464 41 3.625 C43.96866296 5.14467271 45.6432215 5.98513423 49 6.125 C51.83034898 5.06361913 54.33267842 3.78804536 57 2.375 C59.96866296 0.85532729 61.6432215 0.01486577 65 -0.125 C67.83034898 0.93638087 70.33267842 2.21195464 73 3.625 C75.96866296 5.14467271 77.6432215 5.98513423 81 6.125 C83.83034898 5.06361913 86.33267842 3.78804536 89 2.375 C91.96866296 0.85532729 93.6432215 0.01486577 97 -0.125 C99.83034898 0.93638087 102.33267842 2.21195464 105 3.625 C107.96866296 5.14467271 109.6432215 5.98513423 113 6.125 C115.83034898 5.06361913 118.33267842 3.78804536 121 2.375 C123.96866296 0.85532729 125.6432215 0.01486577 129 -0.125 C131.83034898 0.93638087 134.33267842 2.21195464 137 3.625 C139.96866296 5.14467271 141.6432215 5.98513423 145 6.125 C147.83034898 5.06361913 150.33267842 3.78804536 153 2.375 C155.96866296 0.85532729 157.6432215 0.01486577 161 -0.125 C163.83034898 0.93638087 166.33267842 2.21195464 169 3.625 C171.96866296 5.14467271 173.6432215 5.98513423 177 6.125 C179.83034898 5.06361913 182.33267842 3.78804536 185 2.375 C187.96866296 0.85532729 189.6432215 0.01486577 193 -0.125 C195.83034898 0.93638087 198.33267842 2.21195464 201 3.625 C203.96866296 5.14467271 205.6432215 5.98513423 209 6.125 C211.83034898 5.06361913 214.33267842 3.78804536 217 2.375 C219.96866296 0.85532729 221.6432215 0.01486577 225 -0.125 C227.83034898 0.93638087 230.33267842 2.21195464 233 3.625 C235.96866296 5.14467271 237.6432215 5.98513423 241 6.125 C244.76577886 4.71283293 248.28328244 2.95454742 251.828125 1.05859375 C254 0 254 0 256 0 C257.21928675 54.59418633 257.21928675 54.59418633 252.13427734 78.26660156 C248.39155008 96.03510472 250.16427623 113.51571828 251.6529541 131.48822021 C253.2614238 150.98617132 254.69913879 170.43244981 255 190 C255.02835937 191.31097656 255.05671875 192.62195313 255.0859375 193.97265625 C255.12741208 197.65145115 255.07761425 201.32240543 255 205 C254.98743164 205.8672168 254.97486328 206.73443359 254.96191406 207.62792969 C254.64584519 227.16614654 253.09649789 246.56361067 251.37207031 266.02075195 C249.78017997 284.29553524 249.35884923 301.16181291 252.56512451 319.24713135 C257.22113858 346.04420766 256.6061251 372.89663284 256 400 C252.4440286 398.8454599 249.23772687 397.68093822 246 395.8125 C243.38246128 394.49879189 242.11018886 394.00239541 239.125 393.9375 C236.18942774 394.93559457 233.72926823 396.17074812 231 397.625 C228.03133704 399.14467271 226.3567785 399.98513423 223 400.125 C220.16965102 399.06361913 217.66732158 397.78804536 215 396.375 C212.03133704 394.85532729 210.3567785 394.01486577 207 393.875 C204.16965102 394.93638087 201.66732158 396.21195464 199 397.625 C196.03133704 399.14467271 194.3567785 399.98513423 191 400.125 C188.16965102 399.06361913 185.66732158 397.78804536 183 396.375 C180.03133704 394.85532729 178.3567785 394.01486577 175 393.875 C172.16965102 394.93638087 169.66732158 396.21195464 167 397.625 C164.03133704 399.14467271 162.3567785 399.98513423 159 400.125 C156.16965102 399.06361913 153.66732158 397.78804536 151 396.375 C147.72995351 394.66632706 146.37849628 393.98598162 142.625 394.125 C141.75875 394.41375 140.8925 394.7025 140 395 C138.68 395.33 137.36 395.66 136 396 C136 418.44 136 440.88 136 464 C131.52953588 462.50984529 128.76434162 461.40928075 124.93904114 459.02410889 C107.14553246 448.58437228 92.18683384 447.00707316 71.88900352 447.18790531 C68.64756798 447.20865741 65.40688844 447.18737223 62.16549236 447.16679454 C54.48612223 447.11846839 46.80886969 447.13458326 39.12963867 447.1953125 C32.18636541 447.24938432 25.24744633 447.23546203 18.30444336 447.15429688 C-33.96086653 445.54152098 -33.96086653 445.54152098 -82.47990417 462.65081787 C-85 464 -85 464 -88 464 C-88 447.17 -88 430.34 -88 413 C-90.97 414.485 -90.97 414.485 -94 416 C-98.3134582 416 -101.28382133 414.36660474 -105 412.375 C-107.96866296 410.85532729 -109.6432215 410.01486577 -113 409.875 C-115.83034898 410.93638087 -118.33267842 412.21195464 -121 413.625 C-123.96866296 415.14467271 -125.6432215 415.98513423 -129 416.125 C-131.83034898 415.06361913 -134.33267842 413.78804536 -137 412.375 C-139.96866296 410.85532729 -141.6432215 410.01486577 -145 409.875 C-147.83034898 410.93638087 -150.33267842 412.21195464 -153 413.625 C-155.96866296 415.14467271 -157.6432215 415.98513423 -161 416.125 C-163.83034898 415.06361913 -166.33267842 413.78804536 -169 412.375 C-171.96866296 410.85532729 -173.6432215 410.01486577 -177 409.875 C-180.76577886 411.28716707 -184.28328244 413.04545258 -187.828125 414.94140625 C-190 416 -190 416 -192 416 C-192.17779217 410.24656725 -192.30220467 404.49484964 -192.38452148 398.73925781 C-192.41895707 396.79626537 -192.46610535 394.85344202 -192.52807617 392.91113281 C-192.84536872 382.68311411 -192.65768008 373.34335718 -189.49712563 363.54586792 C-182.7419636 341.89583592 -183.97284062 319.28558743 -184.05972147 296.85093689 C-184.07770792 290.73556485 -184.06093601 284.62025853 -184.05001831 278.50488281 C-184.03735861 268.2440042 -184.0538661 257.98348069 -184.08740234 247.72265625 C-184.1254836 235.93670304 -184.11313837 224.15159814 -184.07461751 212.36566544 C-184.04263433 202.16340105 -184.03847416 191.96138886 -184.05668819 181.75909042 C-184.06748318 175.70208632 -184.06938913 169.64547808 -184.04593277 163.58850098 C-183.70348332 130.11906164 -183.70348332 130.11906164 -190.43467712 97.54779053 C-193.43223925 88.06799165 -192.75096501 78.07471995 -192.4375 68.25 C-192.40219355 66.25786994 -192.37029 64.26567666 -192.34179688 62.2734375 C-192.26663615 57.51398219 -192.14702379 52.75775452 -192 48 C-188.4440286 49.1545401 -185.23772687 50.31906178 -182 52.1875 C-179.38246128 53.50120811 -178.11018886 53.99760459 -175.125 54.0625 C-172.18942774 53.06440543 -169.72926823 51.82925188 -167 50.375 C-164.03133704 48.85532729 -162.3567785 48.01486577 -159 47.875 C-156.16965102 48.93638087 -153.66732158 50.21195464 -151 51.625 C-148.03133704 53.14467271 -146.3567785 53.98513423 -143 54.125 C-140.16965102 53.06361913 -137.66732158 51.78804536 -135 50.375 C-132.03133704 48.85532729 -130.3567785 48.01486577 -127 47.875 C-124.16965102 48.93638087 -121.66732158 50.21195464 -119 51.625 C-116.03133704 53.14467271 -114.3567785 53.98513423 -111 54.125 C-108.16965102 53.06361913 -105.66732158 51.78804536 -103 50.375 C-100.03133704 48.85532729 -98.3567785 48.01486577 -95 47.875 C-92.16965102 48.93638087 -89.66732158 50.21195464 -87 51.625 C-84.03133704 53.14467271 -82.3567785 53.98513423 -79 54.125 C-76.16965102 53.06361913 -73.66732158 51.78804536 -71 50.375 C-68.03133704 48.85532729 -66.3567785 48.01486577 -63 47.875 C-60.16965102 48.93638087 -57.66732158 50.21195464 -55 51.625 C-52.03133704 53.14467271 -50.3567785 53.98513423 -47 54.125 C-44.16965102 53.06361913 -41.66732158 51.78804536 -39 50.375 C-36.03133704 48.85532729 -34.3567785 48.01486577 -31 47.875 C-28.16965102 48.93638087 -25.66732158 50.21195464 -23 51.625 C-20.03133704 53.14467271 -18.3567785 53.98513423 -15 54.125 C-11.23422114 52.71283293 -7.71671756 50.95454742 -4.171875 49.05859375 C-2 48 -2 48 0 48 C0 32.16 0 16.32 0 0 Z " fill="#FAB440" transform="translate(216,24)"/>
<path d="M0 0 C3.95821881 1.31940627 6.58821722 2.21861702 10 4.1875 C12.61753872 5.50120811 13.88981114 5.99760459 16.875 6.0625 C19.81057226 5.06440543 22.27073177 3.82925188 25 2.375 C27.96866296 0.85532729 29.6432215 0.01486577 33 -0.125 C35.83034898 0.93638087 38.33267842 2.21195464 41 3.625 C43.96866296 5.14467271 45.6432215 5.98513423 49 6.125 C51.83034898 5.06361913 54.33267842 3.78804536 57 2.375 C59.96866296 0.85532729 61.6432215 0.01486577 65 -0.125 C67.83034898 0.93638087 70.33267842 2.21195464 73 3.625 C75.96866296 5.14467271 77.6432215 5.98513423 81 6.125 C83.83034898 5.06361913 86.33267842 3.78804536 89 2.375 C91.96866296 0.85532729 93.6432215 0.01486577 97 -0.125 C99.83034898 0.93638087 102.33267842 2.21195464 105 3.625 C107.96866296 5.14467271 109.6432215 5.98513423 113 6.125 C115.83034898 5.06361913 118.33267842 3.78804536 121 2.375 C123.96866296 0.85532729 125.6432215 0.01486577 129 -0.125 C131.83034898 0.93638087 134.33267842 2.21195464 137 3.625 C139.96866296 5.14467271 141.6432215 5.98513423 145 6.125 C147.83034898 5.06361913 150.33267842 3.78804536 153 2.375 C155.96866296 0.85532729 157.6432215 0.01486577 161 -0.125 C163.83034898 0.93638087 166.33267842 2.21195464 169 3.625 C171.96866296 5.14467271 173.6432215 5.98513423 177 6.125 C179.83034898 5.06361913 182.33267842 3.78804536 185 2.375 C187.96866296 0.85532729 189.6432215 0.01486577 193 -0.125 C195.83034898 0.93638087 198.33267842 2.21195464 201 3.625 C203.96866296 5.14467271 205.6432215 5.98513423 209 6.125 C211.83034898 5.06361913 214.33267842 3.78804536 217 2.375 C219.96866296 0.85532729 221.6432215 0.01486577 225 -0.125 C227.83034898 0.93638087 230.33267842 2.21195464 233 3.625 C235.96866296 5.14467271 237.6432215 5.98513423 241 6.125 C244.76577886 4.71283293 248.28328244 2.95454742 251.828125 1.05859375 C254 0 254 0 256 0 C257.21928675 54.59418633 257.21928675 54.59418633 252.13427734 78.26660156 C248.39155008 96.03510472 250.16427623 113.51571828 251.6529541 131.48822021 C253.2614238 150.98617132 254.69913879 170.43244981 255 190 C255.02835938 191.31097656 255.05671875 192.62195313 255.0859375 193.97265625 C255.12741208 197.65145115 255.07761425 201.32240543 255 205 C254.98743164 205.8672168 254.97486328 206.73443359 254.96191406 207.62792969 C254.64584519 227.16614654 253.09649789 246.56361067 251.37207031 266.02075195 C249.78017997 284.29553524 249.35884923 301.16181291 252.56512451 319.24713135 C257.22113858 346.04420766 256.6061251 372.89663284 256 400 C252.4440286 398.8454599 249.23772687 397.68093822 246 395.8125 C243.38246128 394.49879189 242.11018886 394.00239541 239.125 393.9375 C236.18942774 394.93559457 233.72926823 396.17074812 231 397.625 C228.03133704 399.14467271 226.3567785 399.98513423 223 400.125 C220.16965102 399.06361913 217.66732158 397.78804536 215 396.375 C212.03133704 394.85532729 210.3567785 394.01486577 207 393.875 C204.16965102 394.93638087 201.66732158 396.21195464 199 397.625 C196.03133704 399.14467271 194.3567785 399.98513423 191 400.125 C188.16965102 399.06361913 185.66732158 397.78804536 183 396.375 C180.03133704 394.85532729 178.3567785 394.01486577 175 393.875 C172.16965102 394.93638087 169.66732158 396.21195464 167 397.625 C164.03133704 399.14467271 162.3567785 399.98513423 159 400.125 C156.16965102 399.06361913 153.66732158 397.78804536 151 396.375 C147.72995351 394.66632706 146.37849628 393.98598162 142.625 394.125 C141.75875 394.41375 140.8925 394.7025 140 395 C138.68 395.33 137.36 395.66 136 396 C135.67 371.25 135.34 346.5 135 321 C120.15 328.425 120.15 328.425 105 336 C95.72729035 336.99521068 87.74127977 337.49448143 78.625 336.9375 C76.40127709 336.8618687 74.17729525 336.79349861 71.953125 336.73242188 C66.62952806 336.57104169 61.31608807 336.32356713 56 336 C55.83575771 308.19039872 55.71268813 280.38087118 55.6373148 252.57088089 C55.60137198 239.65532369 55.55245592 226.74006956 55.47192383 213.82470703 C55.40168511 202.55467877 55.35688242 191.28487022 55.34138054 180.01462913 C55.33233309 174.05879459 55.3113957 168.10358807 55.2598896 162.14795685 C54.88258728 116.81574761 54.88258728 116.81574761 61.42602539 96.52429199 C64.34195686 87.343099 63.75761973 77.76903206 63.4375 68.25 C63.40218212 66.35422724 63.37028077 64.45838775 63.34179688 62.5625 C63.26675028 58.03992727 63.1472196 53.52077425 63 49 C62.05898438 49.52851562 61.11796875 50.05703125 60.1484375 50.6015625 C58.89119176 51.27709753 57.63334698 51.95151852 56.375 52.625 C55.75753906 52.975625 55.14007813 53.32625 54.50390625 53.6875 C51.16066005 55.44710326 49.44266849 56.09442721 45.69921875 55.29589844 C43.07155152 54.03435198 40.53151072 52.69425932 38 51.25 C34.19912539 49.2888645 34.19912539 49.2888645 30 49.375 C28.20138097 50.34925197 26.40783483 51.33309291 24.625 52.3359375 C17.68744478 56.07313242 17.68744478 56.07313242 14.0625 55.6875 C13.051875 55.130625 12.04125 54.57375 11 54 C7.37 52.02 3.74 50.04 0 48 C0 32.16 0 16.32 0 0 Z " fill="#4594CB" transform="translate(216,24)"/>
<path d="M0 0 C16.3122404 6.11709015 16.3122404 6.11709015 23.80627537 9.65732574 C39.27087981 16.60764226 54.83158029 16.43088955 71.44119382 16.40651894 C74.75262428 16.40615361 78.063678 16.4320935 81.37500042 16.45685148 C89.21128785 16.51409693 97.0466177 16.52337743 104.88305664 16.50292969 C112.87405526 16.48305617 120.86088262 16.5514898 128.85103661 16.66287088 C135.7948227 16.75602741 142.73729219 16.78892971 149.68168777 16.77736044 C153.79272082 16.77126248 157.90050691 16.78587915 162.0109272 16.86103821 C184.83233201 17.24677226 201.06555598 13.18487196 220.70081997 1.34868622 C223 0 223 0 224 0 C224 47.52 224 95.04 224 144 C219.52953588 142.50984529 216.76434162 141.40928075 212.93904114 139.02410889 C195.14553246 128.58437228 180.18683384 127.00707316 159.88900352 127.18790531 C156.64756798 127.20865741 153.40688844 127.18737223 150.16549236 127.16679454 C142.48612223 127.11846839 134.80886969 127.13458326 127.12963867 127.1953125 C120.18636541 127.24938432 113.24744633 127.23546203 106.30444336 127.15429688 C54.03913347 125.54152098 54.03913347 125.54152098 5.52009583 142.65081787 C3 144 3 144 0 144 C0 96.48 0 48.96 0 0 Z " fill="#DC4D40" transform="translate(128,344)"/>
<path d="M0 0 C3.53236491 2.71246171 6.74595647 5.73706753 9.9140625 8.86328125 C12.52329167 10.94627933 13.92949736 11.50119999 17.23828125 11.71875 C27.81222355 10.21476401 37.66176334 5.70629739 46.94311523 0.62036133 C48.43016212 -0.19364388 48.43016212 -0.19364388 49.94725037 -1.02409363 C50.70329056 -1.43895523 51.45933075 -1.85381683 52.23828125 -2.28125 C52.30804684 6.16861305 52.36122644 14.61835408 52.39371777 23.06843472 C52.40931851 26.9929115 52.43045332 30.91719002 52.46459961 34.84155273 C52.49739425 38.63466887 52.51517623 42.4275953 52.52291298 46.22084236 C52.52842067 47.66200811 52.53917513 49.10316445 52.55547142 50.54424858 C52.76265756 69.63958239 52.76265756 69.63958239 45.98828125 77.03125 C45.446875 77.64613281 44.90546875 78.26101563 44.34765625 78.89453125 C38.71103216 83.76916727 34.38464705 85.11441381 27.17578125 85.40625 C21.73887532 85.81885437 21.73887532 85.81885437 17.1484375 88.55859375 C15.70182725 90.83390342 15.70182725 90.83390342 14.4921875 93.28515625 C8.33684992 105.23149678 -6.39146209 111.94538273 -18.60595703 115.97070312 C-34.50035067 120.59089545 -50.96678489 118.43190308 -65.57421875 110.90625 C-74.83304845 105.47024603 -81.81659187 98.87886362 -88.76171875 90.71875 C-100.11038818 92.7615105 -110.10540865 98.60436035 -118.7734375 106.01953125 C-120.76171875 107.71875 -120.76171875 107.71875 -123.76171875 109.71875 C-123.83143639 100.22582187 -123.88464003 90.73298279 -123.91715527 81.23985386 C-123.93276626 76.83111547 -123.9539204 72.42255312 -123.98803711 68.01391602 C-124.02079437 63.75396447 -124.03860606 59.49418154 -124.04635048 55.23411369 C-124.05186476 53.61432176 -124.0626324 51.99453834 -124.07890892 50.3748188 C-124.18999287 38.85538191 -124.00396889 29.28200858 -115.66015625 20.4453125 C-109.72005749 15.04300046 -103.98833444 13.67409175 -96.09057617 13.73388672 C-89.21269353 13.70390807 -89.21269353 13.70390807 -83.1015625 10.8984375 C-81.65410632 9.3485298 -80.24891639 7.75816196 -78.88671875 6.1328125 C-59.53920996 -15.84652653 -22.8981218 -14.86993748 0 0 Z " fill="#EA9D2D" transform="translate(187.76171875,194.28125)"/>
<path d="M0 0 C3.95821881 1.31940627 6.58821722 2.21861702 10 4.1875 C12.61753872 5.50120811 13.88981114 5.99760459 16.875 6.0625 C19.81057226 5.06440543 22.27073177 3.82925188 25 2.375 C27.96866296 0.85532729 29.6432215 0.01486577 33 -0.125 C35.83034898 0.93638087 38.33267842 2.21195464 41 3.625 C43.96866296 5.14467271 45.6432215 5.98513423 49 6.125 C51.83034898 5.06361913 54.33267842 3.78804536 57 2.375 C59.96866296 0.85532729 61.6432215 0.01486577 65 -0.125 C67.83034898 0.93638087 70.33267842 2.21195464 73 3.625 C75.96866296 5.14467271 77.6432215 5.98513423 81 6.125 C83.83034898 5.06361913 86.33267842 3.78804536 89 2.375 C91.96866296 0.85532729 93.6432215 0.01486577 97 -0.125 C99.83034898 0.93638087 102.33267842 2.21195464 105 3.625 C107.96866296 5.14467271 109.6432215 5.98513423 113 6.125 C115.83034898 5.06361913 118.33267842 3.78804536 121 2.375 C123.96866296 0.85532729 125.6432215 0.01486577 129 -0.125 C131.83034898 0.93638087 134.33267842 2.21195464 137 3.625 C139.96866296 5.14467271 141.6432215 5.98513423 145 6.125 C147.83034898 5.06361913 150.33267842 3.78804536 153 2.375 C155.96866296 0.85532729 157.6432215 0.01486577 161 -0.125 C163.83034898 0.93638087 166.33267842 2.21195464 169 3.625 C171.96866296 5.14467271 173.6432215 5.98513423 177 6.125 C179.83034898 5.06361913 182.33267842 3.78804536 185 2.375 C187.96866296 0.85532729 189.6432215 0.01486577 193 -0.125 C195.83034898 0.93638087 198.33267842 2.21195464 201 3.625 C203.96866296 5.14467271 205.6432215 5.98513423 209 6.125 C211.83034898 5.06361913 214.33267842 3.78804536 217 2.375 C219.96866296 0.85532729 221.6432215 0.01486577 225 -0.125 C227.83034898 0.93638087 230.33267842 2.21195464 233 3.625 C235.96866296 5.14467271 237.6432215 5.98513423 241 6.125 C244.76577886 4.71283293 248.28328244 2.95454742 251.828125 1.05859375 C254 0 254 0 256 0 C256 15.84 256 31.68 256 48 C247.34015869 47.99045288 247.34015869 47.99045288 238.50537109 47.98071289 C219.41455358 47.96475904 200.32391945 47.98685132 181.23314476 48.02846622 C169.66023087 48.05276727 158.08757831 48.06414123 146.51464844 48.04467773 C136.42316083 48.02773899 126.3320389 48.03546803 116.24059927 48.07234758 C110.90120377 48.09101165 105.56242617 48.09764268 100.22303391 48.07469368 C95.18794328 48.05344336 90.15397926 48.06540239 85.11898613 48.10184479 C83.28011136 48.10948092 81.44114104 48.10541885 79.60233116 48.08818626 C68.82210372 47.99497311 61.2078959 48.87612882 51.96970558 54.69522762 C49 56 49 56 45.77463341 55.29243565 C43.10661905 54.04966359 40.55588856 52.70816719 38 51.25 C34.19912539 49.2888645 34.19912539 49.2888645 30 49.375 C28.20138097 50.34925197 26.40783483 51.33309291 24.625 52.3359375 C17.68744478 56.07313242 17.68744478 56.07313242 14.0625 55.6875 C13.051875 55.130625 12.04125 54.57375 11 54 C7.37 52.02 3.74 50.04 0 48 C0 32.16 0 16.32 0 0 Z " fill="#6BBAE5" transform="translate(216,24)"/>
<path d="M0 0 C3.95821881 1.31940627 6.58821722 2.21861702 10 4.1875 C12.61753872 5.50120811 13.88981114 5.99760459 16.875 6.0625 C19.81057226 5.06440543 22.27073177 3.82925188 25 2.375 C27.96866296 0.85532729 29.6432215 0.01486577 33 -0.125 C35.83034898 0.93638087 38.33267842 2.21195464 41 3.625 C43.96866296 5.14467271 45.6432215 5.98513423 49 6.125 C51.83034898 5.06361913 54.33267842 3.78804536 57 2.375 C59.96866296 0.85532729 61.6432215 0.01486577 65 -0.125 C67.83034898 0.93638087 70.33267842 2.21195464 73 3.625 C75.96866296 5.14467271 77.6432215 5.98513423 81 6.125 C83.83034898 5.06361913 86.33267842 3.78804536 89 2.375 C91.96866296 0.85532729 93.6432215 0.01486577 97 -0.125 C99.83034898 0.93638087 102.33267842 2.21195464 105 3.625 C107.96866296 5.14467271 109.6432215 5.98513423 113 6.125 C115.83034898 5.06361913 118.33267842 3.78804536 121 2.375 C123.96866296 0.85532729 125.6432215 0.01486577 129 -0.125 C131.83034898 0.93638087 134.33267842 2.21195464 137 3.625 C139.96866296 5.14467271 141.6432215 5.98513423 145 6.125 C147.83034898 5.06361913 150.33267842 3.78804536 153 2.375 C155.96866296 0.85532729 157.6432215 0.01486577 161 -0.125 C163.83034898 0.93638087 166.33267842 2.21195464 169 3.625 C171.96866296 5.14467271 173.6432215 5.98513423 177 6.125 C180.70827252 4.73439781 184.09911779 2.92593896 187.53515625 0.9609375 C190.60332924 -0.23521235 191.89116429 -0.0283801 195 1 C198.04342617 2.55243408 200.99894913 4.22262512 203.96484375 5.91796875 C207.83775256 7.29865825 209.31573168 6.69250675 213 5 C214.68032126 4.10861006 216.34784714 3.19257439 218 2.25 C222.57819905 -0.05272512 222.57819905 -0.05272512 226 0.375 C227.79861903 1.34925197 229.59216517 2.33309291 231.375 3.3359375 C236.37775933 6.2501155 236.37775933 6.2501155 241.9375 6.625 C243.4534375 5.820625 243.4534375 5.820625 245 5 C248.63 3.35 252.26 1.7 256 0 C256 13.2 256 26.4 256 40 C171.52 40 87.04 40 0 40 C0 26.8 0 13.6 0 0 Z " fill="#E99D2D" transform="translate(24,72)"/>
<path d="M0 0 C9.95733471 7.08558166 16.85347709 16.85519932 19 29 C19 31.31 19 33.62 19 36 C32.2 36 45.4 36 59 36 C57.6520594 49.47940602 54.38468864 58.96564239 44 68 C35.26134447 74.06921032 25.65973057 77.18818653 15 76 C12.97109372 75.5115596 10.95025394 74.98873161 8.9375 74.4375 C2.66151702 72.74689213 -1.64633946 72.78510644 -7.8359375 75.02734375 C-15.62155005 77.42069872 -24.20413501 76.87186426 -31.58984375 73.44921875 C-41.56207054 67.45295272 -48.02275532 58.82303308 -52 48 C-54.29440384 36.29854043 -53.79719891 23.1670778 -47 13 C-35.22875333 -2.11455933 -18.26398902 -10.05332333 0 0 Z " fill="#A35E15" transform="translate(341,188)"/>
<path d="M0 0 C5.28 0 10.56 0 16 0 C16 7.92 16 15.84 16 24 C21.28 24 26.56 24 32 24 C32 16.08 32 8.16 32 0 C37.28 0 42.56 0 48 0 C48 7.92 48 15.84 48 24 C53.28 24 58.56 24 64 24 C64 16.08 64 8.16 64 0 C69.28 0 74.56 0 80 0 C80 7.92 80 15.84 80 24 C85.28 24 90.56 24 96 24 C96 16.08 96 8.16 96 0 C103.92 0 111.84 0 120 0 C120 15.84 120 31.68 120 48 C116.04178119 46.68059373 113.41178278 45.78138298 110 43.8125 C107.38246128 42.49879189 106.11018886 42.00239541 103.125 41.9375 C100.18942774 42.93559457 97.72926823 44.17074812 95 45.625 C92.03133704 47.14467271 90.3567785 47.98513423 87 48.125 C84.16965102 47.06361913 81.66732158 45.78804536 79 44.375 C76.03133704 42.85532729 74.3567785 42.01486577 71 41.875 C68.16965102 42.93638087 65.66732158 44.21195464 63 45.625 C60.03133704 47.14467271 58.3567785 47.98513423 55 48.125 C52.16965102 47.06361913 49.66732158 45.78804536 47 44.375 C44.03133704 42.85532729 42.3567785 42.01486577 39 41.875 C36.16965102 42.93638087 33.66732158 44.21195464 31 45.625 C28.03133704 47.14467271 26.3567785 47.98513423 23 48.125 C20.16965102 47.06361913 17.66732158 45.78804536 15 44.375 C11.72995351 42.66632706 10.37849628 41.98598162 6.625 42.125 C5.75875 42.41375 4.8925 42.7025 4 43 C2.02 43.495 2.02 43.495 0 44 C0 29.48 0 14.96 0 0 Z " fill="#6BBAE5" transform="translate(352,376)"/>
<path d="M0 0 C34.32 0 68.64 0 104 0 C104 12.21 104 24.42 104 37 C96.95238095 40.52380952 96.95238095 40.52380952 92 39 C90.32518497 38.14069948 88.65914386 37.26418189 87 36.375 C84.03133704 34.85532729 82.3567785 34.01486577 79 33.875 C76.16965102 34.93638087 73.66732158 36.21195464 71 37.625 C68.03133704 39.14467271 66.3567785 39.98513423 63 40.125 C60.16965102 39.06361913 57.66732158 37.78804536 55 36.375 C52.03133704 34.85532729 50.3567785 34.01486577 47 33.875 C44.16965102 34.93638087 41.66732158 36.21195464 39 37.625 C36.03133704 39.14467271 34.3567785 39.98513423 31 40.125 C28.16965102 39.06361913 25.66732158 37.78804536 23 36.375 C20.03133704 34.85532729 18.3567785 34.01486577 15 33.875 C11.23422114 35.28716707 7.71671756 37.04545258 4.171875 38.94140625 C2 40 2 40 0 40 C0 26.8 0 13.6 0 0 Z " fill="#EA9D2D" transform="translate(24,400)"/>
<path d="M0 0 C6.90093623 4.98208294 12.81694485 12.04566174 14.51953125 20.55859375 C15.42812484 30.96612031 13.43862832 39.97371951 7.30859375 48.51953125 C1.17741853 55.50746458 -7.1567065 58.83408916 -16.2421875 59.875 C-26.32092117 60.31076115 -34.10902721 56.23644232 -41.48046875 49.55859375 C-47.67162593 43.15838451 -49.55267329 34.62762581 -49.91796875 25.93359375 C-49.63483804 17.27964203 -45.39089228 9.75605772 -39.48046875 3.55859375 C-27.92221681 -5.80006267 -13.20184933 -7.67162583 0 0 Z " fill="#FC9126" transform="translate(257.48046875,388.44140625)"/>
<path d="M0 0 C26.4 0 52.8 0 80 0 C78.6520594 13.47940602 75.38468864 22.96564239 65 32 C55.21677183 38.79469161 44.86891124 41.43008189 33.1171875 39.53515625 C21.43917875 37.01139221 13.09535967 31.624724 6 22 C1.61602257 15.18917791 0 8.0377011 0 0 Z " fill="#E99C2D" transform="translate(320,224)"/>
<path d="M0 0 C2.08749077 0.00560732 4.17498553 0.00987204 6.26248169 0.01286316 C11.71058384 0.02422255 17.15843942 0.05361137 22.60644531 0.0869751 C28.18421088 0.11786978 33.76201696 0.13140964 39.33984375 0.14648438 C50.2501073 0.17849098 61.16018926 0.22957736 72.0703125 0.29296875 C64.40932041 16.10149456 50.11908567 24.81706813 34.0703125 30.66796875 C18.34548155 35.16077759 1.65426525 32.89742576 -12.7421875 25.48046875 C-21.82689327 20.14669567 -29.45952516 13.65982171 -35.9296875 5.29296875 C-35.9296875 4.63296875 -35.9296875 3.97296875 -35.9296875 3.29296875 C-23.90246381 -0.09733116 -12.394002 -0.09871601 0 0 Z " fill="#6C9776" transform="translate(134.9296875,279.70703125)"/>
<path d="M0 0 C11.13082933 8.4686899 11.13082933 8.4686899 13.25390625 12.71484375 C9.82688644 14.42835366 5.89290822 13.84343358 2.12255859 13.82836914 C1.1761702 13.82851517 0.2297818 13.82866119 -0.74528503 13.82881165 C-3.8835985 13.82811317 -7.02185312 13.82032377 -10.16015625 13.8125 C-12.33206144 13.81063559 -14.50396704 13.8092118 -16.6758728 13.80821228 C-22.40023962 13.80438891 -28.12458117 13.79456014 -33.84893799 13.7835083 C-39.68704893 13.77329032 -45.52516395 13.76871383 -51.36328125 13.76367188 C-62.82422986 13.75293773 -74.28515971 13.73586345 -85.74609375 13.71484375 C-84.79585316 12.5932091 -83.84375037 11.47315193 -82.89086914 10.35375977 C-82.36086807 9.72985855 -81.830867 9.10595734 -81.2848053 8.46315002 C-74.57445974 0.83875852 -66.07887642 -3.62278066 -56.74609375 -7.28515625 C-55.47378906 -7.79755859 -55.47378906 -7.79755859 -54.17578125 -8.3203125 C-36.33624542 -14.33206831 -15.49897396 -10.16193597 0 0 Z " fill="#6C9776" transform="translate(187.74609375,194.28515625)"/>
<path d="M0 0 C7.92 0 15.84 0 24 0 C24 5.28 24 10.56 24 16 C16.08 16 8.16 16 0 16 C0 10.72 0 5.44 0 0 Z " fill="#B94137" transform="translate(328,440)"/>
<path d="M0 0 C7.92 0 15.84 0 24 0 C24 5.28 24 10.56 24 16 C16.08 16 8.16 16 0 16 C0 10.72 0 5.44 0 0 Z " fill="#B94137" transform="translate(128,440)"/>
<path d="M0 0 C7.92 0 15.84 0 24 0 C24 5.28 24 10.56 24 16 C16.08 16 8.16 16 0 16 C0 10.72 0 5.44 0 0 Z " fill="#B94137" transform="translate(328,408)"/>
<path d="M0 0 C7.92 0 15.84 0 24 0 C24 5.28 24 10.56 24 16 C16.08 16 8.16 16 0 16 C0 10.72 0 5.44 0 0 Z " fill="#B94137" transform="translate(128,408)"/>
<path d="M0 0 C7.92 0 15.84 0 24 0 C24 5.28 24 10.56 24 16 C16.08 16 8.16 16 0 16 C0 10.72 0 5.44 0 0 Z " fill="#B94137" transform="translate(328,376)"/>
<path d="M0 0 C7.92 0 15.84 0 24 0 C24 5.28 24 10.56 24 16 C16.08 16 8.16 16 0 16 C0 10.72 0 5.44 0 0 Z " fill="#B94137" transform="translate(128,376)"/>
<path d="M0 0 C9.9 0 19.8 0 30 0 C18.85714286 8.35714286 18.85714286 8.35714286 13 7.625 C12.01 7.08875 11.02 6.5525 10 6 C8.20907824 5.12347636 6.41735672 4.24858563 4.625 3.375 C3.08133784 2.58723141 1.53898561 1.79686606 0 1 C0 0.67 0 0.34 0 0 Z " fill="#4C99C9" transform="translate(249,72)"/>
<path d="M0 0 C9.9 0 19.8 0 30 0 C18.85714286 8.35714286 18.85714286 8.35714286 13 7.625 C12.01 7.08875 11.02 6.5525 10 6 C8.20907824 5.12347636 6.41735672 4.24858563 4.625 3.375 C3.08133784 2.58723141 1.53898561 1.79686606 0 1 C0 0.67 0 0.34 0 0 Z " fill="#4C99C9" transform="translate(217,72)"/>
</svg>
