<?xml version="1.0" encoding="UTF-8"?>
<svg version="1.1" xmlns="http://www.w3.org/2000/svg" width="512" height="512">
<path d="M0 0 C2.70505384 2.1466379 4.12021315 3.65409648 5.22119141 6.95703125 C7.17299871 28.45479454 -2.91376133 49.00145914 -15.85302734 65.7265625 C-21.40977814 72.16247469 -27.9369322 78.29698347 -36.7578125 79.14794922 C-43.78673176 79.52447057 -50.18772932 79.65338186 -56.77880859 76.95703125 C-61.0428124 77.08293687 -63.21291728 80.09248633 -66.02880859 83.01953125 C-66.92083984 83.93863281 -67.81287109 84.85773438 -68.73193359 85.8046875 C-69.40740234 86.51496094 -70.08287109 87.22523438 -70.77880859 87.95703125 C-69.6272415 90.85271938 -68.45692152 93.73923351 -67.27099609 96.62109375 C-66.73184022 97.94136812 -66.19277954 99.26168137 -65.65380859 100.58203125 C-65.37666016 101.24976563 -65.09951172 101.9175 -64.81396484 102.60546875 C-63.61977618 105.54682014 -62.77880859 107.75084244 -62.77880859 110.95703125 C-62.13298828 110.910625 -61.48716797 110.86421875 -60.82177734 110.81640625 C-40.19582587 110.02635613 -20.6527316 117.66769296 -3.20458984 128.00390625 C0.83711613 130.42787894 0.83711613 130.42787894 5.22119141 131.95703125 C7.7772721 130.79850716 7.7772721 130.79850716 10.22119141 128.83203125 C21.40038884 121.26480415 32.16259567 120.35355314 45.22119141 120.95703125 C45.49576172 120.04953125 45.77033203 119.14203125 46.05322266 118.20703125 C49.75863283 107.89632468 58.38429566 101.56270178 67.88916016 96.9375 C76.70714145 93.23010753 89.34545276 93.53114797 98.34619141 96.58203125 C104.04207272 99.04062211 108.5735398 102.70931172 113.26416016 106.69140625 C113.90998047 107.1090625 114.55580078 107.52671875 115.22119141 107.95703125 C116.79714254 107.51165375 118.37012575 107.05126452 119.92041016 106.5234375 C130.73501692 103.86109797 141.68695243 106.1959441 151.16650391 111.65234375 C161.45505945 118.57679394 167.74851804 127.7565351 170.22119141 139.95703125 C170.76387473 146.27688768 171.02701701 152.29102465 168.72119141 158.26953125 C167.80757122 161.88376741 167.80757122 161.88376741 169.72900391 164.12109375 C171.16048521 165.65821943 172.62138392 167.16838492 174.10791016 168.65234375 C181.96329294 177.21921222 181.84978302 188.82863591 181.39599609 199.7734375 C180.55630668 210.26251869 174.24956982 218.49688188 166.65869141 225.33203125 C163.34206213 228.02119012 159.63612919 230.95703125 155.22119141 230.95703125 C155.26759766 231.96121094 155.31400391 232.96539062 155.36181641 234 C155.87416764 249.84392628 151.91123139 262.9106615 140.90869141 274.76953125 C130.18711326 284.77154039 117.10921878 288.36942204 102.73291016 288.23828125 C92.80783576 287.44339209 82.01019943 283.6232442 74.78369141 276.58203125 C70.020819 273.56167314 65.31550538 275.27954081 60.05126953 276.43212891 C57.6188869 276.98925845 55.20142464 277.58954829 52.78369141 278.20703125 C51.99003174 278.399021 51.19637207 278.59101074 50.37866211 278.78881836 C45.59193042 280.09113438 45.59193042 280.09113438 42.18603516 283.62890625 C41.86763672 284.3971875 41.54923828 285.16546875 41.22119141 285.95703125 C42.19056641 286.08078125 43.15994141 286.20453125 44.15869141 286.33203125 C58.88884027 288.49064806 74.84282546 294.57202877 84.33886719 306.65063477 C87.08830097 309.37589244 87.08830097 309.37589244 90.9152832 308.75488281 C92.36212455 308.39883556 93.80130735 308.01073365 95.23291016 307.59765625 C96.40765144 307.29713348 96.40765144 307.29713348 97.60612488 306.99053955 C99.28517666 306.55853769 100.96102227 306.11391504 102.63372803 305.65795898 C105.20080271 304.96255442 107.77492374 304.30943475 110.35644531 303.66992188 C116.49337254 302.14813208 122.61968129 300.5856843 128.74291992 299.00976562 C131.36588875 298.33593193 133.99063564 297.66943238 136.61572266 297.00390625 C137.8047393 296.69462189 137.8047393 296.69462189 139.01777649 296.37908936 C142.83814337 295.41520644 146.24456604 294.69776141 150.22119141 294.95703125 C151.39771612 298.37038335 152.56067315 301.7882072 153.72119141 305.20703125 C154.05505859 306.17511719 154.38892578 307.14320313 154.73291016 308.140625 C155.04873047 309.07519531 155.36455078 310.00976562 155.68994141 310.97265625 C156.12983398 312.26091309 156.12983398 312.26091309 156.57861328 313.57519531 C157.22119141 315.95703125 157.22119141 315.95703125 157.22119141 319.95703125 C147.98119141 324.57703125 138.74119141 329.19703125 129.22119141 333.95703125 C146.38119141 334.28703125 163.54119141 334.61703125 181.22119141 334.95703125 C181.22119141 345.51703125 181.22119141 356.07703125 181.22119141 366.95703125 C164.06119141 367.28703125 146.90119141 367.61703125 129.22119141 367.95703125 C138.46119141 372.57703125 147.70119141 377.19703125 157.22119141 381.95703125 C156.09619141 389.83203125 156.09619141 389.83203125 154.81103516 393.578125 C154.54355469 394.36767578 154.27607422 395.15722656 154.00048828 395.97070312 C153.72269531 396.77056641 153.44490234 397.57042969 153.15869141 398.39453125 C152.87703125 399.22146484 152.59537109 400.04839844 152.30517578 400.90039062 C151.61601349 402.92115463 150.9193683 404.93936407 150.22119141 406.95703125 C142.67623859 406.33905039 135.62784353 404.70148455 128.31103516 402.796875 C127.10298721 402.48754532 125.89493927 402.17821564 124.65028381 401.85951233 C121.46814028 401.04354474 118.28741078 400.22234434 115.1072998 399.39849854 C111.85018855 398.55611403 108.59127745 397.72075275 105.33251953 396.88476562 C98.96041427 395.24859478 92.590125 393.60550229 86.22119141 391.95703125 C85.92422363 392.57868164 85.62725586 393.20033203 85.32128906 393.84082031 C80.4114938 403.28558403 68.50333549 407.95061478 59.22119141 411.95703125 C57.88314453 412.53517578 57.88314453 412.53517578 56.51806641 413.125 C39.04079101 419.12928977 16.96327996 414.1361776 -0.7453196 411.74270916 C-4.2148881 411.27747245 -7.6866768 410.82951289 -11.15849304 410.38140869 C-11.86988939 410.28958211 -12.58128574 410.19775552 -13.31423956 410.10314631 C-14.76866369 409.91550068 -16.22309939 409.72794469 -17.67754638 409.54047632 C-19.89382324 409.25431158 -22.1098774 408.96646853 -24.3259058 408.67838669 C-39.05550173 406.76821125 -53.80456047 405.03584696 -68.55859756 403.32646179 C-72.94855911 402.81765101 -77.33797239 402.30422366 -81.7272644 401.78967285 C-83.18969132 401.61829692 -84.65211846 401.44692292 -86.11454582 401.27555084 C-86.83836 401.19072606 -87.56217418 401.10590128 -88.30792212 401.01850605 C-97.94226633 399.88965545 -107.57703324 398.76480775 -117.21362305 397.65527344 C-123.90904153 396.88432362 -130.60327805 396.10386904 -137.29632062 395.31254983 C-140.78201054 394.90081312 -144.26808284 394.49366371 -147.75570107 394.09856415 C-151.5871734 393.66447534 -155.41601443 393.20952549 -159.24487305 392.75292969 C-160.3577771 392.63026733 -161.47068115 392.50760498 -162.61730957 392.38122559 C-176.59992744 390.66937753 -187.11807944 385.95957665 -196.23974609 375.109375 C-200.48687898 369.16985667 -202.94868753 362.50879861 -202.84130859 355.20703125 C-202.83228516 354.4078125 -202.82326172 353.60859375 -202.81396484 352.78515625 C-202.80236328 352.181875 -202.79076172 351.57859375 -202.77880859 350.95703125 C-203.39695938 350.9659137 -204.01511017 350.97479614 -204.6519928 350.98394775 C-211.15844354 351.07330046 -217.66471656 351.13312532 -224.17163086 351.17675781 C-226.59129938 351.19671915 -229.01092063 351.22389798 -231.43041992 351.25878906 C-254.81596635 351.58727846 -275.0038067 349.08226051 -292.62963867 332.30200195 C-307.7706024 317.15586978 -314.96913243 299.83059884 -315.21630859 278.58203125 C-315.11946132 259.81333259 -309.34629627 244.05074134 -296.77880859 229.95703125 C-296.15103516 229.24675781 -295.52326172 228.53648437 -294.87646484 227.8046875 C-288.82759432 221.35998087 -281.64893111 216.89209251 -273.77880859 212.95703125 C-278.23380859 210.48203125 -278.23380859 210.48203125 -282.77880859 207.95703125 C-282.77880859 207.29703125 -282.77880859 206.63703125 -282.77880859 205.95703125 C-247.8487869 193.27566999 -247.8487869 193.27566999 -230.77880859 190.95703125 C-231.59020203 183.77040369 -233.95701312 178.04935543 -237.39038086 171.78076172 C-239.18241728 168.45330056 -239.77880859 166.85188429 -239.77880859 162.95703125 C-237.66162109 160.37890625 -237.66162109 160.37890625 -234.90380859 157.70703125 C-233.99888672 156.815 -233.09396484 155.92296875 -232.16162109 155.00390625 C-229.77880859 152.95703125 -229.77880859 152.95703125 -227.77880859 152.95703125 C-219.18408179 164.06769969 -213.14000869 176.7060455 -212.77880859 190.95703125 C-212.10978516 190.9828125 -211.44076172 191.00859375 -210.75146484 191.03515625 C-201.46399052 191.58367822 -192.75889885 193.66944902 -183.77880859 195.95703125 C-183.49384521 195.17392578 -183.49384521 195.17392578 -183.203125 194.375 C-171.46316962 162.54822481 -150.84814832 136.17562581 -119.59130859 121.6640625 C-118.32156863 121.09261641 -117.05080157 120.52344461 -115.77880859 119.95703125 C-114.74755859 119.48652344 -113.71630859 119.01601562 -112.65380859 118.53125 C-102.45826997 114.24328259 -91.56489403 112.21532704 -80.77880859 109.95703125 C-87.39767033 94.94405017 -96.17588425 83.61766676 -111.54443359 76.71484375 C-118.99989265 73.92413913 -126.51676827 73.09066435 -134.38427734 72.3515625 C-137.77880859 71.95703125 -137.77880859 71.95703125 -138.77880859 70.95703125 C-138.87862073 68.27971745 -138.91760735 65.6339895 -138.90380859 62.95703125 C-138.90767578 62.20679688 -138.91154297 61.4565625 -138.91552734 60.68359375 C-138.90541913 55.08364178 -138.90541913 55.08364178 -137.77880859 53.95703125 C-117.43440625 53.82761393 -99.54030086 60.09050695 -83.77880859 72.95703125 C-79.22519639 70.90740092 -75.7737854 67.95321067 -72.77880859 63.95703125 C-72.5926618 61.21549247 -72.5926618 61.21549247 -73.77880859 58.95703125 C-76.54212093 50.66709424 -75.95197052 40.17096014 -72.21630859 32.33203125 C-62.45834586 15.82200695 -40.99790632 5.68015028 -23.21630859 -0.04296875 C-16.69354359 -1.56361335 -5.90928264 -3.46478938 0 0 Z " fill="#FEA426" transform="translate(322.77880859375,49.04296875)"/>
<path d="M0 0 C1.42326062 0.72802732 2.84122385 1.4664969 4.25390625 2.21484375 C4.98544922 2.59189453 5.71699219 2.96894531 6.47070312 3.35742188 C8.25734578 4.27993671 10.03756454 5.21487495 11.81640625 6.15234375 C10.53840109 9.60189709 9.05522188 12.53324404 6.99609375 15.578125 C6.46113281 16.37412109 5.92617187 17.17011719 5.375 17.99023438 C4.81941406 18.80685547 4.26382813 19.62347656 3.69140625 20.46484375 C3.12808594 21.30080078 2.56476562 22.13675781 1.984375 22.99804688 C0.59919836 25.05233427 -0.79021594 27.10361413 -2.18359375 29.15234375 C4.27496271 27.53857226 10.57919227 25.60229724 16.86328125 23.41796875 C17.56932495 23.17421509 18.27536865 22.93046143 19.00280762 22.67932129 C21.93617791 21.66554297 24.86863083 20.65003031 27.79345703 19.61181641 C29.95799523 18.84575603 32.12848896 18.09920826 34.30078125 17.35546875 C35.27757843 17.00092621 35.27757843 17.00092621 36.27410889 16.63922119 C44.06498042 14.01228592 50.60811957 16.5568431 58.03125 19.09375 C58.88699112 19.38088364 59.74273224 19.66801727 60.62440491 19.96385193 C63.33618234 20.87519446 66.04504442 21.79487565 68.75390625 22.71484375 C70.60072471 23.33714303 72.44772816 23.9588936 74.29492188 24.58007812 C78.80424858 26.09782605 83.31098112 27.62305489 87.81640625 29.15234375 C88.14640625 28.82234375 88.47640625 28.49234375 88.81640625 28.15234375 C88.42259766 27.55695801 88.02878906 26.96157227 87.62304688 26.34814453 C85.8494353 23.66096557 84.0828486 20.9692403 82.31640625 18.27734375 C81.69636719 17.34019531 81.07632813 16.40304687 80.4375 15.4375 C79.55771484 14.09365234 79.55771484 14.09365234 78.66015625 12.72265625 C78.11552734 11.89523926 77.57089844 11.06782227 77.00976562 10.21533203 C75.81640625 8.15234375 75.81640625 8.15234375 75.81640625 6.15234375 C78.67786288 4.60496778 81.5572904 3.09450264 84.44140625 1.58984375 C85.24964844 1.15220703 86.05789062 0.71457031 86.890625 0.26367188 C90.47512186 -1.58686106 92.95792036 -2.85598096 97.0390625 -2.81640625 C113.08092842 2.77906878 125.31725369 15.81140405 132.78222656 30.7355957 C136.74140999 39.0824134 139.74862479 47.53813839 139.94140625 56.83984375 C140.44611347 61.93279838 143.27921774 64.5370373 146.953125 67.8828125 C155.78027134 74.87950011 166.39135728 82.67814388 177.81640625 84.15234375 C177.81640625 84.81234375 177.81640625 85.47234375 177.81640625 86.15234375 C175.83640625 86.15234375 173.85640625 86.15234375 171.81640625 86.15234375 C171.81640625 99.68234375 171.81640625 113.21234375 171.81640625 127.15234375 C177.09640625 127.15234375 182.37640625 127.15234375 187.81640625 127.15234375 C187.81640625 112.96234375 187.81640625 98.77234375 187.81640625 84.15234375 C218.51474245 80.24773081 218.51474245 80.24773081 233.31640625 78.71484375 C237.44471415 78.2749122 241.57227966 77.82835647 245.69970703 77.38024902 C248.04422208 77.12781479 250.38929511 76.88091885 252.734375 76.63378906 C257.20625581 76.15954365 261.67454199 75.6580406 266.1418457 75.14254761 C267.89989341 74.94357368 269.65885868 74.75251805 271.41870117 74.57009888 C280.92444522 73.5793661 288.90106191 72.46655459 297.2734375 67.46801758 C300.13382025 65.98812101 302.63492121 65.53174165 305.81640625 65.15234375 C305.15640625 66.80234375 304.49640625 68.45234375 303.81640625 70.15234375 C304.78578125 70.27609375 305.75515625 70.39984375 306.75390625 70.52734375 C321.48405512 72.68596056 337.4380403 78.76734127 346.93408203 90.84594727 C349.68351582 93.57120494 349.68351582 93.57120494 353.51049805 92.95019531 C354.9573394 92.59414806 356.39652219 92.20604615 357.828125 91.79296875 C359.00286629 91.49244598 359.00286629 91.49244598 360.20133972 91.18585205 C361.8803915 90.75385019 363.55623711 90.30922754 365.22894287 89.85327148 C367.79601755 89.15786692 370.37013859 88.50474725 372.95166016 87.86523438 C379.08858738 86.34344458 385.21489614 84.7809968 391.33813477 83.20507812 C393.9611036 82.53124443 396.58585048 81.86474488 399.2109375 81.19921875 C400.39995415 80.88993439 400.39995415 80.88993439 401.61299133 80.57440186 C405.43335821 79.61051894 408.83978088 78.89307391 412.81640625 79.15234375 C413.99293097 82.56569585 415.15588799 85.9835197 416.31640625 89.40234375 C416.81720703 90.85447266 416.81720703 90.85447266 417.328125 92.3359375 C417.64394531 93.27050781 417.95976562 94.20507812 418.28515625 95.16796875 C418.72504883 96.45622559 418.72504883 96.45622559 419.17382812 97.77050781 C419.81640625 100.15234375 419.81640625 100.15234375 419.81640625 104.15234375 C410.57640625 108.77234375 401.33640625 113.39234375 391.81640625 118.15234375 C408.97640625 118.48234375 426.13640625 118.81234375 443.81640625 119.15234375 C443.81640625 129.71234375 443.81640625 140.27234375 443.81640625 151.15234375 C426.65640625 151.48234375 409.49640625 151.81234375 391.81640625 152.15234375 C401.05640625 156.77234375 410.29640625 161.39234375 419.81640625 166.15234375 C418.69140625 174.02734375 418.69140625 174.02734375 417.40625 177.7734375 C417.13876953 178.56298828 416.87128906 179.35253906 416.59570312 180.16601562 C416.31791016 180.96587891 416.04011719 181.76574219 415.75390625 182.58984375 C415.47224609 183.41677734 415.19058594 184.24371094 414.90039062 185.09570312 C414.21122833 187.11646713 413.51458315 189.13467657 412.81640625 191.15234375 C405.27145343 190.53436289 398.22305838 188.89679705 390.90625 186.9921875 C389.69820206 186.68285782 388.49015411 186.37352814 387.24549866 186.05482483 C384.06335512 185.23885724 380.88262562 184.41765684 377.70251465 183.59381104 C374.44540339 182.75142653 371.1864923 181.91606525 367.92773438 181.08007812 C361.55562912 179.44390728 355.18533984 177.80081479 348.81640625 176.15234375 C348.51943848 176.77399414 348.2224707 177.39564453 347.91650391 178.03613281 C343.00670865 187.48089653 331.09855034 192.14592728 321.81640625 196.15234375 C320.47835937 196.73048828 320.47835937 196.73048828 319.11328125 197.3203125 C301.63600586 203.32460227 279.5584948 198.3314901 261.84989524 195.93802166 C258.38032674 195.47278495 254.90853804 195.02482539 251.4367218 194.57672119 C250.36962727 194.43898131 250.36962727 194.43898131 249.28097528 194.29845881 C247.82655115 194.11081318 246.37211545 193.92325719 244.91766846 193.73578882 C242.70139161 193.44962408 240.48533745 193.16178103 238.26930904 192.87369919 C223.53971312 190.96352375 208.79065437 189.23115946 194.03661728 187.52177429 C189.64665573 187.01296351 185.25724246 186.49953616 180.86795044 185.98498535 C179.40552353 185.81360942 177.94309639 185.64223542 176.48066902 185.47086334 C175.75685484 185.38603856 175.03304066 185.30121378 174.28729272 185.21381855 C164.65294852 184.08496795 155.0181816 182.96012025 145.3815918 181.85058594 C138.68617332 181.07963612 131.9919368 180.29918154 125.29889423 179.50786233 C121.8132043 179.09612562 118.32713201 178.68897621 114.83951378 178.29387665 C111.00804145 177.85978784 107.17920041 177.40483799 103.3503418 176.94824219 C102.23743774 176.82557983 101.12453369 176.70291748 99.97790527 176.57653809 C85.99528741 174.86469003 75.4771354 170.15488915 66.35546875 159.3046875 C62.10833586 153.36516917 59.64652732 146.70411111 59.75390625 139.40234375 C59.76292969 138.603125 59.77195312 137.80390625 59.78125 136.98046875 C59.79285156 136.3771875 59.80445312 135.77390625 59.81640625 135.15234375 C59.19825546 135.1612262 58.58010468 135.17010864 57.94322205 135.17926025 C51.43677131 135.26861296 44.93049829 135.32843782 38.42358398 135.37207031 C36.00391547 135.39203165 33.58429421 135.41921048 31.16479492 135.45410156 C7.77924849 135.78259096 -12.40859186 133.27757301 -30.03442383 116.49731445 C-45.17538756 101.35118228 -52.37391759 84.02591134 -52.62109375 62.77734375 C-52.52424648 44.00864509 -46.75108143 28.24605384 -34.18359375 14.15234375 C-33.55582031 13.44207031 -32.92804687 12.73179687 -32.28125 12 C-27.25089428 6.64045945 -21.53883693 2.80364806 -15.18359375 -0.84765625 C-14.5596875 -1.26273437 -13.93578125 -1.6778125 -13.29296875 -2.10546875 C-8.62390918 -3.74828601 -4.27138868 -2.02804945 0 0 Z " fill="#FEC146" transform="translate(60.18359375,264.84765625)"/>
<path d="M0 0 C3.57725944 2.32612966 6.79468059 4.97674604 10.04296875 7.734375 C10.68878906 8.15203125 11.33460938 8.5696875 12 9 C13.57595114 8.5546225 15.14893435 8.09423327 16.69921875 7.56640625 C27.51382551 4.90406672 38.46576103 7.23891285 47.9453125 12.6953125 C58.23386804 19.61976269 64.52732663 28.79950385 67 41 C67.54268332 47.31985643 67.80582561 53.3339934 65.5 59.3125 C64.58637982 62.92673616 64.58637982 62.92673616 66.5078125 65.1640625 C67.9392938 66.70118818 69.40019252 68.21135367 70.88671875 69.6953125 C78.74210153 78.26218097 78.62859162 89.87160466 78.17480469 100.81640625 C77.33511527 111.30548744 71.02837841 119.53985063 63.4375 126.375 C60.12087072 129.06415887 56.41493778 132 52 132 C52.04640625 133.00417969 52.0928125 134.00835937 52.140625 135.04296875 C52.65297624 150.88689503 48.69003998 163.95363025 37.6875 175.8125 C26.96592185 185.81450914 13.88802738 189.41239079 -0.48828125 189.28125 C-10.41335565 188.48636084 -21.21099197 184.66621295 -28.4375 177.625 C-33.10635385 174.66426341 -38.77560095 176.51362444 -43.96557617 177.6484375 C-47.11911878 178.44204758 -50.24714817 179.29809945 -53.375 180.1875 C-54.48915283 180.49848633 -55.60330566 180.80947266 -56.7512207 181.12988281 C-62.24096885 182.71578317 -67.22716003 184.35223185 -72.1875 187.25 C-80.5582518 191.9266756 -90.63304459 192.03196642 -100 193 C-101.72550111 193.19317452 -103.45077477 193.38839483 -105.17578125 193.5859375 C-108.16676198 193.92697751 -111.15853298 194.25517452 -114.15234375 194.5703125 C-118.70074521 195.07825581 -123.22204669 195.70832435 -127.73828125 196.44921875 C-132.49767788 196.88976988 -135.03442445 196.73512486 -138.9296875 193.76953125 C-141.42050208 191.26813247 -143.75707737 188.72459148 -146 186 C-141.87758093 180.97875841 -137.45601541 176.47966248 -132.76660156 171.98706055 C-115.41730678 155.24226522 -103.68895851 133.4657352 -101 109 C-101.38689728 105.21068251 -102.3753725 103.13753335 -104.8125 100.25 C-108.53495853 95.52292616 -112 90.15869567 -112 84 C-115.3 84 -118.6 84 -122 84 C-122 78.72 -122 73.44 -122 68 C-119.36 68 -116.72 68 -114 68 C-114.00902344 67.36835938 -114.01804687 66.73671875 -114.02734375 66.0859375 C-113.59667591 53.09100343 -106.25173301 40.87763494 -97 32 C-84.69098 22.82296046 -72.78457126 21.4991425 -58 22 C-57.72542969 21.0925 -57.45085937 20.185 -57.16796875 19.25 C-53.46255858 8.93929343 -44.83689575 2.60567053 -35.33203125 -2.01953125 C-24.83999726 -6.43075492 -9.88384501 -5.41376435 0 0 Z " fill="#A5E786" transform="translate(426,148)"/>
<path d="M0 0 C1.42326062 0.72802732 2.84122385 1.4664969 4.25390625 2.21484375 C4.98544922 2.59189453 5.71699219 2.96894531 6.47070312 3.35742188 C8.25734578 4.27993671 10.03756454 5.21487495 11.81640625 6.15234375 C10.53840109 9.60189709 9.05522188 12.53324404 6.99609375 15.578125 C6.46113281 16.37412109 5.92617187 17.17011719 5.375 17.99023438 C4.81941406 18.80685547 4.26382813 19.62347656 3.69140625 20.46484375 C3.12808594 21.30080078 2.56476562 22.13675781 1.984375 22.99804688 C0.59919836 25.05233427 -0.79021594 27.10361413 -2.18359375 29.15234375 C4.27496271 27.53857226 10.57919227 25.60229724 16.86328125 23.41796875 C17.56932495 23.17421509 18.27536865 22.93046143 19.00280762 22.67932129 C21.93617791 21.66554297 24.86863083 20.65003031 27.79345703 19.61181641 C29.95799523 18.84575603 32.12848896 18.09920826 34.30078125 17.35546875 C35.27757843 17.00092621 35.27757843 17.00092621 36.27410889 16.63922119 C44.06498042 14.01228592 50.60811957 16.5568431 58.03125 19.09375 C58.88699112 19.38088364 59.74273224 19.66801727 60.62440491 19.96385193 C63.33618234 20.87519446 66.04504442 21.79487565 68.75390625 22.71484375 C70.60072471 23.33714303 72.44772816 23.9588936 74.29492188 24.58007812 C78.80424858 26.09782605 83.31098112 27.62305489 87.81640625 29.15234375 C88.14640625 28.82234375 88.47640625 28.49234375 88.81640625 28.15234375 C88.42259766 27.55695801 88.02878906 26.96157227 87.62304688 26.34814453 C85.8494353 23.66096557 84.0828486 20.9692403 82.31640625 18.27734375 C81.69636719 17.34019531 81.07632813 16.40304687 80.4375 15.4375 C79.55771484 14.09365234 79.55771484 14.09365234 78.66015625 12.72265625 C78.11552734 11.89523926 77.57089844 11.06782227 77.00976562 10.21533203 C75.81640625 8.15234375 75.81640625 8.15234375 75.81640625 6.15234375 C78.67786288 4.60496778 81.5572904 3.09450264 84.44140625 1.58984375 C85.24964844 1.15220703 86.05789062 0.71457031 86.890625 0.26367188 C90.47512186 -1.58686106 92.95792036 -2.85598096 97.0390625 -2.81640625 C113.08540431 2.78062999 125.30803474 15.81140607 132.7824707 30.73339844 C141.66440425 49.48494227 142.22411275 68.89259736 135.5 88.47265625 C134.81640625 90.15234375 134.81640625 90.15234375 133.81640625 91.15234375 C131.70648567 91.50046361 129.58680735 91.78969178 127.46484375 92.0546875 C126.81375641 92.13731339 126.16266907 92.21993927 125.49185181 92.30506897 C123.39218653 92.57067949 121.2918441 92.83042041 119.19140625 93.08984375 C117.82937641 93.26066418 116.46739659 93.43188392 115.10546875 93.60351562 C114.43295074 93.68815063 113.76043274 93.77278564 113.0675354 93.85998535 C111.7040222 94.03188024 110.34055798 94.20416408 108.97714233 94.37683105 C105.53104403 94.81289954 102.08435601 95.24066141 98.63525391 95.65234375 C97.29977685 95.81748339 95.96432653 95.98283941 94.62890625 96.1484375 C92.85580078 96.36197876 92.85580078 96.36197876 91.046875 96.57983398 C81.34899446 98.29851067 73.283657 104.515364 67.25 112.12890625 C63.32664628 118.00808108 61.12367318 124.31441283 60.28027344 131.30664062 C60.12719727 132.57572266 59.97412109 133.84480469 59.81640625 135.15234375 C52.68559217 135.25480916 45.55497187 135.32425037 38.42358398 135.37207031 C36.00391547 135.39203165 33.58429421 135.41921048 31.16479492 135.45410156 C7.77924849 135.78259096 -12.40859186 133.27757301 -30.03442383 116.49731445 C-45.17538756 101.35118228 -52.37391759 84.02591134 -52.62109375 62.77734375 C-52.52424648 44.00864509 -46.75108143 28.24605384 -34.18359375 14.15234375 C-33.55582031 13.44207031 -32.92804687 12.73179687 -32.28125 12 C-27.25089428 6.64045945 -21.53883693 2.80364806 -15.18359375 -0.84765625 C-14.5596875 -1.26273437 -13.93578125 -1.6778125 -13.29296875 -2.10546875 C-8.62390918 -3.74828601 -4.27138868 -2.02804945 0 0 Z " fill="#FE4759" transform="translate(60.18359375,264.84765625)"/>
<path d="M0 0 C2.72186234 1.36093117 3.00344243 2.87426296 4.25 5.625 C8.87247009 15.03072175 15.12633032 21.05359284 25.08642578 24.78076172 C32.07929535 27.07576275 39.07516913 27.89749704 46.375 28.625 C48.67471623 28.864926 50.97420757 29.10702013 53.2734375 29.3515625 C54.27810059 29.45291504 55.28276367 29.55426758 56.31787109 29.65869141 C59 30 59 30 63 31 C63 24.73 63 18.46 63 12 C68.28 12 73.56 12 79 12 C79 18.93 79 25.86 79 33 C81.11543213 33.12238037 83.23086426 33.24476074 85.41040039 33.37084961 C94.12930858 33.92647601 102.76862199 34.97260281 111.43359375 36.06640625 C113.04878731 36.26712891 114.66402776 36.46747467 116.27931213 36.66746521 C120.4766786 37.18815093 124.67339981 37.71386257 128.86999512 38.24072266 C133.17401045 38.78013141 137.47863322 39.31464758 141.78320312 39.84960938 C150.1893961 40.89502623 158.59485118 41.9462211 167 43 C167 35.41 167 27.82 167 20 C172.28 20 177.56 20 183 20 C183 28.58 183 37.16 183 46 C185.97 46 188.94 46 192 46 C194.72981983 46.23601362 197.42462066 46.50368414 200.140625 46.83984375 C201.23573395 46.96946251 201.23573395 46.96946251 202.35296631 47.10169983 C203.87916157 47.28334742 205.40506234 47.46748584 206.93066406 47.65405273 C209.25781914 47.93845558 211.58580887 48.21498371 213.9140625 48.49023438 C215.40630455 48.66881557 216.89849406 48.84783655 218.390625 49.02734375 C219.08029358 49.10967758 219.76996216 49.19201141 220.48052979 49.27684021 C224.02381142 49.71212088 227.51077704 50.24299179 231 51 C231 48.69 231 46.38 231 44 C236.28 44 241.56 44 247 44 C247 46.31 247 48.62 247 51 C264.86379899 47.47363968 279.62623264 40.19054099 290.8125 25.1875 C295.6832471 17.81245368 298.86246544 9.55013823 301 1 C303.55491903 3.55491903 303.30995712 5.32135637 303.38061523 8.8137207 C303.33685626 27.31235165 297.90259642 44.23384397 285 58 C272.63502444 70.07837017 257.48034565 76.41560264 240.2487793 76.34277344 C239.30536273 76.33945889 238.36194616 76.33614433 237.38994122 76.33272934 C225.17304284 76.13585052 213.12510001 74.41996239 201.03348899 72.78567791 C197.56392049 72.3204412 194.09213179 71.87248164 190.62031555 71.42437744 C189.55322102 71.28663756 189.55322102 71.28663756 188.46456903 71.14611506 C187.0101449 70.95846943 185.5557092 70.77091344 184.10126221 70.58344507 C181.88498536 70.29728033 179.6689312 70.00943728 177.45290279 69.72135544 C162.72330687 67.81118 147.97424812 66.07881571 133.22021103 64.36943054 C128.83024948 63.86061976 124.44083621 63.34719241 120.05154419 62.8326416 C118.58911728 62.66126567 117.12669014 62.48989167 115.66426277 62.31851959 C114.94044859 62.23369481 114.21663441 62.14887003 113.47088647 62.0614748 C103.83654227 60.9326242 94.20177535 59.8077765 84.56518555 58.69824219 C77.86976707 57.92729237 71.17553055 57.14683779 64.48248798 56.35551858 C60.99679805 55.94378187 57.51072576 55.53663246 54.02310753 55.1415329 C50.1916352 54.70744409 46.36279416 54.25249424 42.53393555 53.79589844 C41.42103149 53.67323608 40.30812744 53.55057373 39.16149902 53.42419434 C25.17888116 51.71234628 14.66072915 47.0025454 5.5390625 36.15234375 C0.25962331 28.76916864 -1.17037122 21.40788337 -1.125 12.5 C-1.12886719 11.74074219 -1.13273437 10.98148437 -1.13671875 10.19921875 C-1.13046768 6.62985544 -0.96340936 3.43268398 0 0 Z " fill="#FEA426" transform="translate(121,388)"/>
<path d="M0 0 C3.57725944 2.32612966 6.79468059 4.97674604 10.04296875 7.734375 C11.01169922 8.36085937 11.01169922 8.36085937 12 9 C13.57595114 8.5546225 15.14893435 8.09423327 16.69921875 7.56640625 C27.51382551 4.90406672 38.46576103 7.23891285 47.9453125 12.6953125 C58.23386804 19.61976269 64.52732663 28.79950385 67 41 C67.54268332 47.31985643 67.80582561 53.3339934 65.5 59.3125 C64.58637982 62.92673616 64.58637982 62.92673616 66.5078125 65.1640625 C67.9392938 66.70118818 69.40019252 68.21135367 70.88671875 69.6953125 C78.74210153 78.26218097 78.62859162 89.87160466 78.17480469 100.81640625 C77.33511527 111.30548744 71.02837841 119.53985063 63.4375 126.375 C60.12087072 129.06415887 56.41493778 132 52 132 C52.04640625 133.00417969 52.0928125 134.00835937 52.140625 135.04296875 C52.65297624 150.88689503 48.69003998 163.95363025 37.6875 175.8125 C26.86080632 185.91256994 13.88806751 189.30092215 -0.5859375 189.234375 C-5.62361368 188.88853911 -10.23087932 187.60563582 -15 186 C-15 185.34 -15 184.68 -15 184 C-13.37485926 182.8946653 -11.69701265 181.86646119 -10 180.875 C1.40755597 173.70328428 8.67725789 164.05387475 12.59179688 151.03125 C13.01489069 148.92590279 13.11390985 147.03610006 13.09765625 144.890625 C13.09443359 144.13652344 13.09121094 143.38242187 13.08789062 142.60546875 C13.07951172 141.82816406 13.07113281 141.05085937 13.0625 140.25 C13.05798828 139.45722656 13.05347656 138.66445313 13.04882812 137.84765625 C13.03708565 135.89840492 13.01915146 133.94919262 13 132 C14.10408203 131.41992188 14.10408203 131.41992188 15.23046875 130.828125 C24.23892758 126.02044024 29.84271771 121.887481 35 113 C35.41894531 112.28199219 35.83789062 111.56398438 36.26953125 110.82421875 C40.49359474 102.18205353 40.40582297 91.19983725 38.3046875 81.93359375 C35.83409617 75.30036746 31.95155378 67.96770252 26 64 C26.33 62.80375 26.66 61.6075 27 60.375 C29.78453013 47.5419481 28.12018407 36.38119987 21.25 25.25 C15.56862696 17.31028118 9.21356944 13.04391459 0 10 C-0.99 9.67 -1.98 9.34 -3 9 C-5.76058657 8.90263491 -8.49010996 8.86084672 -11.25 8.875 C-11.98863281 8.87113281 -12.72726562 8.86726562 -13.48828125 8.86328125 C-17.07284996 8.86960324 -20.26630199 9.04769995 -23.81640625 9.68359375 C-27 10 -27 10 -29.07421875 8.85546875 C-29.60660156 8.30503906 -30.13898438 7.75460938 -30.6875 7.1875 C-33.00203067 4.86192145 -34.99060684 3.34406448 -38 2 C-38 1.01 -38 0.02 -38 -1 C-26.44155035 -6.13708873 -11.18551616 -6.12674001 0 0 Z " fill="#86C983" transform="translate(426,148)"/>
<path d="M0 0 C2.70505384 2.1466379 4.12021315 3.65409648 5.22119141 6.95703125 C7.17299871 28.45479454 -2.91376133 49.00145914 -15.85302734 65.7265625 C-21.40977814 72.16247469 -27.9369322 78.29698347 -36.7578125 79.14794922 C-43.78673176 79.52447057 -50.18772932 79.65338186 -56.77880859 76.95703125 C-61.0428124 77.08293687 -63.21291728 80.09248633 -66.02880859 83.01953125 C-66.92083984 83.93863281 -67.81287109 84.85773438 -68.73193359 85.8046875 C-69.40740234 86.51496094 -70.08287109 87.22523438 -70.77880859 87.95703125 C-69.68172699 90.73385503 -68.55110616 93.48918262 -67.37646484 96.234375 C-63.82455001 104.7029353 -61.32940004 112.861771 -59.77880859 121.95703125 C-59.64732422 122.68148437 -59.51583984 123.4059375 -59.38037109 124.15234375 C-58.41867008 130.36441245 -58.71356872 136.69400315 -58.77880859 142.95703125 C-64.05880859 142.95703125 -69.33880859 142.95703125 -74.77880859 142.95703125 C-74.86130859 140.46140625 -74.94380859 137.96578125 -75.02880859 135.39453125 C-76.05639926 115.88909451 -83.12364595 98.17498626 -97.77880859 84.95703125 C-108.87833503 76.23713897 -120.67230013 73.63971452 -134.38427734 72.3515625 C-137.77880859 71.95703125 -137.77880859 71.95703125 -138.77880859 70.95703125 C-138.87862073 68.27971745 -138.91760735 65.6339895 -138.90380859 62.95703125 C-138.90767578 62.20679688 -138.91154297 61.4565625 -138.91552734 60.68359375 C-138.90541913 55.08364178 -138.90541913 55.08364178 -137.77880859 53.95703125 C-117.43440625 53.82761393 -99.54030086 60.09050695 -83.77880859 72.95703125 C-79.22519639 70.90740092 -75.7737854 67.95321067 -72.77880859 63.95703125 C-72.5926618 61.21549247 -72.5926618 61.21549247 -73.77880859 58.95703125 C-76.54212093 50.66709424 -75.95197052 40.17096014 -72.21630859 32.33203125 C-62.45834586 15.82200695 -40.99790632 5.68015028 -23.21630859 -0.04296875 C-16.69354359 -1.56361335 -5.90928264 -3.46478938 0 0 Z " fill="#A4E787" transform="translate(322.77880859375,49.04296875)"/>
<path d="M0 0 C1.17652472 3.4133521 2.33948174 6.83117595 3.5 10.25 C3.83386719 11.21808594 4.16773438 12.18617188 4.51171875 13.18359375 C4.82753906 14.11816406 5.14335937 15.05273438 5.46875 16.015625 C5.76201172 16.87446289 6.05527344 17.73330078 6.35742188 18.61816406 C7 21 7 21 7 25 C-6.86 31.93 -6.86 31.93 -21 39 C-3.84 39.33 13.32 39.66 31 40 C31 50.56 31 61.12 31 72 C13.84 72.33 -3.32 72.66 -21 73 C-11.76 77.62 -2.52 82.24 7 87 C5.875 94.875 5.875 94.875 4.58984375 98.62109375 C4.32236328 99.41064453 4.05488281 100.20019531 3.77929688 101.01367188 C3.50150391 101.81353516 3.22371094 102.61339844 2.9375 103.4375 C2.65583984 104.26443359 2.37417969 105.09136719 2.08398438 105.94335938 C1.39482208 107.96412338 0.6981769 109.98233282 0 112 C-7.28103761 111.37997303 -14.10930956 109.89416759 -21.18359375 108.09375 C-22.88866844 107.66660706 -22.88866844 107.66660706 -24.62818909 107.23083496 C-27.01478699 106.63176168 -29.40067826 106.02986691 -31.78588867 105.42529297 C-35.44876921 104.49714446 -39.11380644 103.57793763 -42.77929688 102.66015625 C-45.10169278 102.07603858 -47.42396301 101.49142094 -49.74609375 100.90625 C-50.84497421 100.63018921 -51.94385468 100.35412842 -53.07603455 100.06970215 C-54.08791336 99.8127356 -55.09979218 99.55576904 -56.14233398 99.29101562 C-57.03452133 99.06530884 -57.92670868 98.83960205 -58.84593201 98.60705566 C-61 98 -61 98 -63 97 C-61.76206774 94.48565054 -60.47366217 92.0076688 -59.16015625 89.53125 C-50.74248515 73.49854153 -46.88524007 57.55279487 -51.625 39.625 C-54.00398955 32.34410672 -57.01532385 24.91955151 -61.68359375 18.7890625 C-63 17 -63 17 -63 15 C-50.98674259 11.60122982 -38.93746509 8.38447968 -26.8269043 5.3503418 C-24.14284881 4.67628661 -21.46111701 3.99343459 -18.77929688 3.31054688 C-17.05482212 2.87706825 -15.33021761 2.44410546 -13.60546875 2.01171875 C-12.81279099 1.80866623 -12.02011322 1.60561371 -11.20341492 1.39640808 C-7.38534291 0.44970482 -3.96897327 -0.25432639 0 0 Z " fill="#A5E786" transform="translate(473,344)"/>
<path d="M0 0 C8.5947268 11.11066844 14.6387999 23.74901425 15 38 C15.66902344 38.02578125 16.33804688 38.0515625 17.02734375 38.078125 C28.71576541 38.76844789 40.41701294 41.15751001 51.17578125 45.8515625 C55.26078217 47.51268321 59.43829481 48.86916163 63.625 50.25 C64.44476318 50.52054199 65.26452637 50.79108398 66.10913086 51.06982422 C68.0719771 51.71558213 70.03587883 52.35813034 72 53 C72 53.66 72 54.32 72 55 C67.90898649 56.99880222 63.81553794 58.99249302 59.71972656 60.98144531 C58.32613748 61.65907394 56.93322955 62.33810524 55.54101562 63.01855469 C53.54213157 63.99521741 51.54086863 64.96684344 49.5390625 65.9375 C48.91504547 66.24373291 48.29102844 66.54996582 47.64810181 66.86547852 C43.22774341 69 43.22774341 69 41 69 C41.66386719 70.0621875 42.32773438 71.124375 43.01171875 72.21875 C47.34114583 79.14583333 51.67057292 86.07291667 56 93 C49.98793924 91.78612657 44.26870749 90.19550773 38.4921875 88.14453125 C36.91296986 87.59900269 35.33353623 87.05409907 33.75390625 86.50976562 C31.30500947 85.66040454 28.85802658 84.80649244 26.41455078 83.94165039 C24.02828877 83.09970692 21.63604606 82.27708346 19.2421875 81.45703125 C18.51909393 81.19565872 17.79600037 80.93428619 17.05099487 80.66499329 C9.05198641 77.95838878 2.57917306 80.28845678 -5.109375 82.9765625 C-6.85021583 83.5704432 -8.59110259 84.1641893 -10.33203125 84.7578125 C-13.0542491 85.69433044 -15.77540778 86.63380213 -18.49560547 87.57617188 C-21.13515142 88.48809258 -23.77823342 89.3890974 -26.421875 90.2890625 C-27.64532623 90.71863754 -27.64532623 90.71863754 -28.89349365 91.15689087 C-34.66057142 93.11314286 -34.66057142 93.11314286 -38 92 C-37.58113525 91.37432129 -37.16227051 90.74864258 -36.73071289 90.10400391 C-34.8401095 87.27846944 -32.95128372 84.45175114 -31.0625 81.625 C-30.40314453 80.64015625 -29.74378906 79.6553125 -29.06445312 78.640625 C-28.43603516 77.69960938 -27.80761719 76.75859375 -27.16015625 75.7890625 C-26.57886963 74.91975098 -25.99758301 74.05043945 -25.39868164 73.15478516 C-23.98856842 71.07035643 -23.98856842 71.07035643 -23 69 C-23.81791016 68.76216797 -23.81791016 68.76216797 -24.65234375 68.51953125 C-29.72711406 66.94938864 -34.0821226 64.93440403 -38.6640625 62.265625 C-41.91239056 60.5056613 -45.28710413 59.20053225 -48.73828125 57.89453125 C-50.89757002 57.04051203 -52.94047999 56.06981932 -55 55 C-55 54.34 -55 53.68 -55 53 C-20.0699783 40.31863874 -20.0699783 40.31863874 -3 38 C-3.81139343 30.81337244 -6.17820452 25.09232418 -9.61157227 18.82373047 C-11.40360869 15.49626931 -12 13.89485304 -12 10 C-9.8828125 7.421875 -9.8828125 7.421875 -7.125 4.75 C-6.22007813 3.85796875 -5.31515625 2.9659375 -4.3828125 2.046875 C-2 0 -2 0 0 0 Z " fill="#A5E786" transform="translate(95,202)"/>
<path d="M0 0 C0.556875 0.38671875 1.11375 0.7734375 1.6875 1.171875 C2.450625 1.69265625 3.21375 2.2134375 4 2.75 C4.81597656 3.30945313 5.63195312 3.86890625 6.47265625 4.4453125 C8.79029223 5.87099893 10.89080384 6.71846962 13.4375 7.625 C15.41796875 8.5625 15.41796875 8.5625 17 10 C17.9228161 12.95301152 18.26606626 15.77047914 18.60546875 18.84375 C19.82417602 28.59340815 24.82200437 35.50508976 32 42 C37.35976446 45.90094135 43.574928 50.03585958 50.41015625 49.98046875 C53.18370154 50.0008925 55.365913 50.11016557 58 51 C59.7403698 53.26027774 60.688469 55.39537554 61.671875 58.06640625 C63.52688011 62.16378518 66.21994673 65.48641328 69 69 C68.30551758 69.16081055 67.61103516 69.32162109 66.89550781 69.48730469 C63.6789411 70.23566621 60.4644951 70.99279164 57.25 71.75 C56.15816406 72.00265625 55.06632812 72.2553125 53.94140625 72.515625 C40.25012172 75.64567849 40.25012172 75.64567849 27.625 81.5625 C19.31988866 85.9153397 9.1744158 86.01027514 0 87 C-1.72797142 87.19567343 -3.4558416 87.39224355 -5.18359375 87.58984375 C-8.17200811 87.9289737 -11.1613135 88.2551861 -14.15234375 88.5703125 C-18.70074521 89.07825581 -23.22204669 89.70832435 -27.73828125 90.44921875 C-32.49767788 90.88976988 -35.03442445 90.73512486 -38.9296875 87.76953125 C-41.42050208 85.26813247 -43.75707737 82.72459148 -46 80 C-41.87758093 74.97875841 -37.45601541 70.47966248 -32.76660156 65.98706055 C-13.40658384 47.30160166 -5.73299863 25.98707932 0 0 Z " fill="#7B9E51" transform="translate(326,254)"/>
<path d="M0 0 C2.5854912 1.10458664 4.21178383 2.65415549 6.21002197 4.62316895 C6.92802979 5.31023926 7.6460376 5.99730957 8.38580322 6.7052002 C9.89752197 8.81066895 9.89752197 8.81066895 9.73886108 10.67510986 C8.63758136 13.4704725 7.08619466 14.97464893 4.94781494 17.08508301 C4.10959198 17.91985168 3.27136902 18.75462036 2.40774536 19.61468506 C1.49429352 20.50951599 0.58084167 21.40434692 -0.36029053 22.32629395 C-1.7914804 23.74737131 -3.22266782 25.16845116 -4.65371513 26.58967209 C-6.66337589 28.5817861 -8.67985294 30.56693301 -10.69628906 32.55218506 C-14.68390025 36.48066636 -18.65916068 40.42162825 -22.63344955 44.3635788 C-24.01249675 45.72885267 -25.39570716 47.08991727 -26.77902222 48.4508667 C-31.23071315 52.85187454 -35.53596205 57.29944054 -39.58901978 62.07208252 C-41.95810512 64.79357127 -44.52062415 67.29178712 -47.10247803 69.81066895 C-46.00539642 72.58749273 -44.8747756 75.34282031 -43.70013428 78.0880127 C-40.14821945 86.55657299 -37.65306947 94.7154087 -36.10247803 103.81066895 C-35.97099365 104.53512207 -35.83950928 105.2595752 -35.70404053 106.00598145 C-34.74233951 112.21805015 -35.03723815 118.54764085 -35.10247803 124.81066895 C-40.38247803 124.81066895 -45.66247803 124.81066895 -51.10247803 124.81066895 C-51.18497803 122.31504395 -51.26747803 119.81941895 -51.35247803 117.24816895 C-52.38006869 97.7427322 -59.44731538 80.02862396 -74.10247803 66.81066895 C-85.20200447 58.09077666 -96.99596956 55.49335222 -110.70794678 54.2052002 C-114.10247803 53.81066895 -114.10247803 53.81066895 -115.10247803 52.81066895 C-115.20229016 50.13335515 -115.24127678 47.4876272 -115.22747803 44.81066895 C-115.23134521 44.06043457 -115.2352124 43.3102002 -115.23919678 42.53723145 C-115.22908856 36.93727948 -115.22908856 36.93727948 -114.10247803 35.81066895 C-93.75807569 35.68125163 -75.8639703 41.94414464 -60.10247803 54.81066895 C-56.85040711 53.39328406 -54.78886736 51.68540483 -52.35247803 49.12316895 C-49.85026432 46.50004995 -47.26788085 44.07761798 -44.51263428 41.72741699 C-39.82072317 37.63590786 -35.49054062 33.23702392 -31.14935303 28.77941895 C-29.46244589 27.06529363 -27.77492838 25.35176882 -26.08685303 23.63879395 C-23.4518859 20.96033898 -20.82099313 18.27832622 -18.20013428 15.58605957 C-15.65280773 12.97249496 -13.09015942 10.37482619 -10.52435303 7.77941895 C-9.34615997 6.55781067 -9.34615997 6.55781067 -8.14416504 5.31152344 C-7.40950012 4.57325317 -6.67483521 3.83498291 -5.91790771 3.07434082 C-5.27585388 2.41816772 -4.63380005 1.76199463 -3.97229004 1.0859375 C-2.10247803 -0.18933105 -2.10247803 -0.18933105 0 0 Z " fill="#98BA5C" transform="translate(299.10247802734375,67.1893310546875)"/>
<path d="M0 0 C0.495 3.96 0.495 3.96 1 8 C0.01902344 8.46148437 -0.96195312 8.92296875 -1.97265625 9.3984375 C-17.53889352 16.85965032 -30.81047477 25.74114224 -43 38 C-43.74894531 38.74894531 -44.49789062 39.49789062 -45.26953125 40.26953125 C-57.84938036 53.64337478 -65.64478826 70.98308437 -72 88 C-73.32 88 -74.64 88 -76 88 C-75.67 94.6 -75.34 101.2 -75 108 C-79.3785374 106.24858504 -82.97072742 104.37016034 -87 102 C-83.8745041 99.35534962 -80.91211733 98.15585285 -77 97 C-77 96.34 -77 95.68 -77 95 C-78.28777344 94.73445313 -79.57554687 94.46890625 -80.90234375 94.1953125 C-85.91263861 93.08191364 -90.71330785 91.54328174 -95.5625 89.875 C-96.78936523 89.45927734 -96.78936523 89.45927734 -98.04101562 89.03515625 C-100.02876568 88.36094863 -102.01459349 87.68107796 -104 87 C-103.43242605 81.5583848 -102.10177046 76.97825587 -100 71.9375 C-99.69239746 71.19870605 -99.38479492 70.45991211 -99.06787109 69.69873047 C-87.13603487 42.07928859 -64.16396646 21.07445793 -37 9 C-35.93394531 8.51789063 -34.86789063 8.03578125 -33.76953125 7.5390625 C-23.71965451 3.335692 -11.04121372 -0.60103381 0 0 Z " fill="#FD8205" transform="translate(244,160)"/>
<path d="M0 0 C0.556875 0.38671875 1.11375 0.7734375 1.6875 1.171875 C2.450625 1.69265625 3.21375 2.2134375 4 2.75 C4.81597656 3.30945313 5.63195312 3.86890625 6.47265625 4.4453125 C8.79029223 5.87099893 10.89080384 6.71846962 13.4375 7.625 C15.41796875 8.5625 15.41796875 8.5625 17 10 C17.9228161 12.95301152 18.26606626 15.77047914 18.60546875 18.84375 C19.82243325 28.57946603 24.81321671 35.5274312 32 42 C35.2197813 44.25198576 38.53852159 46.15054583 42 48 C43.485 48.99 43.485 48.99 45 50 C44.44763672 50.11480713 43.89527344 50.22961426 43.32617188 50.34790039 C30.29205266 53.11103648 17.82335452 56.37840625 6.17236328 63.04589844 C3.45682921 64.23856051 1.03904427 64.50780352 -1.91015625 64.81640625 C-3.06580078 64.94080078 -4.22144531 65.06519531 -5.41210938 65.19335938 C-6.61673828 65.31517578 -7.82136719 65.43699219 -9.0625 65.5625 C-10.82883789 65.75102539 -10.82883789 65.75102539 -12.63085938 65.94335938 C-19.74797301 66.69563868 -26.87071323 67.37417778 -34 68 C-30.86025573 64.23230687 -27.74258459 60.74766139 -24.125 57.4375 C-9.57779536 42.83498279 -4.30672897 19.52194907 0 0 Z " fill="#98B95B" transform="translate(326,254)"/>
<path d="M0 0 C0.66 0 1.32 0 2 0 C6.33391663 13.00174988 1.38014396 27.09319658 -4.27734375 38.84765625 C-11.10795119 52.47672709 -19.24268824 68.29754131 -34.17578125 74.34375 C-38.00672904 75.23392874 -41.70107169 75.39405545 -45.625 75.4375 C-46.34163818 75.44773193 -47.05827637 75.45796387 -47.79663086 75.46850586 C-52.86504716 75.38493806 -56.45908142 74.24662245 -61 72 C-58.66329816 66.68788787 -54.51400448 63.02619873 -50.5 58.9375 C-49.73429687 58.12216797 -48.96859375 57.30683594 -48.1796875 56.46679688 C-43.51108664 51.71622225 -39.81064475 48.97832919 -33.24414062 47.57397461 C-23.53556854 45.09085309 -16.83974706 34.22134156 -11.85693359 26.14794922 C-6.96565079 17.79373413 -3.20362829 9.13342104 0 0 Z " fill="#87CA83" transform="translate(325,53)"/>
<path d="M0 0 C5.14821673 4.34659501 7.67307121 9.79941916 10 16 C10.65331961 17.33992377 11.31694411 18.67498797 12 20 C5.98793924 18.78612657 0.26870749 17.19550773 -5.5078125 15.14453125 C-7.08703014 14.59900269 -8.66646377 14.05409907 -10.24609375 13.50976562 C-12.69499053 12.66040454 -15.14197342 11.80649244 -17.58544922 10.94165039 C-19.97171123 10.09970692 -22.36395394 9.27708346 -24.7578125 8.45703125 C-25.48090607 8.19565872 -26.20399963 7.93428619 -26.94900513 7.66499329 C-34.94801359 4.95838878 -41.42082694 7.28845678 -49.109375 9.9765625 C-50.85021583 10.5704432 -52.59110259 11.1641893 -54.33203125 11.7578125 C-57.0542491 12.69433044 -59.77540778 13.63380213 -62.49560547 14.57617188 C-65.13515142 15.48809258 -67.77823342 16.3890974 -70.421875 17.2890625 C-71.23750916 17.57544586 -72.05314331 17.86182922 -72.89349365 18.15689087 C-78.66057142 20.11314286 -78.66057142 20.11314286 -82 19 C-81.67201416 18.49549316 -81.34402832 17.99098633 -81.00610352 17.47119141 C-79.5238215 15.18982774 -78.04314259 12.90742798 -76.5625 10.625 C-75.7880957 9.43390625 -75.7880957 9.43390625 -74.99804688 8.21875 C-74.50498047 7.45820313 -74.01191406 6.69765625 -73.50390625 5.9140625 C-73.04830322 5.2123291 -72.5927002 4.5105957 -72.12329102 3.78759766 C-70.95907635 1.99917345 -70.95907635 1.99917345 -70 0 C-67.64985131 -0.97105918 -65.33601988 -1.82818367 -62.9296875 -2.63671875 C-62.21523468 -2.88041702 -61.50078186 -3.1241153 -60.76467896 -3.37519836 C-59.2477817 -3.88928197 -57.72949274 -4.39927424 -56.20996094 -4.90551758 C-53.89970554 -5.67922607 -51.59851755 -6.47648358 -49.296875 -7.27539062 C-47.82080787 -7.77230723 -46.3442589 -8.26779531 -44.8671875 -8.76171875 C-44.18461884 -9.0012175 -43.50205017 -9.24071625 -42.79879761 -9.48747253 C-30.40946271 -13.52054472 -11.4002198 -5.89852878 0 0 Z " fill="#F03049" transform="translate(139,291)"/>
<path d="M0 0 C5.89105939 0 11.35512304 0.12377269 17.140625 0.83984375 C17.87069763 0.92625626 18.60077026 1.01266876 19.35296631 1.10169983 C20.87916157 1.28334742 22.40506234 1.46748584 23.93066406 1.65405273 C26.25781914 1.93845558 28.58580887 2.21498371 30.9140625 2.49023438 C32.40630455 2.66881557 33.89849406 2.84783655 35.390625 3.02734375 C36.08029358 3.10967758 36.76996216 3.19201141 37.48052979 3.27684021 C41.03933555 3.71402797 44.4761211 4.29522422 48 5 C48 13.25 48 21.5 48 30 C31.96534766 28.18963603 15.98027167 26.23723803 0 24 C0 16.08 0 8.16 0 0 Z " fill="#FFA426" transform="translate(304,434)"/>
<path d="M0 0 C1.42326062 0.72802732 2.84122385 1.4664969 4.25390625 2.21484375 C4.98544922 2.59189453 5.71699219 2.96894531 6.47070312 3.35742188 C8.25734578 4.27993671 10.03756454 5.21487495 11.81640625 6.15234375 C10.56001634 9.50467385 9.12906737 12.4563699 7.19140625 15.46484375 C6.74539062 16.16222656 6.299375 16.85960937 5.83984375 17.578125 C5.50210938 18.09761719 5.164375 18.61710937 4.81640625 19.15234375 C1.5811583 18.15095748 -1.27135945 17.10398306 -4.24609375 15.46484375 C-7.72776258 13.90920448 -8.59846041 14.06656051 -12.18359375 15.15234375 C-30.70990302 25.08280745 -42.90588927 39.97219252 -49.18359375 60.15234375 C-49.99792164 63.46934427 -50.67288991 66.77560047 -51.18359375 70.15234375 C-51.51359375 70.15234375 -51.84359375 70.15234375 -52.18359375 70.15234375 C-53.02133256 48.53402838 -48.98387254 30.74999985 -34.18359375 14.15234375 C-33.55582031 13.44207031 -32.92804687 12.73179687 -32.28125 12 C-27.25089428 6.64045945 -21.53883693 2.80364806 -15.18359375 -0.84765625 C-14.5596875 -1.26273437 -13.93578125 -1.6778125 -13.29296875 -2.10546875 C-8.62390918 -3.74828601 -4.27138868 -2.02804945 0 0 Z " fill="#F03149" transform="translate(60.18359375,264.84765625)"/>
<path d="M0 0 C14.03701372 18.14608061 17.39156124 39.49553279 17 62 C11.72 62 6.44 62 1 62 C0.84144531 60.5253125 0.68289062 59.050625 0.51953125 57.53125 C-2.05100149 35.04477742 -2.05100149 35.04477742 -12.05859375 15.015625 C-13 13 -13 13 -12.44140625 11.03125 C-10.66072661 8.52189115 -8.68311359 6.41893753 -6.5 4.25 C-5.7059375 3.45078125 -4.911875 2.6515625 -4.09375 1.828125 C-2 0 -2 0 0 0 Z " fill="#98BA5C" transform="translate(95,202)"/>
<path d="M0 0 C18.23112781 10.71414339 30.07217309 26.25440964 36.04296875 46.52734375 C37.74993506 54.12542548 37.35296058 61.91593245 37.10546875 69.65234375 C35.33189105 66.41634233 34.34676609 63.20014477 33.35546875 59.65234375 C29.94322456 48.44964501 24.86537539 39.40515183 17.10546875 30.65234375 C16.574375 30.02714844 16.04328125 29.40195312 15.49609375 28.7578125 C10.03224164 22.76650932 0.45113173 15.06895495 -7.89453125 14.65234375 C-10.55442754 15.59782797 -10.55442754 15.59782797 -13.08203125 17.08984375 C-17.7392179 19.65234375 -17.7392179 19.65234375 -19.89453125 19.65234375 C-21.62109375 17.31640625 -21.62109375 17.31640625 -23.51953125 14.27734375 C-24.15117187 13.27960938 -24.7828125 12.281875 -25.43359375 11.25390625 C-26.89453125 8.65234375 -26.89453125 8.65234375 -26.89453125 6.65234375 C-24.03307462 5.10496778 -21.1536471 3.59450264 -18.26953125 2.08984375 C-17.46128906 1.65220703 -16.65304688 1.21457031 -15.8203125 0.76367188 C-9.70257721 -2.39467114 -6.42124134 -2.98964678 0 0 Z " fill="#F03249" transform="translate(162.89453125,264.34765625)"/>
<path d="M0 0 C22.98955255 -1.6519439 49.04269027 7.71577635 67 22 C65.66202971 24.88619305 64.12267604 27.21886925 62.125 29.6875 C58.94330672 33.82838023 56.90492021 38.15926157 55 43 C54.2575 42.01 54.2575 42.01 53.5 41 C40.73293475 25.6795217 24.066111 15.57137639 5.765625 8.2265625 C3 7 3 7 1 5 C0.375 2.375 0.375 2.375 0 0 Z " fill="#FEC146" transform="translate(260,160)"/>
<path d="M0 0 C5.28 0 10.56 0 16 0 C16 16.5 16 33 16 50 C10.72 49.34 5.44 48.68 0 48 C0 32.16 0 16.32 0 0 Z " fill="#FE9400" transform="translate(288,408)"/>
<path d="M0 0 C5.28 0 10.56 0 16 0 C16 14.85 16 29.7 16 45 C1 44 1 44 0 43 C-0.09268999 41.64905018 -0.11747326 40.29332909 -0.11352539 38.93920898 C-0.11344986 38.07839218 -0.11337433 37.21757538 -0.11329651 36.33067322 C-0.10813522 35.39526199 -0.10297394 34.45985077 -0.09765625 33.49609375 C-0.0962413 32.54307877 -0.09482635 31.59006378 -0.09336853 30.60816956 C-0.08775152 27.55124835 -0.07519616 24.49439923 -0.0625 21.4375 C-0.05748719 19.37044376 -0.05292391 17.30338638 -0.04882812 15.23632812 C-0.03777656 10.15752412 -0.02050055 5.0787743 0 0 Z " fill="#FE8205" transform="translate(184,400)"/>
<path d="M0 0 C0 14.85 0 29.7 0 45 C-5.28 45 -10.56 45 -16 45 C-16 30.81 -16 16.62 -16 2 C-3 0 -3 0 0 0 Z " fill="#FE9500" transform="translate(336,339)"/>
<path d="M0 0 C0 13.86 0 27.72 0 42 C-5.28 42 -10.56 42 -16 42 C-16 28.47 -16 14.94 -16 1 C-8 0 -8 0 0 0 Z " fill="#FF9500" transform="translate(248,350)"/>
<path d="M0 0 C5.28 0 10.56 0 16 0 C16 10.56 16 21.12 16 32 C10.72 32 5.44 32 0 32 C0 21.44 0 10.88 0 0 Z " fill="#FE8205" transform="translate(352,432)"/>
<path d="M0 0 C1.07445262 0.91899747 2.14861158 1.83833829 3.22265625 2.7578125 C3.86477051 3.30727539 4.50688477 3.85673828 5.16845703 4.42285156 C6.55956285 5.62073793 7.9372792 6.83419434 9.30859375 8.0546875 C14.29726126 12.32022706 19.47118532 15.50986578 25.3125 18.4375 C25.9943335 18.77958496 26.67616699 19.12166992 27.37866211 19.47412109 C30.88674792 21.17012026 34.12962893 22.46847902 38 23 C38 23.66 38 24.32 38 25 C33.98103945 25.53601117 29.9596573 26.05107633 25.9375 26.5625 C24.80376953 26.71396484 23.67003906 26.86542969 22.50195312 27.02148438 C8.45409835 28.7825857 8.45409835 28.7825857 1.53125 24.6171875 C-0.92015798 22.63784119 -1.87934882 21.66649196 -2.4453125 18.54003906 C-2.3381137 15.66937881 -1.9833861 12.95626146 -1.5 10.125 C-1.36851562 9.15046875 -1.23703125 8.1759375 -1.1015625 7.171875 C-0.77231166 4.77304744 -0.40452631 2.38708685 0 0 Z " fill="#F5E0A3" transform="translate(200,326)"/>
<path d="M0 0 C5.28 0.33 10.56 0.66 16 1 C16 9.25 16 17.5 16 26 C10.72 25.34 5.44 24.68 0 24 C0 16.08 0 8.16 0 0 Z " fill="#FE8305" transform="translate(288,432)"/>
<path d="M0 0 C5.28 0 10.56 0 16 0 C16 6.93 16 13.86 16 21 C10.65803544 20.40644838 5.32081865 19.76011695 0 19 C0 12.73 0 6.46 0 0 Z " fill="#FE9400" transform="translate(184,400)"/>
<path d="M0 0 C5.28 0 10.56 0 16 0 C16 5.28 16 10.56 16 16 C10.72 16 5.44 16 0 16 C0 10.72 0 5.44 0 0 Z " fill="#FF9500" transform="translate(232,408)"/>
<path d="M0 0 C5.28 0 10.56 0 16 0 C16 5.28 16 10.56 16 16 C10.72 16 5.44 16 0 16 C0 10.72 0 5.44 0 0 Z " fill="#FF9500" transform="translate(352,400)"/>
<path d="M0 0 C5.28 0 10.56 0 16 0 C16 5.28 16 10.56 16 16 C10.72 16 5.44 16 0 16 C0 10.72 0 5.44 0 0 Z " fill="#F5E3A7" transform="translate(304,248)"/>
<path d="M0 0 C5.28 0 10.56 0 16 0 C16 5.28 16 10.56 16 16 C10.72 16 5.44 16 0 16 C0 10.72 0 5.44 0 0 Z " fill="#F5E3A7" transform="translate(168,248)"/>
<path d="M0 0 C0.66 0 1.32 0 2 0 C3.26171875 1.7578125 3.26171875 1.7578125 4.6875 4.125 C7.60635226 8.68705797 10.74341168 11.67986111 15 15 C11.49925018 19.17443363 8.02049157 23.3145494 4 27 C3.34 27 2.68 27 2 27 C-0.75268068 21.52361422 -1.41996398 17.33683502 -1.25 11.25 C-1.24484375 10.49589844 -1.2396875 9.74179688 -1.234375 8.96484375 C-1.1884895 5.73565189 -1.0269659 3.0808977 0 0 Z " fill="#87C983" transform="translate(249,85)"/>
<path d="M0 0 C2.64 0 5.28 0 8 0 C8.33 5.28 8.66 10.56 9 16 C6.03 16 3.06 16 0 16 C0 10.72 0 5.44 0 0 Z " fill="#F3E3A6" transform="translate(304,216)"/>
<path d="M0 0 C5.28 0 10.56 0 16 0 C16 2.64 16 5.28 16 8 C10.72 8 5.44 8 0 8 C0 5.36 0 2.72 0 0 Z " fill="#FE9400" transform="translate(352,432)"/>
<path d="M0 0 C3.98381075 2.16264012 6.88983545 4.71211176 10 8 C7.43106162 9.28446919 5.23423663 9.32977144 2.375 9.5625 C1.37210938 9.64628906 0.36921875 9.73007812 -0.6640625 9.81640625 C-1.43492187 9.87699219 -2.20578125 9.93757813 -3 10 C-2.01 6.7 -1.02 3.4 0 0 Z " fill="#FEA22A" transform="translate(197,346)"/>
</svg>
