<svg width="48" height="48" viewBox="0 0 48 48" fill="none" xmlns="http://www.w3.org/2000/svg">
<rect width="48" height="48" rx="24" fill="#EBEEFB"/>
<path d="M13.8752 32.8039C17.4757 36.4045 24.1473 35.5705 28.7766 30.9413C33.4058 26.312 34.2398 19.6404 30.6392 16.0399C27.0387 12.4393 20.3671 13.2733 15.7378 17.9025C11.1086 22.5318 10.2746 29.2034 13.8752 32.8039Z" stroke="#002855" stroke-width="1.92" stroke-linecap="round" stroke-linejoin="round"/>
<path d="M32.3181 31.9208C36.9474 27.2915 38.0782 19.1208 34.4815 14.7601C33.365 13.6435 31.953 12.3635 30.3982 12.0808" stroke="#002855" stroke-width="1.92" stroke-linecap="round" stroke-linejoin="round"/>
<path d="M20.1599 31.2805C20.8668 31.2805 21.4399 30.7074 21.4399 30.0005C21.4399 29.2935 20.8668 28.7205 20.1599 28.7205C19.453 28.7205 18.8799 29.2935 18.8799 30.0005C18.8799 30.7074 19.453 31.2805 20.1599 31.2805Z" fill="#002855"/>
<path d="M20.1599 21.6805L20.2164 21.5109C20.5649 20.4656 21.5432 19.7605 22.645 19.7605H22.8658C24.6532 19.7605 25.8905 21.5458 25.2629 23.2194C24.8881 24.2185 23.933 24.8805 22.8658 24.8805H22.3625C21.8115 24.8805 21.3224 25.233 21.1482 25.7557L20.7999 26.8005" stroke="#002855" stroke-width="1.92" stroke-linecap="round" stroke-linejoin="round"/>
</svg>
