<svg width="48" height="48" viewBox="0 0 48 48" fill="none" xmlns="http://www.w3.org/2000/svg">
<rect width="48" height="48" rx="24" fill="#EBEEFB"/>
<path d="M34.9495 22.6665H25.0732C23.6671 22.6665 22.4496 23.6431 22.1446 25.0157L20.5409 32.2327C20.2633 33.4817 21.2137 34.6665 22.4932 34.6665H28L32 37.9999V34.6665L33.9935 34.2678C34.8014 34.1062 35.4276 33.4657 35.5708 32.6542L36.9191 25.0141C37.1352 23.7894 36.1931 22.6665 34.9495 22.6665Z" stroke="#002855" stroke-width="1.5" stroke-linecap="round" stroke-linejoin="round"/>
<path d="M30.0008 20L30.946 14.3288C31.1491 13.1097 30.209 12 28.9732 12H13.9824C12.4695 12 11.1933 13.1266 11.0056 14.6279L9.6151 25.7519C9.46589 26.9456 10.3967 28 11.5997 28H13.3341V32L17.3341 28H18.6674" stroke="#002855" stroke-width="1.5" stroke-linecap="round" stroke-linejoin="round"/>
</svg>
