<svg width="48" height="48" viewBox="0 0 48 48" fill="none" xmlns="http://www.w3.org/2000/svg">
<rect width="48" height="48" rx="24" fill="#EBEEFB"/>
<path d="M11.5855 29.0229L13.5442 14.3029C13.7135 13.0308 14.7985 12.0806 16.0819 12.0806H33.8885C35.4323 12.0806 36.625 13.4369 36.4274 14.9682L34.528 29.6882C34.3632 30.9648 33.2762 31.9206 31.9891 31.9206H22.24L16.32 37.0406L16.96 31.9206H14.1232C12.5752 31.9206 11.3813 30.5574 11.5855 29.0229Z" stroke="#002855" stroke-width="1.92" stroke-linecap="round" stroke-linejoin="round"/>
<path d="M18.8455 25.2955L17.6001 28.7204L21.3363 27.5788L30.4696 18.1705C31.1325 17.4877 31.1005 16.3923 30.3991 15.7493C29.7254 15.1318 28.6827 15.1622 28.0462 15.8179L18.8455 25.2955Z" stroke="#002855" stroke-width="1.92" stroke-linecap="round" stroke-linejoin="round"/>
<path d="M27.2 17.8406L28.48 19.1206" stroke="#002855" stroke-width="1.92" stroke-linecap="round" stroke-linejoin="round"/>
</svg>
