<?xml version="1.0" encoding="UTF-8"?>
<svg version="1.1" xmlns="http://www.w3.org/2000/svg" width="512" height="512">
<path d="M0 0 C8.85280444 7.56491284 16.80868864 15.60469831 22.98046875 25.546875 C19.90809792 28.9370773 16.66504135 31.54026043 12.91796875 34.171875 C-7.1483079 48.60125404 -21.3981367 67.61956288 -28.01953125 91.546875 C-28.33921875 92.61164063 -28.65890625 93.67640625 -28.98828125 94.7734375 C-36.08394581 122.82759275 -31.16935018 155.88914538 -16.6953125 180.91015625 C-3.3206787 201.95416048 14.35456829 214.91944281 35.98046875 226.546875 C35.44030182 233.26579349 33.07098595 239.02683043 30.54296875 245.234375 C30.0955835 246.3385376 29.64819824 247.4427002 29.18725586 248.58032227 C13.18904847 287.45952387 -15.38285657 340.84443935 -54.96875 359.328125 C-79.50133639 369.12859485 -102.74606855 360.79340339 -125.96850586 351.87597656 C-138.2115837 347.2113982 -150.11784114 344.00562333 -163.33203125 344.109375 C-164.22341797 344.08939453 -165.11480469 344.06941406 -166.03320312 344.04882812 C-181.67934751 344.05979249 -196.58036515 349.88626216 -211.08203125 355.171875 C-213.52354963 356.0549413 -215.9660076 356.93522721 -218.41001892 357.81137085 C-219.91093801 358.35008376 -221.41039022 358.89291052 -222.90797424 359.44082642 C-236.52107313 364.35152465 -254.0300284 367.03798316 -267.65625 360.80078125 C-268.43613281 360.38699219 -269.21601563 359.97320312 -270.01953125 359.546875 C-270.91285156 359.12277344 -271.80617188 358.69867188 -272.7265625 358.26171875 C-289.49723103 349.84120127 -302.49894314 335.18311521 -313.62207031 320.39306641 C-315.03499618 318.52644421 -316.47359987 316.68221006 -317.91796875 314.83984375 C-352.96571026 269.7297477 -373.49071164 214.85201882 -381.01953125 158.546875 C-381.12338135 157.80373047 -381.22723145 157.06058594 -381.33422852 156.29492188 C-384.17824292 132.76460645 -383.77099202 106.52207865 -378.01953125 83.546875 C-377.80522461 82.6791748 -377.59091797 81.81147461 -377.37011719 80.91748047 C-368.17896071 44.96226499 -347.33058367 11.77891544 -315.01953125 -7.453125 C-286.07794691 -23.8570121 -256.1488957 -28.49075646 -224.12573242 -19.65380859 C-213.45638458 -16.56296088 -203.17520683 -12.49427353 -192.92651367 -8.23632812 C-173.91837361 -0.47579338 -161.94518091 -3.06501014 -143.45703125 -10.203125 C-95.35837798 -28.63785061 -43.28248471 -33.87832811 0 0 Z " fill="#FFFFFF" transform="translate(429.01953125,148.453125)"/>
<path d="M0 0 C1.26163533 34.90524418 -9.07711618 63.53137624 -32.76953125 89.12109375 C-49.54643178 106.75466963 -69.21545073 118.07942449 -93.96875 119.17578125 C-96.98718415 119.18562397 -99.98527982 119.14156077 -103 119 C-104.97211496 114.13850731 -105.22070593 109.91081518 -104.875 104.75 C-104.82424316 103.96641113 -104.77348633 103.18282227 -104.72119141 102.37548828 C-102.73815531 76.84071246 -92.0812096 53.22614916 -74 35 C-73.175 34.13375 -72.35 33.2675 -71.5 32.375 C-70.675 31.59125 -69.85 30.8075 -69 30 C-68.42636719 29.43152344 -67.85273438 28.86304687 -67.26171875 28.27734375 C-50.27240562 12.18388894 -23.77904644 -1.43340981 0 0 Z " fill="#FFFFFF" transform="translate(359,0)"/>
</svg>
