<svg width="24" height="24" viewBox="0 0 24 24" fill="none" xmlns="http://www.w3.org/2000/svg">
<path d="M21.374 16.68C20.8551 17.8286 20.607 18.3427 19.9407 19.3579C19.0095 20.7758 17.6953 22.5451 16.07 22.5571C14.6243 22.5691 14.2513 21.6139 12.2895 21.6297C10.3278 21.6393 9.91881 22.5749 8.47161 22.56C6.84633 22.5451 5.60217 20.951 4.67001 19.536C2.06409 15.5659 1.78905 10.9133 3.39945 8.4379C4.53897 6.68254 6.34185 5.6515 8.03481 5.6515C9.75897 5.6515 10.8428 6.59902 12.2684 6.59902C13.6518 6.59902 14.4942 5.6491 16.4881 5.6491C17.9962 5.6491 19.5908 6.47086 20.7303 7.88878C17.0027 9.93118 17.6084 15.2553 21.374 16.68ZM14.9747 4.06462C15.6999 3.13342 16.25 1.81966 16.0508 0.47998C14.8671 0.56062 13.4833 1.31662 12.6745 2.29534C11.942 3.1867 11.3348 4.51054 11.5715 5.79118C12.8627 5.83294 14.199 5.06302 14.9747 4.06462Z" fill="white"/>
</svg>
