<svg width="40" height="26" viewBox="0 0 40 26" fill="none" xmlns="http://www.w3.org/2000/svg">
<g clip-path="url(#clip0_9_26)">
<path d="M36.42 4.78802e-05H3.57999C3.32999 -0.00130592 3.07999 -0.00130592 2.82999 4.78802e-05C2.57999 0.0100479 2.32999 0.0300479 2.06999 0.0700479C1.56913 0.163976 1.10873 0.408129 0.74999 0.770048C0.389305 1.13099 0.151394 1.59632 0.0699904 2.10005C0.00585109 2.46971 -0.0176221 2.84528 -9.54932e-06 3.22005V23.13C0.00999045 23.38 0.0299904 23.64 0.0699904 23.89C0.157958 24.3975 0.394629 24.8673 0.74999 25.24C1.10526 25.6048 1.56772 25.8465 2.06999 25.93C2.43294 25.994 2.80186 26.0175 3.16999 26H37.17C37.4247 25.9961 37.6788 25.9727 37.93 25.93C38.4311 25.8367 38.8916 25.5925 39.25 25.23C39.612 24.866 39.8499 24.3971 39.93 23.89C39.9935 23.5237 40.017 23.1515 40 22.78V2.87005C39.9916 2.61556 39.9682 2.36179 39.93 2.11005C39.8432 1.60225 39.6064 1.13207 39.25 0.760048C38.8943 0.395879 38.432 0.154238 37.93 0.0700479C37.5671 0.00591964 37.1981 -0.0175586 36.83 4.78802e-05H36.42Z" fill="black"/>
<path d="M36.42 0.87001H37.15C37.35 0.87001 37.57 0.89001 37.77 0.93001C38.1009 0.984981 38.4075 1.1383 38.65 1.37001C38.8885 1.61169 39.0428 1.92377 39.09 2.26001C39.1459 2.58012 39.1661 2.90545 39.15 3.23001V22.78C39.1405 23.1006 39.1205 23.4208 39.09 23.74C39.0352 24.0738 38.882 24.3837 38.65 24.63C38.4153 24.867 38.11 25.0214 37.78 25.07C37.4633 25.1261 37.1413 25.1462 36.82 25.13H2.85002C2.63869 25.128 2.42792 25.108 2.22002 25.07C1.89136 25.0109 1.58815 24.8541 1.35002 24.62C1.11227 24.3818 0.95792 24.0731 0.910016 23.74C0.853846 23.4199 0.833721 23.0946 0.850016 22.77V2.90001C0.860016 2.70001 0.870016 2.48001 0.910016 2.27001C0.940016 2.09001 0.990016 1.93001 1.07002 1.78001C1.18004 1.5569 1.34183 1.36334 1.54188 1.21548C1.74193 1.06761 1.97444 0.969735 2.22002 0.93001C2.53666 0.873312 2.85877 0.85318 3.18002 0.87001H36.42Z" fill="white"/>
<path d="M10.92 8.61002C11.26 8.18002 11.49 7.61002 11.43 7.02002C10.8669 7.07576 10.3467 7.34535 9.97645 7.77326C9.60622 8.20116 9.41422 8.75477 9.44002 9.32002C10 9.36002 10.56 9.02002 10.92 8.62002V8.61002ZM11.43 9.42002C10.61 9.37002 9.91002 9.88002 9.53002 9.88002C9.13002 9.88002 8.53002 9.45002 7.89002 9.46002C7.05002 9.46002 6.27002 9.94002 5.84002 10.7C4.96002 12.22 5.61002 14.46 6.46002 15.7C6.88002 16.3 7.38002 16.97 8.04002 16.95C8.66002 16.93 8.90002 16.55 9.66002 16.55C10.41 16.55 10.63 16.95 11.29 16.94C11.98 16.93 12.4 16.33 12.82 15.72C13.29 15.02 13.49 14.35 13.5 14.32C13.49 14.3 12.18 13.8 12.17 12.3C12.16 11.04 13.2 10.45 13.24 10.4C13.033 10.1095 12.7623 9.87018 12.4486 9.70032C12.1348 9.53047 11.7865 9.43459 11.43 9.42002ZM18.54 7.72002C18.9405 7.69862 19.3411 7.7614 19.7158 7.90433C20.0906 8.04725 20.4312 8.26714 20.7158 8.5498C21.0003 8.83247 21.2225 9.17164 21.3679 9.54544C21.5133 9.91924 21.5788 10.3194 21.56 10.72C21.56 12.52 20.29 13.75 18.5 13.75H16.53V16.87H15.11V7.72002H18.54ZM16.54 12.55H18.16C19.4 12.55 20.1 11.89 20.1 10.73C20.1 9.58002 19.4 8.92002 18.17 8.92002H16.53V12.55H16.54ZM21.93 14.98C21.93 13.81 22.83 13.09 24.41 13L26.24 12.9V12.38C26.24 11.64 25.74 11.2 24.9 11.2C24.1 11.2 23.6 11.58 23.49 12.17H22.19C22.27 10.97 23.29 10.08 24.95 10.08C26.57 10.08 27.6 10.94 27.6 12.28V16.88H26.29V15.78H26.25C26.0392 16.1495 25.7331 16.4556 25.3638 16.6667C24.9945 16.8777 24.5753 16.9859 24.15 16.98C22.85 16.98 21.93 16.18 21.93 14.98ZM26.23 14.38V13.85L24.59 13.95C23.77 14.01 23.31 14.37 23.31 14.94C23.31 15.52 23.79 15.9 24.53 15.9C25.49 15.9 26.23 15.24 26.23 14.38ZM28.84 19.33V18.22C28.94 18.25 29.17 18.25 29.28 18.25C29.92 18.25 30.26 17.98 30.47 17.29L30.59 16.89L28.18 10.2H29.66L31.36 15.63H31.38L33.07 10.2H34.51L32.01 17.22C31.44 18.84 30.78 19.36 29.4 19.36C29.213 19.3599 29.026 19.3499 28.84 19.33Z" fill="black"/>
</g>
<defs>
<clipPath id="clip0_9_26">
<rect width="40" height="26" fill="white"/>
</clipPath>
</defs>
</svg>
