<svg width="24" height="24" viewBox="0 0 24 24" fill="none" xmlns="http://www.w3.org/2000/svg">
<path d="M3.66712 5.08881C3.76527 4.10731 4.59118 3.35986 5.57759 3.35986H9.39843C10.5344 3.35986 11.4219 4.34064 11.3089 5.47091L11.2129 6.43091C11.1148 7.41242 10.2888 8.15986 9.30243 8.15986H5.48159C4.34567 8.15986 3.45809 7.17909 3.57112 6.04881L3.66712 5.08881Z" stroke="#002855" stroke-width="1.44" stroke-linecap="round" stroke-linejoin="round"/>
<path d="M3.18716 12.769C3.28531 11.7875 4.11122 11.04 5.09763 11.04H8.91847C10.0544 11.04 10.9419 12.0208 10.8289 13.1511L10.2529 18.9111C10.1548 19.8926 9.32888 20.64 8.34247 20.64H4.52163C3.38571 20.64 2.49813 19.6593 2.61116 18.529L3.18716 12.769Z" stroke="#002855" stroke-width="1.44" stroke-linecap="round" stroke-linejoin="round"/>
<path d="M13.7471 5.08881C13.8452 4.10731 14.6712 3.35986 15.6576 3.35986H19.4784C20.6144 3.35986 21.5019 4.34064 21.3889 5.47091L20.8129 11.2309C20.7148 12.2124 19.8888 12.9599 18.9024 12.9599H15.0816C13.9456 12.9599 13.0581 11.9791 13.1711 10.8488L13.7471 5.08881Z" stroke="#002855" stroke-width="1.44" stroke-linecap="round" stroke-linejoin="round"/>
<path d="M12.7871 17.5688C12.8852 16.5873 13.7112 15.8398 14.6976 15.8398H18.5184C19.6544 15.8398 20.5419 16.8206 20.4289 17.9509L20.3329 18.9109C20.2348 19.8924 19.4088 20.6398 18.4224 20.6398H14.6016C13.4656 20.6398 12.5781 19.6591 12.6911 18.5288L12.7871 17.5688Z" stroke="#002855" stroke-width="1.44" stroke-linecap="round" stroke-linejoin="round"/>
</svg>
