<svg width="24" height="24" viewBox="0 0 24 24" fill="none" xmlns="http://www.w3.org/2000/svg">
<path d="M22.7725 12.2493C22.7725 11.4506 22.7006 10.6863 22.567 9.95142H12.229V14.1619L18.1829 14.1632C17.9413 15.5642 17.1642 16.7584 15.9734 17.5546V20.2863H19.5175C21.5869 18.384 22.7725 15.5718 22.7725 12.2493Z" fill="#4285F4"/>
<path d="M15.9747 17.5554C14.9882 18.2164 13.7177 18.603 12.2316 18.603C9.36053 18.603 6.92502 16.6815 6.05281 14.0913H2.39697V16.9086C4.20819 20.4786 7.93083 22.9283 12.2316 22.9283C15.204 22.9283 17.7012 21.9573 19.5188 20.2859L15.9747 17.5554Z" fill="#34A853"/>
<path d="M5.7091 12.0015C5.7091 11.2742 5.83113 10.5712 6.05336 9.91025V7.09302H2.39752C1.64863 8.56926 1.22729 10.2356 1.22729 12.0015C1.22729 13.7674 1.64991 15.4337 2.39752 16.9099L6.05336 14.0927C5.83113 13.4318 5.7091 12.7287 5.7091 12.0015Z" fill="#FABB05"/>
<path d="M12.2316 5.39811C13.854 5.39811 15.3067 5.95313 16.4538 7.03766L19.5945 3.9206C17.687 2.15601 15.2001 1.07275 12.2316 1.07275C7.9321 1.07275 4.20819 3.52251 2.39697 7.09252L6.05281 9.90975C6.92502 7.31964 9.36053 5.39811 12.2316 5.39811Z" fill="#E94235"/>
</svg>
