<svg width="40" height="26" viewBox="0 0 40 26" fill="none" xmlns="http://www.w3.org/2000/svg">
<g clip-path="url(#clip0_9_39)">
<path d="M0 0H40V26H0V0Z" fill="white"/>
<path fill-rule="evenodd" clip-rule="evenodd" d="M20.98 23H10.66C9.74 23 9 22.26 9 21.35V4.65C9 3.74 9.74 3 10.66 3H20.98C30.78 3 32.23 9.25 32.23 12.98C32.23 19.44 28.23 23 20.98 23ZM10.66 3.55C10.05 3.55 9.56 4.04 9.56 4.65V21.35C9.56 21.96 10.05 22.45 10.66 22.45H20.98C27.88 22.45 31.68 19.09 31.68 12.98C31.68 4.78 24.98 3.55 20.98 3.55H10.66ZM12.44 14.36C12.8643 14.36 13.2713 14.1914 13.5714 13.8914C13.8714 13.5913 14.04 13.1843 14.04 12.76C14.04 12.3357 13.8714 11.9287 13.5714 11.6286C13.2713 11.3286 12.8643 11.16 12.44 11.16C12.0157 11.16 11.6087 11.3286 11.3086 11.6286C11.0086 11.9287 10.84 12.3357 10.84 12.76C10.84 13.1843 11.0086 13.5913 11.3086 13.8914C11.6087 14.1914 12.0157 14.36 12.44 14.36ZM11.21 18.4C11.21 18.7208 11.2735 19.0384 11.3969 19.3346C11.5202 19.6307 11.701 19.8995 11.9288 20.1254C12.1566 20.3513 12.4268 20.5299 12.7239 20.6508C13.0211 20.7717 13.3392 20.8326 13.66 20.83V16.5C13.66 16.1751 13.5309 15.8635 13.3012 15.6338C13.0715 15.4041 12.7599 15.275 12.435 15.275C12.1101 15.275 11.7985 15.4041 11.5688 15.6338C11.3391 15.8635 11.21 16.1751 11.21 16.5V18.4Z" fill="black"/>
<path d="M15.33 6.25991V20.8299H21.71C27.51 20.8299 30.03 17.5799 30.03 12.9799C30.03 8.57991 27.51 5.15991 21.71 5.15991H16.43C15.82 5.15991 15.33 5.65991 15.33 6.25991Z" fill="#CC0066"/>
<path fill-rule="evenodd" clip-rule="evenodd" d="M18.2 11.12C18 11.05 17.8 11.02 17.57 11.02V11H16.07V14.48H17.59C17.86 14.48 18.09 14.43 18.29 14.34C18.4821 14.2529 18.6526 14.1243 18.7892 13.9635C18.9258 13.8027 19.0251 13.6137 19.08 13.41C19.2094 12.9338 19.199 12.4304 19.05 11.96C18.97 11.75 18.85 11.57 18.71 11.42C18.5668 11.2829 18.3965 11.1773 18.21 11.11L18.2 11.12ZM17.85 13.8C17.7432 13.8334 17.6319 13.8502 17.52 13.85V13.86H16.84V11.66H17.39C17.59 11.66 17.74 11.69 17.87 11.74C18 11.79 18.1 11.88 18.17 11.97C18.26 12.07 18.32 12.2 18.35 12.34C18.39 12.47 18.4 12.64 18.4 12.81C18.4 13.01 18.38 13.16 18.33 13.3C18.2843 13.4184 18.2164 13.527 18.13 13.62C18.0542 13.7036 17.9576 13.7657 17.85 13.8ZM22.29 11.66V11H19.67V14.48H22.34V13.84H20.44V13H22.14V12.4H20.44V11.66H22.29ZM24.94 11.01L26.25 14.5H25.45L25.18 13.73H23.87L23.59 14.5H22.81L24.13 11H24.93L24.94 11.01ZM24.98 13.15L24.54 11.87L24.07 13.15H24.98ZM27.5 13.85V11.01H26.74V14.5H29.22V13.85H27.5Z" fill="white"/>
</g>
<defs>
<clipPath id="clip0_9_39">
<rect width="40" height="26" fill="white"/>
</clipPath>
</defs>
</svg>
