<svg width="24" height="24" viewBox="0 0 24 24" fill="none" xmlns="http://www.w3.org/2000/svg">
<path d="M11.9998 20.5803C16.9041 20.5803 20.8798 16.6046 20.8798 11.7003C20.8798 6.79602 16.9041 2.82031 11.9998 2.82031C7.09552 2.82031 3.11981 6.79602 3.11981 11.7003C3.11981 16.6046 7.09552 20.5803 11.9998 20.5803Z" stroke="#3455DB" stroke-width="1.44"/>
<path d="M10.08 9.78027H12.96L11.04 15.5403M8.15997 15.5403H13.92" stroke="#3455DB" stroke-width="1.44" stroke-linecap="round" stroke-linejoin="round"/>
<path d="M13.4398 7.86019C13.97 7.86019 14.3998 7.43038 14.3998 6.90019C14.3998 6.36999 13.97 5.94019 13.4398 5.94019C12.9096 5.94019 12.4798 6.36999 12.4798 6.90019C12.4798 7.43038 12.9096 7.86019 13.4398 7.86019Z" fill="#3455DB"/>
</svg>
