<svg width="18" height="18" viewBox="0 0 18 18" fill="none" xmlns="http://www.w3.org/2000/svg">
<path d="M8.64778 14.7461C7.77889 13.6038 6.05505 11.2789 5.03042 9.50422C3.61831 7.0584 4.46674 4.03213 6.86817 2.64567C9.26958 1.25921 12.3403 2.08199 13.7267 4.48342C14.656 6.09286 14.5933 7.86708 13.7272 9.50508C13.0731 10.7423 10.8144 13.4969 9.7483 14.7709C9.4567 15.1194 8.92282 15.1078 8.64778 14.7461Z" stroke="#002855" stroke-width="1.08" stroke-linecap="round" stroke-linejoin="round"/>
<path d="M10.0063 8.08085C10.6067 7.73424 10.8124 6.96657 10.4658 6.36621C10.1192 5.76586 9.35149 5.56016 8.75113 5.90678C8.15078 6.25339 7.94508 7.02106 8.2917 7.62142C8.63831 8.22177 9.40598 8.42747 10.0063 8.08085Z" stroke="#002855" stroke-width="1.08" stroke-linecap="round" stroke-linejoin="round"/>
</svg>
