<svg width="111" height="29" viewBox="0 0 111 29" fill="none" xmlns="http://www.w3.org/2000/svg">
<path d="M103.182 0.210802L100.783 6.55575H108.551L110.951 0.210802H103.182ZM42.4605 8.01935L34.6519 28.7212H42.4206L50.2292 8.01935H42.4605ZM34.204 0.210802L23.427 28.7212H31.1957L41.974 0.210802H34.204ZM72.5568 12.0871C72.5568 9.19981 70.2796 7.65378 67.1065 7.65378C64.5847 7.65378 62.2663 8.26395 60.3548 10.1755L61.1271 8.02068H53.603L45.7945 28.7225H53.5632L57.8742 17.2942C58.6878 15.138 59.948 13.3088 62.4697 13.3088C63.5678 13.3088 64.0969 13.6744 64.0969 14.5291C64.0969 14.9359 63.9746 15.465 63.7313 16.115L58.9736 28.7212H66.7422L71.1344 17.1293C71.7844 15.4623 72.5568 13.3474 72.5568 12.0871ZM85.3278 28.7212H93.1363L88.7442 17.9841L99.4002 8.01935H90.8179L82.8871 15.5022L88.6618 0.209473H80.8944L70.1161 28.7199H77.8848L81.5046 19.122L85.3278 28.7212ZM10.7783 0.210802L0 28.7212H8.54102L12.2419 18.9598H23.7513L26.313 12.127H14.8035L16.6739 7.2058H29.1604L31.8045 0.210802H10.7783Z" fill="#E2186F"/>
</svg>
