<svg width="123" height="32" viewBox="0 0 123 32" fill="none" xmlns="http://www.w3.org/2000/svg">
<path d="M113.854 0.2334L111.206 7.23456H119.778L122.426 0.2334H113.854ZM46.8519 8.84954L38.2358 31.6924H46.8079L55.424 8.84954H46.8519ZM37.7414 0.2334L25.8499 31.6924H34.422L46.315 0.2334H37.7414ZM80.0608 13.338C80.0608 10.1521 77.5482 8.44616 74.0469 8.44616C71.2643 8.44616 68.7061 9.11943 66.5968 11.2287L67.4491 8.851H59.1468L50.5307 31.6939H59.1028L63.8597 19.0836C64.7574 16.7044 66.148 14.686 68.9306 14.686C70.1422 14.686 70.726 15.0894 70.726 16.0326C70.726 16.4814 70.591 17.0652 70.3226 17.7825L65.0728 31.6924H73.645L78.4913 18.9017C79.2086 17.0623 80.0608 14.7286 80.0608 13.338ZM94.1527 31.6924H102.769L97.9224 19.8449L109.68 8.84954H100.211L91.4596 17.1063L97.8315 0.231934H89.2608L77.3678 31.691H85.9399L89.9341 21.1005L94.1527 31.6924ZM11.893 0.2334L0 31.6924H9.42436L13.508 20.9215H26.2078L29.0344 13.382H16.3346L18.3984 7.95184H32.1763L35.0938 0.2334H11.893Z" fill="#E2186F"/>
</svg>
