<svg width="24" height="24" viewBox="0 0 24 24" fill="none" xmlns="http://www.w3.org/2000/svg">
<path d="M12.1609 10.5745C13.9068 11.0423 15.7857 9.69166 16.3574 7.55779C16.9292 5.42393 15.9774 3.31485 14.2315 2.84704C12.4856 2.37924 10.6068 3.72984 10.035 5.8637C9.46322 7.99757 10.415 10.1066 12.1609 10.5745Z" stroke="#002855" stroke-width="1.5" stroke-linecap="round" stroke-linejoin="round"/>
<path d="M19.875 15.8573C20.2117 16.5413 20.5483 17.8393 20.7644 19.0164C20.9638 20.1028 20.1046 21.0001 19 21.0001L5.38972 21C4.14416 21 3.28086 19.8901 3.70239 18.718C4.14045 17.5 4.7173 16.1126 5.25 15.2858C6.23182 13.762 7.70455 12.9999 9.75 13L15.9375 13.0001C18.1875 13.0001 19.3125 14.7144 19.875 15.8573Z" stroke="#002855" stroke-width="1.5" stroke-linecap="round" stroke-linejoin="round"/>
</svg>
