<?xml version="1.0" encoding="UTF-8"?>
<svg version="1.1" xmlns="http://www.w3.org/2000/svg" width="512" height="512">
<path d="M0 0 C0.71436816 -0.00235223 1.42873632 -0.00470446 2.16475201 -0.00712797 C4.56487977 -0.01379902 6.96495317 -0.01336032 9.36508942 -0.01294994 C11.10080628 -0.01624975 12.83652237 -0.01997557 14.57223749 -0.02409142 C19.34730807 -0.0341063 24.12236608 -0.0378274 28.89744568 -0.04048073 C34.04558089 -0.04438531 39.19370616 -0.05396356 44.34183502 -0.0626936 C56.77744374 -0.08245386 69.21305328 -0.09252376 81.64867377 -0.10142139 C87.50562833 -0.10580508 93.36258198 -0.11117169 99.21953583 -0.11641026 C118.69087028 -0.13342225 138.16220418 -0.14791621 157.63354492 -0.155159 C162.68619029 -0.15706887 167.73883566 -0.15898921 172.79148102 -0.16094494 C174.67518385 -0.16167055 174.67518385 -0.16167055 176.59694129 -0.16241082 C196.93802799 -0.17071031 217.27905587 -0.19604602 237.62011689 -0.22852562 C258.50635834 -0.26160368 279.3925699 -0.27960845 300.27883768 -0.28280324 C312.00466211 -0.28496766 323.73040076 -0.29370644 335.45619965 -0.31926441 C345.44290949 -0.34098159 355.42951272 -0.34901678 365.41624349 -0.33929763 C370.50949229 -0.3347559 375.60252117 -0.33663196 380.69573975 -0.35605907 C385.364346 -0.37371239 390.03257225 -0.37267538 394.70118266 -0.35716178 C396.38429973 -0.35478901 398.06744325 -0.359092 399.75051993 -0.37099043 C417.93801817 -0.49153493 432.0681552 4.07661364 445.50632477 16.64984608 C454.7756569 26.5579053 459.94579856 38.80486001 459.9647646 52.30367756 C459.96711683 53.01804572 459.96946906 53.73241388 459.97189257 54.46842957 C459.97856362 56.86855733 459.97812492 59.26863073 459.97771454 61.66876698 C459.98101435 63.40448384 459.98474016 65.14019993 459.98885602 66.87591505 C459.99887089 71.65098563 460.00259199 76.42604364 460.00524533 81.20112324 C460.00914991 86.34925845 460.01872816 91.49738372 460.02745819 96.64551258 C460.04721846 109.0811213 460.05728835 121.51673083 460.06618598 133.95235133 C460.07056968 139.80930589 460.07593629 145.66625954 460.08117485 151.52321339 C460.09818685 170.99454784 460.1126808 190.46588173 460.11992359 209.93722248 C460.12183347 214.98986785 460.1237538 220.04251322 460.12570953 225.09515858 C460.12619327 226.35096047 460.12667701 227.60676236 460.12717541 228.90061885 C460.13547491 249.24170555 460.16081061 269.58273343 460.19329021 289.92379445 C460.22636828 310.8100359 460.24437304 331.69624746 460.24756783 352.58251524 C460.24973225 364.30833967 460.25847103 376.03407832 460.28402901 387.7598772 C460.30574618 397.74658705 460.31378138 407.73319028 460.30406222 417.71992105 C460.29952049 422.81316985 460.30139655 427.90619873 460.32082367 432.9994173 C460.33847698 437.66802356 460.33743998 442.3362498 460.32192638 447.00486022 C460.3195536 448.68797728 460.3238566 450.37112081 460.33575503 452.05419749 C460.45629952 470.24169573 455.88815095 484.37183276 443.31491852 497.81000233 C433.40685929 507.07933446 421.15990459 512.24947611 407.66108704 512.26844215 C406.58953479 512.2719705 406.58953479 512.2719705 405.49633503 512.27557012 C403.09620726 512.28224118 400.69613387 512.28180247 398.29599762 512.2813921 C396.56028076 512.2846919 394.82456466 512.28841772 393.08884954 512.29253358 C388.31377896 512.30254845 383.53872095 512.30626955 378.76364136 512.30892289 C373.61550615 512.31282747 368.46738088 512.32240572 363.31925201 512.33113575 C350.88364329 512.35089602 338.44803376 512.36096591 326.01241326 512.36986354 C320.15545871 512.37424724 314.29850505 512.37961385 308.44155121 512.38485241 C288.97021675 512.40186441 269.49888286 512.41635836 250.02754211 512.42360115 C244.97489674 512.42551103 239.92225137 512.42743136 234.86960602 512.42938709 C233.61380413 512.42987083 232.35800224 512.43035457 231.06414574 512.43085297 C210.72305904 512.43915247 190.38203116 512.46448817 170.04097015 512.49696777 C149.1547287 512.53004584 128.26851714 512.5480506 107.38224936 512.55124539 C95.65642493 512.55340981 83.93068628 512.56214859 72.20488739 512.58770657 C62.21817755 512.60942374 52.23157432 512.61745894 42.24484354 512.60773978 C37.15159474 512.60319805 32.05856587 512.60507411 26.96534729 512.62450123 C22.29674103 512.64215454 17.62851479 512.64111754 12.95990437 512.62560394 C11.27678731 512.62323116 9.59364378 512.62753415 7.9105671 512.63943259 C-10.27693113 512.75997708 -24.40706817 508.19182851 -37.84523773 495.61859608 C-47.11456987 485.71053685 -52.28471152 473.46358214 -52.30367756 459.9647646 C-52.30602979 459.25039643 -52.30838202 458.53602827 -52.31080553 457.80001259 C-52.31747658 455.39988482 -52.31703788 452.99981143 -52.3166275 450.59967518 C-52.31992731 448.86395832 -52.32365313 447.12824222 -52.32776898 445.3925271 C-52.33778386 440.61745652 -52.34150496 435.84239851 -52.34415829 431.06731892 C-52.34806287 425.91918371 -52.35764112 420.77105844 -52.36637115 415.62292957 C-52.38613142 403.18732085 -52.39620132 390.75171132 -52.40509894 378.31609082 C-52.40948264 372.45913626 -52.41484925 366.60218261 -52.42008781 360.74522877 C-52.43709981 341.27389431 -52.45159377 321.80256042 -52.45883656 302.33121967 C-52.46074643 297.2785743 -52.46266677 292.22592893 -52.4646225 287.17328358 C-52.46510624 285.91748169 -52.46558998 284.6616798 -52.46608838 283.3678233 C-52.47438787 263.0267366 -52.49972358 242.68570872 -52.53220318 222.34464771 C-52.56528124 201.45840626 -52.583286 180.57219469 -52.5864808 159.68592691 C-52.58864522 147.96010249 -52.59738399 136.23436384 -52.62294197 124.50856495 C-52.64465915 114.52185511 -52.65269434 104.53525188 -52.64297519 94.5485211 C-52.63843346 89.4552723 -52.64030952 84.36224342 -52.65973663 79.26902485 C-52.67738994 74.60041859 -52.67635294 69.93219235 -52.66083934 65.26358193 C-52.65846657 63.58046487 -52.66276956 61.89732134 -52.67466799 60.21424466 C-52.79521249 42.02674642 -48.22706392 27.89660939 -35.65383148 14.45843983 C-25.74577226 5.18910769 -13.49881755 0.01896604 0 0 Z M212.83054352 74.13422108 C212.82696099 76.07981812 212.82696099 76.07981812 212.82330608 78.06472015 C212.76587998 108.89142368 212.69310251 139.7180488 212.60155724 170.54466845 C212.59028979 174.34331783 212.57915123 178.14196757 212.56809235 181.94061756 C212.56588866 182.69682368 212.56368498 183.45302979 212.56141452 184.23215125 C212.52609366 196.4580263 212.50120016 208.68390129 212.4801965 220.90980836 C212.45839284 233.46547958 212.42529928 246.02108491 212.38184196 258.57670003 C212.35540367 266.31699607 212.33765079 274.05721007 212.33119748 281.79754899 C212.3252934 287.74437716 212.30364084 293.69108448 212.27626801 299.63785458 C212.26750517 302.06895498 212.26376154 304.50007971 212.26553535 306.93119526 C212.27593316 327.76564916 210.96601154 345.30593234 195.83054352 361.13422108 C183.81195548 371.71222493 169.42255008 374.84449951 153.84030914 374.26605701 C140.67135128 373.40220409 128.65610691 366.77727522 119.83054352 357.13422108 C109.85004742 344.12993111 106.74826246 330.20809905 107.83054352 314.13422108 C109.79095824 301.07586536 116.44246055 288.85617709 126.86179352 280.78656483 C140.23116817 271.26206583 154.29089169 268.81718416 170.53025055 270.64911366 C171.73997025 270.78510723 171.73997025 270.78510723 172.97412872 270.92384815 C173.58674561 270.99327122 174.19936249 271.06269428 174.83054352 271.13422108 C174.85367089 263.06769934 174.87146061 255.00119135 174.88235569 246.9346447 C174.88758366 243.1893907 174.89467973 239.44415932 174.90598297 235.69891834 C174.91681492 232.0874042 174.922821 228.47591187 174.92542076 224.86438274 C174.92727445 223.48361778 174.93089401 222.10285407 174.93627357 220.72209835 C174.94348798 218.79446156 174.94395161 216.86680301 174.94406891 214.93915272 C174.94628952 213.83994999 174.94851013 212.74074726 174.95079803 211.60823536 C175.11100985 209.19070637 175.11100985 209.19070637 173.83054352 208.13422108 C139.98371969 205.88978184 109.7093724 213.79417159 83.83054352 236.13422108 C61.72884177 255.70078825 46.89832762 284.2065788 44.90085602 313.86468983 C44.137623 349.35502514 55.38074802 378.97408216 80.01804352 404.69672108 C101.82344865 425.95699108 132.11619911 437.63677114 162.50632477 437.28656483 C193.24646457 435.87779226 220.13039916 423.77306559 241.83054352 402.13422108 C242.68132477 401.30664295 243.53210602 400.47906483 244.40866852 399.62640858 C264.52954448 378.93607386 274.02307089 350.81465674 273.94406891 322.39618397 C273.94378652 321.00600658 273.94394579 319.61582904 273.94451141 318.22565174 C273.94479735 314.46790845 273.93893351 310.71019732 273.93193746 306.95246148 C273.92567005 303.01935157 273.92509744 299.08624085 273.92391205 295.15312672 C273.92080871 287.71245802 273.91260878 280.27180409 273.90256256 272.83114189 C273.89137043 264.35714041 273.88588317 255.88313821 273.88086712 247.40913117 C273.87042531 229.98415261 273.85284522 212.55918841 273.83054352 195.13422108 C275.26350204 195.92601839 276.69593624 196.71876467 278.12815094 197.51190662 C278.92589432 197.9532645 279.7236377 198.39462238 280.54555511 198.84935474 C282.40634908 199.89569333 284.24175702 200.98707749 286.06882477 202.09125233 C308.4331158 215.58939494 334.63410734 223.13422108 360.83054352 223.13422108 C360.83054352 202.67422108 360.83054352 182.21422108 360.83054352 161.13422108 C354.23054352 160.14422108 347.63054352 159.15422108 340.83054352 158.13422108 C318.84799393 152.0279573 299.18881792 139.41864986 287.58054352 119.25922108 C280.18722625 105.90366746 275.8819302 92.68801699 275.04148102 77.39984608 C275.07685453 75.167695 275.07685453 75.167695 273.83054352 74.13422108 C271.9281059 74.04030811 270.02215893 74.0167845 268.11740875 74.02069569 C266.28562325 74.02080898 266.28562325 74.02080898 264.41683197 74.02092457 C263.07426666 74.02603196 261.73170176 74.03124797 260.38913727 74.03656483 C259.02293194 74.03842908 257.65672595 74.03985295 256.29051971 74.04085255 C252.68852657 74.04467714 249.08657352 74.05450691 245.48459625 74.06555653 C241.81150607 74.07577192 238.13840943 74.08035044 234.46530914 74.08539295 C227.25370229 74.09612924 220.04212851 74.11320494 212.83054352 74.13422108 Z " fill="#000000" transform="translate(52.169456481933594,-0.13422107696533203)"/>
</svg>
