<svg width="24" height="24" viewBox="0 0 24 24" fill="none" xmlns="http://www.w3.org/2000/svg">
<mask id="mask0_29_92" style="mask-type:luminance" maskUnits="userSpaceOnUse" x="0" y="0" width="24" height="24">
<path d="M24 0H0V24H24V0Z" fill="white"/>
</mask>
<g mask="url(#mask0_29_92)">
<path d="M5.81984 3.80099L4.21984 19.801C4.1021 20.9784 5.02667 22 6.20992 22H16.2343C17.243 22 18.0938 21.2489 18.2189 20.2481L19.8786 6.97061C19.9551 6.3582 19.7446 5.74474 19.3082 5.30833L16.5857 2.58579C16.2106 2.21071 15.7019 2 15.1715 2H7.80992C6.78241 2 5.92208 2.77859 5.81984 3.80099Z" stroke="#002855" stroke-width="1.5" stroke-linecap="round" stroke-linejoin="round"/>
<path d="M12.5 9H8" stroke="#002855" stroke-width="1.5" stroke-linecap="round" stroke-linejoin="round"/>
<path d="M15.5 11.5H7.5" stroke="#002855" stroke-width="1.5" stroke-linecap="round" stroke-linejoin="round"/>
<path d="M15 14H7" stroke="#002855" stroke-width="1.5" stroke-linecap="round" stroke-linejoin="round"/>
<path d="M11.5 16.5H7" stroke="#002855" stroke-width="1.5" stroke-linecap="round" stroke-linejoin="round"/>
<path d="M15.5 2L15 7H19.5" stroke="#002855" stroke-width="1.5" stroke-linecap="round" stroke-linejoin="round"/>
</g>
</svg>
