<svg width="24" height="24" viewBox="0 0 24 24" fill="none" xmlns="http://www.w3.org/2000/svg">
<mask id="mask0_29_60" style="mask-type:luminance" maskUnits="userSpaceOnUse" x="0" y="0" width="24" height="24">
<path d="M23.52 0.18042H0.47998V23.2204H23.52V0.18042Z" fill="white"/>
</mask>
<g mask="url(#mask0_29_60)">
<path d="M4.266 4.67853L10.1785 2.70769C11.3608 2.31358 12.6391 2.31358 13.8214 2.70768L19.734 4.67853C20.3047 4.86875 20.7649 5.31262 20.8902 5.90097C21.4757 8.65119 20.9907 12.4968 19.2 15.5406C17.8627 17.8137 15.4254 19.8895 12.8482 21.3313C12.3207 21.6264 11.6791 21.6264 11.1516 21.3313C8.57447 19.8895 6.13732 17.8137 4.80001 15.5406C3.00937 12.4968 2.52433 8.65119 3.10983 5.90097C3.23508 5.31262 3.69534 4.86875 4.266 4.67853Z" stroke="#002855" stroke-width="1.44" stroke-linecap="round" stroke-linejoin="round"/>
<path d="M11.9789 9.46338C12.9828 9.73236 14.0631 8.95579 14.3918 7.72885C14.7206 6.50191 14.1733 5.28922 13.1695 5.02024C12.1656 4.75126 11.0853 5.52783 10.7565 6.75477C10.4278 7.98171 10.9751 9.1944 11.9789 9.46338Z" stroke="#002855" stroke-width="1.44" stroke-linecap="round" stroke-linejoin="round"/>
<path d="M16.1999 13.072C16.3796 13.4006 16.5594 14.0246 16.6746 14.5901C16.7804 15.1096 16.3701 15.5405 15.8399 15.5405L8.36959 15.5404C7.76422 15.5404 7.35352 14.997 7.57856 14.435C7.81169 13.8528 8.11743 13.1922 8.39989 12.7976C8.92352 12.0662 9.70899 11.7004 10.7999 11.7004L14.0999 11.7005C15.2999 11.7005 15.8999 12.5234 16.1999 13.072Z" stroke="#002855" stroke-width="1.44" stroke-linecap="round" stroke-linejoin="round"/>
</g>
</svg>
