<svg width="24" height="24" viewBox="0 0 24 24" fill="none" xmlns="http://www.w3.org/2000/svg">
<path d="M12.161 10.5745C13.9069 11.0423 15.7857 9.69166 16.3575 7.55779C16.9292 5.42393 15.9774 3.31485 14.2315 2.84704C12.4856 2.37924 10.6068 3.72984 10.035 5.8637C9.46327 7.99757 10.4151 10.1066 12.161 10.5745Z" stroke="currentColor" stroke-width="1.5" stroke-linecap="round" stroke-linejoin="round"/>
<path d="M19.8749 15.8573C20.2116 16.5413 20.5482 17.8393 20.7643 19.0164C20.9637 20.1028 20.1045 21.0001 18.9999 21.0001L5.38967 21C4.14411 21 3.28081 19.8901 3.70234 18.718C4.1404 17.5 4.71725 16.1126 5.24995 15.2858C6.23177 13.762 7.7045 12.9999 9.74995 13L15.9374 13.0001C18.1874 13.0001 19.3124 14.7144 19.8749 15.8573Z" stroke="currentColor" stroke-width="1.5" stroke-linecap="round" stroke-linejoin="round"/>
</svg>
