<svg width="24" height="24" viewBox="0 0 24 24" fill="none" xmlns="http://www.w3.org/2000/svg">
<path d="M21.5999 4.98035L19.6799 18.9004H2.3999L4.3199 4.98035H21.5999Z" stroke="#002855" stroke-width="1.44" stroke-linecap="round" stroke-linejoin="round"/>
<path d="M7.67999 10.7404C8.47528 10.7404 9.11999 10.0956 9.11999 9.30035C9.11999 8.50506 8.47528 7.86035 7.67999 7.86035C6.8847 7.86035 6.23999 8.50506 6.23999 9.30035C6.23999 10.0956 6.8847 10.7404 7.67999 10.7404Z" stroke="#002855" stroke-width="1.44" stroke-linecap="round" stroke-linejoin="round"/>
<path d="M11.5201 16.5004C12.3154 16.5004 12.9601 15.8557 12.9601 15.0604C12.9601 14.2651 12.3154 13.6204 11.5201 13.6204C10.7248 13.6204 10.0801 14.2651 10.0801 15.0604C10.0801 15.8557 10.7248 16.5004 11.5201 16.5004Z" stroke="#002855" stroke-width="1.44" stroke-linecap="round" stroke-linejoin="round"/>
<path d="M6.23999 15.5403L12.96 8.82031" stroke="#002855" stroke-width="1.44" stroke-linecap="round" stroke-linejoin="round"/>
<path d="M16.7999 4.98035L14.8799 18.9004" stroke="#002855" stroke-width="1.44" stroke-linecap="round" stroke-linejoin="round" stroke-dasharray="1.92 2.88"/>
</svg>
